<svg width="38" height="38" viewBox="0 0 38 38" fill="none" xmlns="http://www.w3.org/2000/svg">
<path d="M18.675 9.42788C13.3768 9.42788 9.1032 13.7014 9.1032 18.9997C9.1032 24.2979 13.3768 28.5715 18.675 28.5715C23.9732 28.5715 28.2468 24.2979 28.2468 18.9997C28.2468 13.7014 23.9732 9.42788 18.675 9.42788ZM18.675 25.2226C15.2511 25.2226 12.4521 22.4319 12.4521 18.9997C12.4521 15.5675 15.2428 12.7768 18.675 12.7768C22.1072 12.7768 24.8979 15.5675 24.8979 18.9997C24.8979 22.4319 22.0988 25.2226 18.675 25.2226ZM30.8709 9.03634C30.8709 10.2776 29.8712 11.2689 28.6383 11.2689C27.3971 11.2689 26.4057 10.2693 26.4057 9.03634C26.4057 7.80342 27.4054 6.80376 28.6383 6.80376C29.8712 6.80376 30.8709 7.80342 30.8709 9.03634ZM37.2105 11.3023C37.0688 8.31159 36.3857 5.66247 34.1948 3.47987C32.0122 1.29727 29.3631 0.614164 26.3724 0.464214C23.2901 0.289272 14.0515 0.289272 10.9692 0.464214C7.98691 0.605833 5.3378 1.28894 3.14686 3.47154C0.95593 5.65414 0.281156 8.30326 0.131206 11.2939C-0.0437354 14.3762 -0.0437354 23.6148 0.131206 26.6971C0.272825 29.6878 0.95593 32.3369 3.14686 34.5195C5.3378 36.7021 7.97858 37.3852 10.9692 37.5351C14.0515 37.7101 23.2901 37.7101 26.3724 37.5351C29.3631 37.3935 32.0122 36.7104 34.1948 34.5195C36.3774 32.3369 37.0605 29.6878 37.2105 26.6971C37.3854 23.6148 37.3854 14.3846 37.2105 11.3023ZM33.2285 30.0043C32.5787 31.6371 31.3208 32.895 29.6796 33.5531C27.2221 34.5278 21.3908 34.3029 18.675 34.3029C15.9592 34.3029 10.1195 34.5195 7.67035 33.5531C6.03756 32.9034 4.77965 31.6454 4.12154 30.0043C3.14686 27.5468 3.37179 21.7154 3.37179 18.9997C3.37179 16.2839 3.15519 10.4442 4.12154 7.99503C4.77132 6.36224 6.02923 5.10433 7.67035 4.44621C10.1279 3.47154 15.9592 3.69646 18.675 3.69646C21.3908 3.69646 27.2305 3.47987 29.6796 4.44621C31.3124 5.096 32.5703 6.35391 33.2285 7.99503C34.2031 10.4525 33.9782 16.2839 33.9782 18.9997C33.9782 21.7154 34.2031 27.5551 33.2285 30.0043Z" fill="url(#paint0_linear_1040_2159)"/>
<defs>
<linearGradient id="paint0_linear_1040_2159" x1="18.6708" y1="0.333008" x2="18.6708" y2="37.6663" gradientUnits="userSpaceOnUse">
<stop stop-color="#405DE6"/>
<stop offset="0.0572917" stop-color="#5851DB"/>
<stop offset="0.125" stop-color="#833AB4"/>
<stop offset="0.208333" stop-color="#C13584"/>
<stop offset="0.270833" stop-color="#E1306C"/>
<stop offset="0.348958" stop-color="#FD1D1D"/>
<stop offset="0.421875" stop-color="#F56040"/>
<stop offset="0.489583" stop-color="#F77737"/>
<stop offset="0.5625" stop-color="#FCAF45"/>
<stop offset="0.651042" stop-color="#FFDC80"/>
</linearGradient>
</defs>
</svg>
