<svg width="76" height="75" viewBox="0 0 76 75" fill="none" xmlns="http://www.w3.org/2000/svg">
<circle cx="38.1174" cy="37.5" r="37.5" fill="#FF6476"/>
<g clip-path="url(#clip0_1066_1081)">
<path d="M51.5237 37.5H46.3674V33.375C46.3674 31.0998 48.2172 29.25 50.4924 29.25H51.0081C51.8653 29.25 52.5549 28.5604 52.5549 27.7031V24.6094C52.5549 23.7521 51.8653 23.0625 51.0081 23.0625H50.4924C44.7948 23.0625 40.1799 27.6773 40.1799 33.375V48.8438C40.1799 50.5518 41.5657 51.9375 43.2737 51.9375H51.5237C53.2317 51.9375 54.6174 50.5518 54.6174 48.8438V40.5938C54.6174 38.8857 53.2317 37.5 51.5237 37.5ZM32.9612 37.5H27.8049V33.375C27.8049 31.0998 29.6547 29.25 31.9299 29.25H32.4456C33.3028 29.25 33.9924 28.5604 33.9924 27.7031V24.6094C33.9924 23.7521 33.3028 23.0625 32.4456 23.0625H31.9299C26.2323 23.0625 21.6174 27.6773 21.6174 33.375V48.8438C21.6174 50.5518 23.0032 51.9375 24.7112 51.9375H32.9612C34.6692 51.9375 36.0549 50.5518 36.0549 48.8438V40.5938C36.0549 38.8857 34.6692 37.5 32.9612 37.5Z" fill="white"/>
</g>
<defs>
<clipPath id="clip0_1066_1081">
<rect width="33" height="33" fill="white" transform="translate(21.6174 21)"/>
</clipPath>
</defs>
</svg>
