<svg width="57" height="57" viewBox="0 0 57 57" fill="none" xmlns="http://www.w3.org/2000/svg">
<path d="M51.6562 35.625H49.875V14.4994C49.8703 13.0174 49.2795 11.5975 48.2316 10.5496C47.1837 9.50173 45.7638 8.91095 44.2819 8.90625H12.7181C11.2362 8.91095 9.81628 9.50173 8.76838 10.5496C7.72048 11.5975 7.1297 13.0174 7.125 14.4994V35.625H5.34375C4.87133 35.625 4.41827 35.8127 4.08422 36.1467C3.75017 36.4808 3.5625 36.9338 3.5625 37.4062V40.6838C3.5672 42.1751 4.16173 43.6041 5.21631 44.6587C6.27089 45.7133 7.69986 46.3078 9.19125 46.3125H47.8088C49.3001 46.3078 50.7291 45.7133 51.7837 44.6587C52.8383 43.6041 53.4328 42.1751 53.4375 40.6838V37.4062C53.4375 36.9338 53.2498 36.4808 52.9158 36.1467C52.5817 35.8127 52.1287 35.625 51.6562 35.625ZM10.6875 14.4994C10.6875 14.2327 10.74 13.9687 10.8421 13.7223C10.9441 13.4759 11.0937 13.2521 11.2823 13.0635C11.4708 12.8749 11.6947 12.7254 11.941 12.6233C12.1874 12.5213 12.4515 12.4688 12.7181 12.4688H44.2819C44.5485 12.4688 44.8126 12.5213 45.059 12.6233C45.3053 12.7254 45.5292 12.8749 45.7177 13.0635C45.9063 13.2521 46.0559 13.4759 46.1579 13.7223C46.26 13.9687 46.3125 14.2327 46.3125 14.4994V35.625H33.8438C33.6093 35.6236 33.3769 35.6686 33.1599 35.7572C32.9429 35.8459 32.7455 35.9765 32.5791 36.1416L31.3322 37.4062H25.6678L24.4209 36.1416C24.2545 35.9765 24.0571 35.8459 23.8401 35.7572C23.6231 35.6686 23.3907 35.6236 23.1562 35.625H10.6875V14.4994ZM49.875 40.6838C49.875 41.2318 49.6573 41.7573 49.2698 42.1448C48.8823 42.5323 48.3568 42.75 47.8088 42.75H9.19125C8.64325 42.75 8.11769 42.5323 7.73019 42.1448C7.34269 41.7573 7.125 41.2318 7.125 40.6838V39.1875H22.4259L23.6728 40.4522C23.8393 40.6173 24.0366 40.7479 24.2537 40.8365C24.4707 40.9252 24.7031 40.9701 24.9375 40.9688H32.0625C32.2969 40.9701 32.5293 40.9252 32.7463 40.8365C32.9634 40.7479 33.1607 40.6173 33.3272 40.4522L34.5741 39.1875H49.875V40.6838Z" fill="black"/>
<path d="M22.6398 23.6733L19.0773 20.1108C18.7418 19.7753 18.2869 19.5869 17.8126 19.5869C17.3382 19.5869 16.8833 19.7753 16.5479 20.1108C16.2125 20.4462 16.024 20.9011 16.024 21.3755C16.024 21.8498 16.2125 22.3047 16.5479 22.6401L18.8635 24.938L16.5479 27.2358C16.3809 27.4014 16.2484 27.5984 16.158 27.8154C16.0676 28.0325 16.021 28.2653 16.021 28.5005C16.021 28.7356 16.0676 28.9684 16.158 29.1855C16.2484 29.4025 16.3809 29.5995 16.5479 29.7651C16.7135 29.9321 16.9105 30.0646 17.1275 30.155C17.3446 30.2455 17.5774 30.292 17.8126 30.292C18.0477 30.292 18.2805 30.2455 18.4976 30.155C18.7147 30.0646 18.9117 29.9321 19.0773 29.7651L22.6398 26.2026C22.8067 26.037 22.9392 25.84 23.0297 25.623C23.1201 25.4059 23.1667 25.1731 23.1667 24.938C23.1667 24.7028 23.1201 24.47 23.0297 24.2529C22.9392 24.0359 22.8067 23.8389 22.6398 23.6733Z" fill="black"/>
<path d="M26.7188 30.2812H32.0625C32.5349 30.2812 32.988 30.0936 33.322 29.7595C33.6561 29.4255 33.8438 28.9724 33.8438 28.5C33.8438 28.0276 33.6561 27.5745 33.322 27.2405C32.988 26.9064 32.5349 26.7188 32.0625 26.7188H26.7188C26.2463 26.7188 25.7933 26.9064 25.4592 27.2405C25.1252 27.5745 24.9375 28.0276 24.9375 28.5C24.9375 28.9724 25.1252 29.4255 25.4592 29.7595C25.7933 30.0936 26.2463 30.2812 26.7188 30.2812Z" fill="black"/>
</svg>
