<svg width="50" height="51" viewBox="0 0 50 51" fill="none" xmlns="http://www.w3.org/2000/svg">
<path d="M25 3.625C20.6735 3.625 16.4442 4.90795 12.8469 7.3116C9.24959 9.71526 6.44581 13.1317 4.79015 17.1288C3.13448 21.1259 2.70128 25.5243 3.54533 29.7676C4.38938 34.0109 6.47278 37.9087 9.53205 40.968C12.5913 44.0272 16.4891 46.1106 20.7324 46.9547C24.9757 47.7987 29.3741 47.3655 33.3712 45.7099C37.3683 44.0542 40.7848 41.2504 43.1884 37.6531C45.5921 34.0558 46.875 29.8265 46.875 25.5C46.875 19.6984 44.5703 14.1344 40.468 10.032C36.3656 5.92968 30.8016 3.625 25 3.625ZM25 44.25C21.2916 44.25 17.6665 43.1503 14.5831 41.0901C11.4996 39.0298 9.09641 36.1014 7.67727 32.6753C6.25813 29.2492 5.88681 25.4792 6.61029 21.8421C7.33376 18.2049 9.11952 14.864 11.7418 12.2417C14.364 9.61951 17.7049 7.83375 21.3421 7.11028C24.9792 6.3868 28.7492 6.75812 32.1753 8.17726C35.6014 9.5964 38.5298 11.9996 40.5901 15.0831C42.6503 18.1665 43.75 21.7916 43.75 25.5C43.75 30.4728 41.7746 35.2419 38.2583 38.7583C34.742 42.2746 29.9728 44.25 25 44.25Z" fill="black"/>
<path d="M18.2969 18.1409C18.1516 17.9944 17.9788 17.8782 17.7884 17.7989C17.598 17.7196 17.3938 17.6787 17.1875 17.6787C16.9813 17.6787 16.777 17.7196 16.5866 17.7989C16.3962 17.8782 16.2234 17.9944 16.0782 18.1409L9.82815 24.3909C9.6817 24.5362 9.56546 24.709 9.48613 24.8994C9.40681 25.0898 9.36597 25.294 9.36597 25.5003C9.36597 25.7065 9.40681 25.9108 9.48613 26.1012C9.56546 26.2916 9.6817 26.4644 9.82815 26.6096L16.0782 32.8596C16.2234 33.0061 16.3962 33.1223 16.5866 33.2017C16.777 33.281 16.9813 33.3218 17.1875 33.3218C17.3938 33.3218 17.598 33.281 17.7884 33.2017C17.9788 33.1223 18.1516 33.0061 18.2969 32.8596C18.4434 32.7144 18.5596 32.5416 18.6389 32.3512C18.7182 32.1608 18.7591 31.9565 18.7591 31.7503C18.7591 31.544 18.7182 31.3398 18.6389 31.1494C18.5596 30.959 18.4434 30.7862 18.2969 30.6409L13.1407 25.5003L18.2969 20.3596C18.4434 20.2144 18.5596 20.0416 18.6389 19.8512C18.7182 19.6608 18.7591 19.4565 18.7591 19.2503C18.7591 19.044 18.7182 18.8398 18.6389 18.6494C18.5596 18.459 18.4434 18.2862 18.2969 18.1409Z" fill="black"/>
<path d="M40.1719 24.3902L33.9219 18.1402C33.6277 17.846 33.2286 17.6807 32.8125 17.6807C32.3964 17.6807 31.9974 17.846 31.7032 18.1402C31.4089 18.4344 31.2436 18.8335 31.2436 19.2496C31.2436 19.6657 31.4089 20.0647 31.7032 20.3589L36.8594 25.4996L31.7032 30.6402C31.5567 30.7854 31.4405 30.9583 31.3611 31.1487C31.2818 31.3391 31.241 31.5433 31.241 31.7496C31.241 31.9558 31.2818 32.1601 31.3611 32.3505C31.4405 32.5409 31.5567 32.7137 31.7032 32.8589C31.8484 33.0054 32.0212 33.1216 32.2116 33.201C32.402 33.2803 32.6063 33.3211 32.8125 33.3211C33.0188 33.3211 33.223 33.2803 33.4134 33.201C33.6038 33.1216 33.7766 33.0054 33.9219 32.8589L40.1719 26.6089C40.3184 26.4637 40.4346 26.2909 40.5139 26.1005C40.5932 25.9101 40.6341 25.7058 40.6341 25.4996C40.6341 25.2933 40.5932 25.0891 40.5139 24.8987C40.4346 24.7083 40.3184 24.5354 40.1719 24.3902Z" fill="black"/>
<path d="M28.6249 14.6406C28.43 14.5744 28.2239 14.5474 28.0186 14.5611C27.8132 14.5748 27.6125 14.6289 27.4281 14.7204C27.2438 14.8118 27.0792 14.9389 26.9441 15.0941C26.8089 15.2493 26.7058 15.4297 26.6405 15.625L20.3905 34.375C20.312 34.5744 20.2754 34.7879 20.2829 35.0021C20.2905 35.2164 20.342 35.4268 20.4344 35.6202C20.5267 35.8137 20.6578 35.9861 20.8196 36.1266C20.9815 36.2672 21.1705 36.373 21.3749 36.4375C21.5409 36.4589 21.7089 36.4589 21.8749 36.4375C22.2025 36.4383 22.522 36.3362 22.7884 36.1455C23.0548 35.9549 23.2545 35.6853 23.3593 35.375L29.6093 16.625C29.6755 16.4301 29.7025 16.224 29.6888 16.0186C29.6751 15.8132 29.621 15.6126 29.5295 15.4282C29.438 15.2438 29.311 15.0793 29.1558 14.9441C29.0006 14.809 28.8201 14.7058 28.6249 14.6406Z" fill="black"/>
</svg>
