<svg width="44" height="50" viewBox="0 0 44 50" fill="none" xmlns="http://www.w3.org/2000/svg">
<path d="M13.8462 11.3706C13.6825 11.2055 13.4877 11.0745 13.273 10.9851C13.0584 10.8957 12.8281 10.8496 12.5956 10.8496C12.3631 10.8496 12.1328 10.8957 11.9182 10.9851C11.7035 11.0745 11.5087 11.2055 11.345 11.3706L7.82206 14.8936C7.65696 15.0573 7.52592 15.2521 7.43649 15.4668C7.34707 15.6814 7.30103 15.9117 7.30103 16.1442C7.30103 16.3767 7.34707 16.607 7.43649 16.8216C7.52592 17.0363 7.65696 17.2311 7.82206 17.3948L11.345 20.9177C11.5087 21.0828 11.7035 21.2139 11.9182 21.3033C12.1328 21.3927 12.3631 21.4388 12.5956 21.4388C12.8281 21.4388 13.0584 21.3927 13.273 21.3033C13.4877 21.2139 13.6825 21.0828 13.8462 20.9177C14.0113 20.754 14.1424 20.5592 14.2318 20.3445C14.3212 20.1299 14.3673 19.8996 14.3673 19.6671C14.3673 19.4346 14.3212 19.2043 14.2318 18.9897C14.1424 18.775 14.0113 18.5802 13.8462 18.4165L11.5563 16.1442L13.8462 13.8719C14.0113 13.7082 14.1424 13.5133 14.2318 13.2987C14.3212 13.084 14.3673 12.8538 14.3673 12.6213C14.3673 12.3887 14.3212 12.1585 14.2318 11.9439C14.1424 11.7292 14.0113 11.5344 13.8462 11.3706Z" fill="black"/>
<path d="M24.4148 14.8935L20.8919 11.3706C20.5602 11.0389 20.1104 10.8525 19.6413 10.8525C19.1722 10.8525 18.7224 11.0389 18.3907 11.3706C18.059 11.7023 17.8726 12.1521 17.8726 12.6212C17.8726 13.0903 18.059 13.5401 18.3907 13.8718L20.6806 16.1441L18.3907 18.4164C18.2256 18.5801 18.0945 18.775 18.0051 18.9896C17.9157 19.2043 17.8696 19.4345 17.8696 19.667C17.8696 19.8996 17.9157 20.1298 18.0051 20.3444C18.0945 20.5591 18.2256 20.7539 18.3907 20.9177C18.5544 21.0828 18.7492 21.2138 18.9639 21.3032C19.1785 21.3927 19.4088 21.4387 19.6413 21.4387C19.8738 21.4387 20.1041 21.3927 20.3187 21.3032C20.5334 21.2138 20.7282 21.0828 20.8919 20.9177L24.4148 17.3947C24.5799 17.231 24.711 17.0362 24.8004 16.8215C24.8898 16.6069 24.9359 16.3766 24.9359 16.1441C24.9359 15.9116 24.8898 15.6813 24.8004 15.4667C24.711 15.252 24.5799 15.0572 24.4148 14.8935Z" fill="black"/>
<path d="M42.7165 40.8042L29.8226 24.6516C29.7487 24.572 29.666 24.5011 29.576 24.4403C31.5722 21.2304 32.3669 17.4172 31.8194 13.6772C31.2718 9.93712 29.4173 6.51184 26.5848 4.00888C23.7523 1.50591 20.1249 0.0870234 16.3459 0.00387322C12.5669 -0.079277 8.88052 1.17868 5.94067 3.55464C3.00082 5.9306 0.997473 9.27099 0.285947 12.9833C-0.425578 16.6957 0.200707 20.5401 2.05372 23.8347C3.90674 27.1293 6.86672 29.6611 10.4087 30.9811C13.9506 32.3011 17.8456 32.324 21.4029 31.0457C21.4391 31.1502 21.4864 31.2506 21.5438 31.3452L34.4024 47.4449C34.9392 48.1214 35.6221 48.6678 36.3999 49.043C37.1778 49.4182 38.0305 49.6125 38.8941 49.6115C40.1952 49.618 41.449 49.1244 42.3964 48.2327C43.3438 47.341 43.9125 46.1194 43.9847 44.8203C44.0913 43.3687 43.6374 41.9314 42.7165 40.8042ZM3.7883 16.1438C3.7883 13.7051 4.51146 11.3212 5.86632 9.29351C7.22117 7.26582 9.14689 5.68543 11.3999 4.75219C13.653 3.81894 16.1322 3.57476 18.524 4.05053C20.9158 4.52629 23.1128 5.70063 24.8373 7.42504C26.5617 9.14944 27.736 11.3465 28.2118 13.7383C28.6875 16.1301 28.4433 18.6093 27.5101 20.8624C26.5769 23.1154 24.9965 25.0411 22.9688 26.396C20.9411 27.7508 18.5572 28.474 16.1185 28.474C12.8483 28.474 9.71209 27.1749 7.39973 24.8626C5.08737 22.5502 3.7883 19.414 3.7883 16.1438ZM39.8805 45.7715C39.4612 46.0398 38.9547 46.1364 38.466 46.0413C37.9774 45.9462 37.5441 45.6667 37.256 45.2607L24.6616 29.4076C25.6608 28.7773 26.583 28.0324 27.4094 27.1881L40.0038 43.0412C40.3606 43.4689 40.5374 44.0183 40.497 44.5737C40.4584 45.0389 40.2366 45.4697 39.8805 45.7715Z" fill="black"/>
</svg>
