<svg width="472" height="313" viewBox="0 0 472 313" fill="none" xmlns="http://www.w3.org/2000/svg">
<g clip-path="url(#clip0_965_390)">
<path d="M472 -1H0V313H472V-1Z" fill="#5B7D99"/>
<path d="M293.833 81.7752L279.641 73.3585C263.902 64.0247 244.336 63.9098 228.487 73.0559L203.693 87.3652L60.5837 170.017C42.9562 180.166 42.9536 205.551 60.5797 215.703L179.734 283.509C210.443 301.198 248.268 301.24 279.017 283.62L407.303 209.991C430.085 196.938 430.493 164.287 408.044 150.67L293.833 81.7752Z" fill="white"/>
<path d="M47.4338 190.913C47.4537 190.636 47.4789 190.36 47.5067 190.082C47.4643 190.354 47.4391 190.632 47.4338 190.913Z" fill="#9BA2BD"/>
<path d="M407.301 209.992L279.016 283.621C248.266 301.24 210.442 301.198 179.732 283.51L60.5783 215.703C52.3937 210.99 48.0113 202.99 47.4286 194.757L47.4272 197.512C47.422 208.266 53.1711 218.205 62.5053 223.581L173.438 286.652C211.812 309.534 250.274 306.532 284.749 286.778L409.315 215.28C418.748 209.876 424.577 199.859 424.604 189.004L424.626 180.957C424.35 192.313 418.556 203.544 407.301 209.992Z" fill="#9BA2BD"/>
<path d="M327.178 244.234C347.003 244.234 363.075 235.96 363.075 225.753C363.075 215.546 347.003 207.271 327.178 207.271C307.353 207.271 291.281 215.546 291.281 225.753C291.281 235.96 307.353 244.234 327.178 244.234Z" fill="#DDDFE6"/>
<path d="M300.144 195.596V221.449C300.144 221.449 306.106 224.213 310.151 221.907C310.295 221.042 311.059 195.89 311.059 195.89L311.407 216.043C311.407 216.043 317.006 219.899 320.943 215.826C321.028 215.4 321.038 205.58 320.795 197.564C320.783 197.156 330.851 193.362 330.837 192.964C330.684 187.971 320.184 187.304 320.184 187.304C320.184 187.304 318.261 187.157 311.104 186.125C305.323 185.294 300.144 189.767 300.144 195.596Z" fill="#333333"/>
<path d="M302.739 186.582L310.949 191.318C311.387 191.571 311.928 191.572 312.366 191.318L324.631 184.251C324.801 184.153 324.893 183.99 324.913 183.821V184.289C324.913 184.483 324.81 184.662 324.642 184.76L312.367 191.823C311.929 192.075 311.389 192.075 310.95 191.823L302.729 187.088C302.625 187.029 302.562 186.918 302.562 186.799V186.312C302.574 186.419 302.633 186.52 302.739 186.582Z" fill="#585971"/>
<path d="M315.757 177.672L315.824 167.675L315.617 167.553C315.49 167.479 315.333 167.478 315.204 167.552L302.35 174.954C302.084 175.107 301.919 175.39 301.919 175.69V185.318C301.919 185.475 302.003 185.621 302.139 185.7L302.411 185.857L315.312 178.441C315.587 178.281 315.757 177.989 315.757 177.672Z" fill="#585971"/>
<path d="M310.949 191.32L302.739 186.584C302.495 186.444 302.495 186.092 302.739 185.952L315.497 178.601C315.82 178.414 316.22 178.414 316.543 178.601L324.631 183.267C325.011 183.486 325.011 184.033 324.631 184.251L312.366 191.319C311.928 191.573 311.387 191.573 310.949 191.32Z" fill="#EBEDF6"/>
<path d="M316.02 177.807V167.994C316.02 167.716 315.718 167.541 315.476 167.681L302.612 175.088C302.346 175.242 302.182 175.524 302.182 175.831V185.458C302.182 185.818 302.572 186.044 302.885 185.864L315.575 178.574C315.851 178.416 316.02 178.124 316.02 177.807Z" fill="#333333"/>
<path d="M315.742 177.652V168.429C315.742 168.165 315.456 168.001 315.227 168.132L302.816 175.313C302.564 175.458 302.409 175.727 302.409 176.016V185.063C302.409 185.404 302.779 185.617 303.074 185.448L315.319 178.378C315.582 178.23 315.742 177.952 315.742 177.652Z" fill="#FDA601"/>
<path d="M320.539 185.597C319.96 185.262 318.278 184.294 317.613 183.911C317.442 183.813 317.232 183.813 317.061 183.912L311.94 186.88C311.85 186.932 311.85 187.062 311.94 187.113L314.902 188.834C315.055 188.922 315.244 188.922 315.396 188.834L320.539 185.831C320.629 185.778 320.629 185.65 320.539 185.597Z" fill="#9BA2BD"/>
<path d="M309.034 188.067C308.981 188.03 305.143 185.807 305.106 185.806C305.069 185.806 303.583 186.669 303.583 186.669L307.52 188.948L309.034 188.067Z" fill="#DDDFE6"/>
<path d="M320.63 181.358C320.577 181.321 316.739 179.098 316.702 179.097C316.665 179.095 315.179 179.96 315.179 179.96L319.117 182.239L320.63 181.358Z" fill="#DDDFE6"/>
<path d="M318.321 182.009L318.882 182.334C318.907 182.348 318.907 182.384 318.882 182.399L318.354 182.704C318.342 182.711 318.327 182.711 318.317 182.704L317.755 182.379C317.73 182.364 317.73 182.329 317.755 182.314L318.284 182.009C318.294 182.002 318.309 182.002 318.321 182.009Z" fill="#444444"/>
<path d="M317.645 182.399L318.207 182.725C318.232 182.739 318.232 182.775 318.207 182.789L317.678 183.095C317.666 183.101 317.652 183.101 317.641 183.095L317.08 182.769C317.055 182.755 317.055 182.719 317.08 182.705L317.608 182.399C317.619 182.393 317.633 182.393 317.645 182.399Z" fill="#444444"/>
<path d="M317.02 182.785L317.582 183.11C317.607 183.125 317.607 183.161 317.582 183.175L317.053 183.48C317.041 183.487 317.027 183.487 317.016 183.48L316.455 183.155C316.43 183.141 316.43 183.105 316.455 183.091L316.983 182.785C316.994 182.779 317.008 182.779 317.02 182.785Z" fill="#444444"/>
<path d="M316.349 183.17L316.917 183.499C316.939 183.512 316.939 183.545 316.917 183.558L316.198 183.973C316.187 183.98 316.174 183.98 316.163 183.973L315.595 183.644C315.572 183.631 315.572 183.598 315.595 183.585L316.314 183.17C316.325 183.165 316.338 183.165 316.349 183.17Z" fill="#444444"/>
<path d="M315.512 183.654L316.072 183.978C316.097 183.993 316.097 184.03 316.072 184.044L312.85 185.902C312.838 185.909 312.823 185.909 312.811 185.902L312.251 185.578C312.226 185.564 312.226 185.527 312.251 185.512L315.473 183.654C315.485 183.648 315.5 183.648 315.512 183.654Z" fill="#444444"/>
<path d="M316.876 182.008L317.575 181.605C317.587 181.598 317.602 181.598 317.612 181.605L318.174 181.93C318.199 181.944 318.199 181.98 318.174 181.994L317.474 182.397C317.463 182.404 317.448 182.404 317.437 182.397L316.876 182.072C316.851 182.058 316.851 182.022 316.876 182.008Z" fill="#444444"/>
<path d="M315.271 181.302L316.176 180.781C316.188 180.775 316.203 180.775 316.214 180.781L316.775 181.106C316.8 181.121 316.8 181.157 316.775 181.171L315.869 181.692C315.857 181.698 315.843 181.698 315.832 181.692L315.271 181.367C315.245 181.352 315.245 181.317 315.271 181.302Z" fill="#444444"/>
<path d="M315.851 181.786L316.877 181.194C316.889 181.188 316.904 181.188 316.915 181.194L317.47 181.52C317.496 181.534 317.496 181.57 317.47 181.584L316.444 182.176C316.432 182.183 316.418 182.183 316.406 182.176L315.851 181.851C315.825 181.837 315.825 181.801 315.851 181.786Z" fill="#444444"/>
<path d="M315.384 181.155L314.856 181.46C314.844 181.466 314.83 181.466 314.819 181.46L314.257 181.135C314.232 181.12 314.232 181.085 314.257 181.07L314.786 180.765C314.798 180.758 314.812 180.758 314.823 180.765L315.384 181.09C315.408 181.104 315.408 181.141 315.384 181.155Z" fill="#444444"/>
<path d="M314.931 180.68L315.46 180.375C315.472 180.368 315.486 180.368 315.497 180.375L316.059 180.7C316.084 180.715 316.084 180.75 316.059 180.765L315.53 181.07C315.518 181.077 315.504 181.077 315.493 181.07L314.931 180.745C314.906 180.731 314.906 180.695 314.931 180.68Z" fill="#444444"/>
<path d="M314.708 181.544L314.179 181.849C314.167 181.856 314.153 181.856 314.142 181.849L313.581 181.524C313.555 181.51 313.555 181.474 313.581 181.46L314.109 181.154C314.121 181.148 314.136 181.148 314.146 181.154L314.708 181.479C314.733 181.494 314.733 181.53 314.708 181.544Z" fill="#444444"/>
<path d="M314.088 181.928L313.553 182.237C313.542 182.243 313.529 182.243 313.518 182.237L312.95 181.908C312.928 181.895 312.928 181.862 312.95 181.848L313.485 181.539C313.496 181.533 313.509 181.533 313.52 181.539L314.088 181.868C314.11 181.881 314.11 181.914 314.088 181.928Z" fill="#444444"/>
<path d="M313.413 182.317L312.878 182.627C312.867 182.633 312.854 182.633 312.843 182.627L312.275 182.297C312.252 182.284 312.252 182.251 312.275 182.238L312.81 181.929C312.821 181.922 312.834 181.922 312.844 181.929L313.413 182.258C313.435 182.271 313.435 182.304 313.413 182.317Z" fill="#444444"/>
<path d="M312.737 182.707L312.202 183.016C312.191 183.023 312.178 183.023 312.168 183.016L311.599 182.687C311.577 182.674 311.577 182.641 311.599 182.628L312.134 182.318C312.145 182.312 312.158 182.312 312.169 182.318L312.737 182.647C312.76 182.661 312.76 182.694 312.737 182.707Z" fill="#444444"/>
<path d="M312.075 183.089L311.54 183.398C311.529 183.405 311.516 183.405 311.505 183.398L310.937 183.069C310.915 183.056 310.915 183.023 310.937 183.01L311.472 182.7C311.483 182.694 311.496 182.694 311.507 182.7L312.075 183.029C312.097 183.043 312.097 183.076 312.075 183.089Z" fill="#444444"/>
<path d="M311.386 183.486L310.859 183.79C310.847 183.796 310.833 183.796 310.821 183.79L310.261 183.466C310.235 183.451 310.235 183.414 310.261 183.4L310.788 183.096C310.8 183.089 310.814 183.089 310.826 183.096L311.386 183.42C311.413 183.434 311.413 183.471 311.386 183.486Z" fill="#444444"/>
<path d="M310.711 183.875L310.184 184.179C310.172 184.186 310.157 184.186 310.145 184.179L309.585 183.855C309.56 183.841 309.56 183.804 309.585 183.789L310.112 183.485C310.124 183.479 310.139 183.479 310.151 183.485L310.711 183.809C310.736 183.824 310.736 183.861 310.711 183.875Z" fill="#444444"/>
<path d="M310.035 184.265L309.508 184.569C309.496 184.575 309.482 184.575 309.47 184.569L308.909 184.245C308.884 184.231 308.884 184.194 308.909 184.179L309.437 183.875C309.449 183.868 309.463 183.868 309.475 183.875L310.035 184.199C310.06 184.213 310.06 184.249 310.035 184.265Z" fill="#444444"/>
<path d="M309.36 184.654L308.833 184.958C308.821 184.964 308.806 184.964 308.794 184.958L308.234 184.634C308.209 184.619 308.209 184.582 308.234 184.568L308.761 184.264C308.773 184.257 308.788 184.257 308.8 184.264L309.36 184.588C309.385 184.603 309.385 184.639 309.36 184.654Z" fill="#444444"/>
<path d="M308.123 184.652L308.687 184.979C308.711 184.993 308.711 185.028 308.687 185.041L308.156 185.348C308.146 185.354 308.131 185.354 308.12 185.348L307.556 185.021C307.532 185.007 307.532 184.972 307.556 184.959L308.087 184.652C308.098 184.647 308.112 184.647 308.123 184.652Z" fill="#444444"/>
<path d="M307.454 185.038L308.018 185.365C308.042 185.379 308.042 185.413 308.018 185.427L307.487 185.733C307.477 185.74 307.462 185.74 307.451 185.733L306.887 185.407C306.863 185.392 306.863 185.358 306.887 185.345L307.418 185.038C307.429 185.033 307.444 185.033 307.454 185.038Z" fill="#444444"/>
<path d="M315.169 182.074L314.607 181.749C314.582 181.734 314.582 181.699 314.607 181.684L315.135 181.379C315.147 181.372 315.162 181.372 315.173 181.379L315.734 181.704C315.759 181.719 315.759 181.754 315.734 181.769L315.206 182.074C315.195 182.081 315.18 182.081 315.169 182.074Z" fill="#444444"/>
<path d="M315.079 182.14L314.55 182.445C314.538 182.452 314.524 182.452 314.513 182.445L313.951 182.12C313.926 182.106 313.926 182.07 313.951 182.055L314.48 181.75C314.492 181.743 314.506 181.743 314.517 181.75L315.079 182.075C315.104 182.09 315.104 182.125 315.079 182.14Z" fill="#444444"/>
<path d="M314.459 182.523L313.924 182.833C313.913 182.839 313.9 182.839 313.889 182.833L313.321 182.504C313.299 182.49 313.299 182.457 313.321 182.444L313.856 182.135C313.867 182.128 313.88 182.128 313.891 182.135L314.459 182.464C314.481 182.477 314.481 182.51 314.459 182.523Z" fill="#444444"/>
<path d="M313.783 182.913L313.248 183.222C313.238 183.229 313.225 183.229 313.214 183.222L312.646 182.893C312.623 182.88 312.623 182.847 312.646 182.834L313.181 182.524C313.191 182.518 313.205 182.518 313.215 182.524L313.783 182.854C313.806 182.867 313.806 182.9 313.783 182.913Z" fill="#444444"/>
<path d="M313.108 183.302L312.573 183.611C312.562 183.618 312.549 183.618 312.538 183.611L311.97 183.282C311.948 183.269 311.948 183.236 311.97 183.222L312.505 182.913C312.516 182.907 312.529 182.907 312.54 182.913L313.108 183.242C313.13 183.257 313.13 183.288 313.108 183.302Z" fill="#444444"/>
<path d="M312.444 183.684L311.909 183.993C311.899 183.999 311.885 183.999 311.875 183.993L311.307 183.664C311.284 183.65 311.284 183.617 311.307 183.604L311.842 183.295C311.852 183.288 311.866 183.288 311.876 183.295L312.444 183.624C312.468 183.639 312.468 183.672 312.444 183.684Z" fill="#444444"/>
<path d="M311.757 184.081L311.23 184.385C311.218 184.392 311.203 184.392 311.191 184.385L310.631 184.062C310.606 184.047 310.606 184.01 310.631 183.995L311.158 183.691C311.17 183.685 311.185 183.685 311.197 183.691L311.757 184.015C311.782 184.03 311.782 184.067 311.757 184.081Z" fill="#444444"/>
<path d="M311.082 184.47L310.555 184.774C310.543 184.781 310.528 184.781 310.516 184.774L309.956 184.45C309.931 184.436 309.931 184.399 309.956 184.384L310.483 184.08C310.495 184.074 310.509 184.074 310.521 184.08L311.082 184.404C311.107 184.42 311.107 184.455 311.082 184.47Z" fill="#444444"/>
<path d="M310.406 184.86L309.879 185.164C309.867 185.17 309.852 185.17 309.841 185.164L309.28 184.84C309.255 184.825 309.255 184.788 309.28 184.774L309.807 184.47C309.819 184.463 309.834 184.463 309.846 184.47L310.406 184.794C310.431 184.809 310.431 184.845 310.406 184.86Z" fill="#444444"/>
<path d="M308.601 185.165L309.132 184.858C309.143 184.852 309.157 184.852 309.168 184.858L309.732 185.185C309.756 185.199 309.756 185.234 309.732 185.247L309.201 185.554C309.19 185.56 309.176 185.56 309.165 185.554L308.601 185.227C308.577 185.214 308.577 185.18 308.601 185.165Z" fill="#444444"/>
<path d="M307.926 185.555L308.457 185.248C308.467 185.242 308.482 185.242 308.492 185.248L309.057 185.575C309.08 185.589 309.08 185.623 309.057 185.637L308.526 185.943C308.515 185.95 308.5 185.95 308.49 185.943L307.926 185.617C307.902 185.604 307.902 185.569 307.926 185.555Z" fill="#444444"/>
<path d="M307.825 185.642L308.389 185.968C308.413 185.983 308.413 186.017 308.389 186.03L307.858 186.337C307.847 186.343 307.833 186.343 307.822 186.337L307.258 186.01C307.234 185.996 307.234 185.961 307.258 185.948L307.789 185.642C307.8 185.635 307.813 185.635 307.825 185.642Z" fill="#444444"/>
<path d="M306.583 186.343L307.124 186.029C307.136 186.023 307.15 186.023 307.162 186.029L307.727 186.362C307.751 186.377 307.751 186.411 307.727 186.424L307.673 186.456C307.649 186.469 307.649 186.504 307.673 186.518L308.244 186.859C308.267 186.874 308.267 186.908 308.244 186.921L307.882 187.13C307.871 187.137 307.857 187.137 307.846 187.13L306.585 186.405C306.558 186.39 306.558 186.356 306.583 186.343Z" fill="#444444"/>
<path d="M315.714 182.557L315.159 182.231C315.134 182.217 315.134 182.181 315.159 182.167L315.688 181.861C315.7 181.855 315.714 181.855 315.726 181.861L316.281 182.186C316.306 182.201 316.306 182.237 316.281 182.251L315.753 182.557C315.741 182.563 315.726 182.563 315.714 182.557Z" fill="#444444"/>
<path d="M315.039 182.946L314.484 182.621C314.459 182.607 314.459 182.571 314.484 182.556L315.012 182.251C315.024 182.244 315.039 182.244 315.051 182.251L315.606 182.576C315.631 182.591 315.631 182.626 315.606 182.641L315.077 182.946C315.065 182.953 315.051 182.953 315.039 182.946Z" fill="#444444"/>
<path d="M313.855 182.945L314.39 182.636C314.4 182.629 314.414 182.629 314.424 182.636L314.986 182.965C315.008 182.978 315.008 183.011 314.986 183.024L314.451 183.334C314.44 183.34 314.427 183.34 314.416 183.334L313.855 183.005C313.832 182.991 313.832 182.958 313.855 182.945Z" fill="#444444"/>
<path d="M313.179 183.335L313.715 183.025C313.725 183.019 313.738 183.019 313.749 183.025L314.311 183.355C314.333 183.368 314.333 183.401 314.311 183.414L313.775 183.723C313.765 183.73 313.752 183.73 313.741 183.723L313.179 183.394C313.157 183.38 313.157 183.348 313.179 183.335Z" fill="#444444"/>
<path d="M312.504 183.724L313.039 183.415C313.05 183.409 313.063 183.409 313.073 183.415L313.635 183.744C313.657 183.757 313.657 183.79 313.635 183.804L313.1 184.113C313.089 184.119 313.076 184.119 313.066 184.113L312.504 183.784C312.48 183.769 312.481 183.738 312.504 183.724Z" fill="#444444"/>
<path d="M311.842 184.106L312.377 183.797C312.388 183.79 312.401 183.79 312.411 183.797L312.973 184.126C312.995 184.139 312.995 184.172 312.973 184.185L312.438 184.495C312.427 184.501 312.414 184.501 312.403 184.495L311.842 184.166C311.818 184.151 311.818 184.119 311.842 184.106Z" fill="#444444"/>
<path d="M311.165 184.496L311.692 184.192C311.704 184.186 311.719 184.186 311.731 184.192L312.284 184.516C312.309 184.531 312.309 184.568 312.284 184.582L311.757 184.886C311.745 184.893 311.731 184.893 311.719 184.886L311.165 184.562C311.14 184.547 311.14 184.511 311.165 184.496Z" fill="#444444"/>
<path d="M310.49 184.886L311.017 184.582C311.029 184.575 311.043 184.575 311.055 184.582L311.609 184.906C311.634 184.92 311.634 184.957 311.609 184.972L311.082 185.276C311.07 185.283 311.055 185.283 311.043 185.276L310.49 184.952C310.464 184.936 310.464 184.901 310.49 184.886Z" fill="#444444"/>
<path d="M309.814 185.275L310.341 184.971C310.353 184.964 310.368 184.964 310.38 184.971L310.933 185.295C310.958 185.309 310.958 185.346 310.933 185.361L310.406 185.665C310.394 185.671 310.38 185.671 310.368 185.665L309.814 185.341C309.789 185.326 309.789 185.291 309.814 185.275Z" fill="#444444"/>
<path d="M309.136 185.667L309.667 185.36C309.679 185.354 309.692 185.354 309.703 185.36L310.26 185.687C310.284 185.701 310.284 185.736 310.26 185.749L309.729 186.056C309.717 186.062 309.704 186.062 309.694 186.056L309.136 185.729C309.111 185.715 309.111 185.68 309.136 185.667Z" fill="#444444"/>
<path d="M308.461 186.064L308.992 185.757C309.002 185.75 309.017 185.75 309.027 185.757L309.585 186.083C309.609 186.098 309.609 186.132 309.585 186.145L309.054 186.452C309.043 186.459 309.029 186.459 309.018 186.452L308.461 186.126C308.435 186.112 308.435 186.078 308.461 186.064Z" fill="#444444"/>
<path d="M307.791 186.449L308.322 186.143C308.334 186.136 308.347 186.136 308.357 186.143L308.915 186.469C308.939 186.484 308.939 186.518 308.915 186.531L308.384 186.838C308.372 186.844 308.359 186.844 308.348 186.838L307.791 186.511C307.767 186.498 307.767 186.464 307.791 186.449Z" fill="#444444"/>
<path d="M317.34 182.476L316.812 182.781C316.8 182.788 316.786 182.788 316.775 182.781L316.213 182.456C316.188 182.442 316.188 182.406 316.213 182.391L316.742 182.086C316.754 182.079 316.768 182.079 316.779 182.086L317.34 182.411C317.366 182.424 317.366 182.461 317.34 182.476Z" fill="#444444"/>
<path d="M315.581 182.78L316.109 182.475C316.121 182.468 316.136 182.468 316.146 182.475L316.708 182.8C316.733 182.814 316.733 182.85 316.708 182.865L316.179 183.17C316.167 183.176 316.153 183.176 316.142 183.17L315.581 182.845C315.557 182.83 315.557 182.794 315.581 182.78Z" fill="#444444"/>
<path d="M314.908 183.169L315.443 182.859C315.453 182.853 315.467 182.853 315.477 182.859L316.045 183.189C316.068 183.202 316.068 183.235 316.045 183.248L315.51 183.557C315.5 183.564 315.487 183.564 315.476 183.557L314.908 183.228C314.884 183.215 314.884 183.182 314.908 183.169Z" fill="#444444"/>
<path d="M314.232 183.558L314.767 183.249C314.778 183.242 314.791 183.242 314.802 183.249L315.37 183.578C315.392 183.591 315.392 183.624 315.37 183.638L314.835 183.947C314.824 183.953 314.811 183.953 314.8 183.947L314.232 183.618C314.208 183.605 314.208 183.572 314.232 183.558Z" fill="#444444"/>
<path d="M313.557 183.948L314.092 183.639C314.103 183.632 314.116 183.632 314.126 183.639L314.695 183.968C314.717 183.981 314.717 184.014 314.695 184.027L314.16 184.337C314.149 184.343 314.136 184.343 314.125 184.337L313.557 184.007C313.533 183.994 313.533 183.961 313.557 183.948Z" fill="#444444"/>
<path d="M312.893 184.33L313.428 184.021C313.439 184.014 313.452 184.014 313.463 184.021L314.031 184.35C314.053 184.363 314.053 184.396 314.031 184.409L313.496 184.718C313.485 184.725 313.472 184.725 313.462 184.718L312.893 184.389C312.871 184.376 312.871 184.343 312.893 184.33Z" fill="#444444"/>
<path d="M312.218 184.72L312.745 184.416C312.757 184.409 312.771 184.409 312.783 184.416L313.344 184.74C313.369 184.754 313.369 184.791 313.344 184.806L312.816 185.11C312.805 185.116 312.79 185.116 312.778 185.11L312.218 184.786C312.193 184.772 312.193 184.735 312.218 184.72Z" fill="#444444"/>
<path d="M311.543 185.094L312.07 184.79C312.082 184.784 312.096 184.784 312.108 184.79L312.668 185.114C312.693 185.128 312.693 185.165 312.668 185.18L312.141 185.484C312.129 185.491 312.115 185.491 312.103 185.484L311.543 185.16C311.517 185.146 311.517 185.109 311.543 185.094Z" fill="#444444"/>
<path d="M310.867 185.484L311.394 185.18C311.406 185.173 311.421 185.173 311.433 185.18L311.993 185.504C312.018 185.518 312.018 185.555 311.993 185.57L311.466 185.874C311.454 185.88 311.439 185.88 311.427 185.874L310.867 185.55C310.842 185.535 310.842 185.498 310.867 185.484Z" fill="#444444"/>
<path d="M310.188 185.883L310.719 185.576C310.729 185.57 310.744 185.57 310.754 185.576L311.319 185.903C311.342 185.917 311.342 185.952 311.319 185.965L310.788 186.271C310.777 186.278 310.762 186.278 310.752 186.271L310.188 185.945C310.164 185.932 310.164 185.896 310.188 185.883Z" fill="#444444"/>
<path d="M309.512 186.272L310.043 185.966C310.054 185.959 310.069 185.959 310.079 185.966L310.643 186.292C310.667 186.307 310.667 186.341 310.643 186.354L310.112 186.661C310.102 186.668 310.087 186.668 310.076 186.661L309.512 186.335C309.488 186.32 309.488 186.286 309.512 186.272Z" fill="#444444"/>
<path d="M310.927 186.665L311.173 186.808C311.197 186.822 311.197 186.857 311.173 186.87L310.642 187.177C310.631 187.183 310.617 187.183 310.606 187.177L310.36 187.034C310.336 187.019 310.336 186.985 310.36 186.972L310.891 186.665C310.901 186.659 310.915 186.659 310.927 186.665Z" fill="#444444"/>
<path d="M309.827 187.645L309.296 187.952C309.286 187.959 309.271 187.959 309.261 187.952L309.014 187.809C308.99 187.795 308.99 187.76 309.014 187.747L309.545 187.441C309.556 187.434 309.57 187.434 309.581 187.441L309.827 187.583C309.851 187.596 309.851 187.631 309.827 187.645Z" fill="#444444"/>
<path d="M309.373 187.18L309.903 186.875C309.914 186.868 309.928 186.868 309.939 186.875L310.239 187.042L310.504 187.195C310.528 187.209 310.528 187.244 310.504 187.257L309.973 187.564C309.963 187.57 309.948 187.57 309.937 187.564L309.637 187.39L309.375 187.245C309.348 187.229 309.348 187.194 309.373 187.18Z" fill="#444444"/>
<path d="M311.283 186.092L311.847 186.418C311.871 186.433 311.871 186.467 311.847 186.48L311.316 186.787C311.305 186.794 311.291 186.794 311.28 186.787L310.716 186.461C310.692 186.446 310.692 186.412 310.716 186.398L311.247 186.092C311.258 186.085 311.272 186.085 311.283 186.092Z" fill="#444444"/>
<path d="M312.137 185.593L312.697 185.917C312.722 185.931 312.722 185.968 312.697 185.983L311.993 186.388C311.981 186.395 311.966 186.395 311.954 186.388L311.394 186.065C311.369 186.05 311.369 186.013 311.394 185.999L312.099 185.593C312.111 185.585 312.125 185.585 312.137 185.593Z" fill="#444444"/>
<path d="M309.976 186.74L308.592 187.538C308.581 187.545 308.567 187.545 308.556 187.538L307.992 187.212C307.968 187.197 307.968 187.163 307.992 187.15L309.376 186.352C309.386 186.345 309.401 186.345 309.411 186.352L309.976 186.678C310 186.693 310 186.727 309.976 186.74Z" fill="#444444"/>
<path d="M307.343 185.818L306.477 186.318C306.466 186.324 306.452 186.324 306.441 186.318L305.877 185.991C305.853 185.977 305.853 185.943 305.877 185.929L306.743 185.43C306.753 185.423 306.768 185.423 306.779 185.43L307.343 185.756C307.367 185.769 307.367 185.804 307.343 185.818Z" fill="#444444"/>
<path d="M314.476 180.4L315.004 180.096C315.016 180.089 315.029 180.089 315.041 180.096L315.386 180.291C315.411 180.306 315.411 180.342 315.386 180.356L314.857 180.66C314.845 180.667 314.832 180.667 314.82 180.66L314.476 180.464C314.451 180.45 314.451 180.414 314.476 180.4Z" fill="#444444"/>
<path d="M305.734 185.461L306.082 185.659C306.106 185.672 306.106 185.708 306.082 185.721L305.762 185.906C305.751 185.913 305.736 185.913 305.726 185.906L305.377 185.708C305.354 185.695 305.354 185.659 305.377 185.646L305.698 185.461C305.71 185.454 305.723 185.454 305.734 185.461Z" fill="#444444"/>
<path d="M306.189 185.638L305.845 185.443C305.82 185.428 305.82 185.391 305.845 185.377L314.326 180.484C314.338 180.478 314.353 180.478 314.365 180.484L314.709 180.68C314.734 180.695 314.734 180.732 314.709 180.746L306.228 185.638C306.216 185.645 306.201 185.645 306.189 185.638Z" fill="#444444"/>
<path d="M319.618 187.143L319.453 187.056C319.364 187.008 319.257 187.011 319.169 187.061L317.277 188.151C317.211 188.189 317.212 188.286 317.28 188.322L317.432 188.402L319.618 187.143Z" fill="#9BA2BD"/>
<path d="M303.858 187.449C303.858 187.511 303.791 187.55 303.738 187.519L303.314 187.275C303.285 187.258 303.266 187.226 303.266 187.193C303.266 187.131 303.333 187.093 303.387 187.123L303.807 187.361C303.838 187.379 303.858 187.414 303.858 187.449Z" fill="#DDDFE6"/>
<path d="M304.825 188.01C304.825 188.072 304.758 188.11 304.705 188.08L304.281 187.835C304.252 187.818 304.233 187.787 304.233 187.754C304.233 187.691 304.299 187.653 304.354 187.683L304.774 187.921C304.805 187.94 304.825 187.973 304.825 188.01Z" fill="#DDDFE6"/>
<path d="M314.341 177.719L314.355 170.267L314.236 170.204C314.141 170.148 314.023 170.148 313.928 170.203L304.322 175.7C304.123 175.814 304 176.024 304 176.247V183.278C304 183.394 304.062 183.502 304.164 183.56L304.367 183.667L314.008 178.206C314.214 178.088 314.341 177.955 314.341 177.719Z" fill="#585971"/>
<path d="M314.558 177.662V170.522C314.558 170.317 314.337 170.19 314.159 170.292L304.551 175.851C304.356 175.964 304.236 176.171 304.236 176.396V183.401C304.236 183.665 304.522 183.831 304.751 183.698L314.232 178.225C314.434 178.108 314.558 177.894 314.558 177.662Z" fill="white"/>
<path d="M313.404 171.828V171.869C313.404 171.929 313.373 171.983 313.322 172.012L305.96 176.268C305.85 176.332 305.712 176.253 305.712 176.126V176.085C305.712 176.025 305.744 175.971 305.794 175.942L313.157 171.685C313.267 171.622 313.404 171.701 313.404 171.828Z" fill="#DDDFE6"/>
<path d="M312.088 173.638V173.663C312.088 173.699 312.069 173.73 312.039 173.749L307.629 176.299C307.563 176.338 307.48 176.29 307.48 176.213V176.188C307.48 176.153 307.499 176.121 307.529 176.102L311.94 173.552C312.006 173.515 312.088 173.562 312.088 173.638Z" fill="#DDDFE6"/>
<path d="M310.019 176.594V176.619C310.019 176.655 310.001 176.686 309.97 176.705L305.56 179.255C305.494 179.294 305.412 179.246 305.412 179.169V179.144C305.412 179.109 305.43 179.077 305.461 179.058L309.871 176.508C309.936 176.471 310.019 176.519 310.019 176.594Z" fill="#DDDFE6"/>
<path d="M312.107 174.82V174.845C312.107 174.881 312.088 174.913 312.058 174.931L307.647 177.482C307.581 177.52 307.499 177.473 307.499 177.396V177.371C307.499 177.335 307.518 177.303 307.548 177.285L311.958 174.734C312.024 174.697 312.107 174.745 312.107 174.82Z" fill="#DDDFE6"/>
<path d="M307.32 176.388V176.413C307.32 176.449 307.302 176.48 307.271 176.499L305.56 177.482C305.494 177.52 305.412 177.473 305.412 177.396V177.371C305.412 177.335 305.43 177.304 305.461 177.285L307.172 176.302C307.237 176.265 307.32 176.312 307.32 176.388Z" fill="#DDDFE6"/>
<path d="M309.916 175.497V175.522C309.916 175.558 309.897 175.589 309.867 175.608L308.156 176.591C308.09 176.629 308.008 176.582 308.008 176.505V176.48C308.008 176.444 308.026 176.413 308.057 176.394L309.768 175.411C309.833 175.373 309.916 175.42 309.916 175.497Z" fill="#DDDFE6"/>
<path d="M307.32 177.533V177.558C307.32 177.594 307.302 177.626 307.271 177.644L305.56 178.627C305.494 178.666 305.412 178.618 305.412 178.541V178.516C305.412 178.481 305.43 178.449 305.461 178.43L307.172 177.447C307.237 177.409 307.32 177.456 307.32 177.533Z" fill="#DDDFE6"/>
<path d="M312.106 175.393V175.418C312.106 175.453 312.088 175.485 312.057 175.504L310.346 176.487C310.28 176.525 310.198 176.478 310.198 176.401V176.376C310.198 176.34 310.217 176.308 310.247 176.29L311.958 175.307C312.024 175.27 312.106 175.317 312.106 175.393Z" fill="#DDDFE6"/>
<path d="M307.818 176.698V176.723C307.818 176.759 307.8 176.791 307.769 176.809L305.56 178.083C305.494 178.121 305.412 178.074 305.412 177.997V177.972C305.412 177.936 305.43 177.905 305.461 177.886L307.67 176.612C307.736 176.574 307.818 176.621 307.818 176.698Z" fill="#DDDFE6"/>
<path d="M312.106 174.221V174.246C312.106 174.281 312.088 174.313 312.039 174.35L310.328 175.333C310.28 175.353 310.198 175.305 310.198 175.229V175.204C310.198 175.168 310.217 175.136 310.247 175.118L311.958 174.135C312.024 174.096 312.106 174.144 312.106 174.221Z" fill="#DDDFE6"/>
<path d="M309.916 179.606V179.631C309.916 179.667 309.897 179.699 309.867 179.717L308.156 180.7C308.09 180.739 308.008 180.691 308.008 180.615V180.589C308.008 180.554 308.026 180.522 308.057 180.504L309.768 179.52C309.833 179.482 309.916 179.53 309.916 179.606Z" fill="#DDDFE6"/>
<path d="M307.818 180.808V180.834C307.818 180.869 307.8 180.901 307.769 180.919L305.56 182.193C305.494 182.232 305.412 182.184 305.412 182.107V182.082C305.412 182.047 305.43 182.015 305.461 181.996L307.67 180.723C307.736 180.684 307.818 180.732 307.818 180.808Z" fill="#DDDFE6"/>
<path d="M312.106 178.33V178.355C312.106 178.391 312.088 178.423 312.039 178.46L310.328 179.443C310.28 179.463 310.198 179.415 310.198 179.338V179.313C310.198 179.278 310.217 179.246 310.247 179.227L311.958 178.244C312.024 178.207 312.106 178.255 312.106 178.33Z" fill="#DDDFE6"/>
<path d="M312.088 175.975V176.001C312.088 176.036 312.069 176.068 312.039 176.086L307.629 178.637C307.563 178.675 307.48 178.628 307.48 178.551V178.526C307.48 178.49 307.499 178.459 307.529 178.44L311.94 175.89C312.006 175.851 312.088 175.899 312.088 175.975Z" fill="#DDDFE6"/>
<path d="M310.019 178.931V178.957C310.019 178.992 310.001 179.024 309.97 179.042L305.56 181.593C305.494 181.631 305.412 181.584 305.412 181.507V181.482C305.412 181.446 305.43 181.415 305.461 181.396L309.871 178.846C309.936 178.807 310.019 178.855 310.019 178.931Z" fill="#DDDFE6"/>
<path d="M312.107 177.156V177.181C312.107 177.217 312.088 177.249 312.058 177.267L307.647 179.818C307.581 179.856 307.499 179.809 307.499 179.732V179.707C307.499 179.671 307.518 179.639 307.548 179.621L311.958 177.07C312.024 177.033 312.107 177.081 312.107 177.156Z" fill="#DDDFE6"/>
<path d="M307.32 178.724V178.749C307.32 178.784 307.302 178.816 307.271 178.835L305.56 179.818C305.494 179.856 305.412 179.809 305.412 179.732V179.707C305.412 179.671 305.43 179.64 305.461 179.621L307.172 178.638C307.237 178.601 307.32 178.648 307.32 178.724Z" fill="#DDDFE6"/>
<path d="M309.916 177.833V177.858C309.916 177.894 309.897 177.925 309.867 177.944L308.156 178.927C308.09 178.965 308.008 178.918 308.008 178.841V178.816C308.008 178.78 308.026 178.749 308.057 178.73L309.768 177.747C309.833 177.709 309.916 177.756 309.916 177.833Z" fill="#DDDFE6"/>
<path d="M307.32 179.87V179.895C307.32 179.931 307.302 179.962 307.271 179.981L305.56 180.964C305.494 181.002 305.412 180.955 305.412 180.878V180.853C305.412 180.817 305.43 180.786 305.461 180.767L307.172 179.784C307.237 179.746 307.32 179.793 307.32 179.87Z" fill="#DDDFE6"/>
<path d="M312.106 177.73V177.755C312.106 177.791 312.088 177.823 312.057 177.841L310.346 178.825C310.28 178.863 310.198 178.815 310.198 178.739V178.714C310.198 178.678 310.217 178.646 310.247 178.628L311.958 177.644C312.024 177.606 312.106 177.654 312.106 177.73Z" fill="#DDDFE6"/>
<path d="M307.818 179.034V179.059C307.818 179.095 307.8 179.127 307.769 179.145L305.56 180.419C305.494 180.457 305.412 180.41 305.412 180.333V180.308C305.412 180.272 305.43 180.241 305.461 180.222L307.67 178.948C307.736 178.91 307.818 178.957 307.818 179.034Z" fill="#DDDFE6"/>
<path d="M312.106 176.556V176.582C312.106 176.617 312.088 176.649 312.039 176.686L310.328 177.669C310.28 177.689 310.198 177.641 310.198 177.565V177.54C310.198 177.504 310.217 177.472 310.247 177.454L311.958 176.471C312.024 176.432 312.106 176.48 312.106 176.556Z" fill="#DDDFE6"/>
<path d="M312.567 178.177L313.404 177.698V172.733L312.567 173.213V178.177Z" fill="#DDDFE6"/>
<path opacity="0.54" d="M304.332 174.437L304.634 174.263L313.676 179.329L313.374 179.504L304.332 174.437Z" fill="white"/>
<path opacity="0.54" d="M315.321 178.379L314.276 178.983L305.233 173.917L306.459 173.207L315.481 178.262C315.432 178.307 315.379 178.346 315.321 178.379Z" fill="white"/>
<path opacity="0.54" d="M303.734 174.783L312.774 179.85L312.432 180.047L303.392 174.981L303.734 174.783Z" fill="white"/>
<path d="M321.207 181.372C333.099 167.28 327.048 165.076 327.048 165.076C321.961 160.243 315.243 174.169 315.243 174.169L312.185 179.312L304.041 177.818L302.722 180.976C302.722 180.976 311.07 188.313 314.794 186.212C318.551 184.092 321.777 180.769 321.207 181.372Z" fill="#D35050"/>
<path d="M322.045 196.391C324.317 197.156 326.753 197.462 328.367 197.537C329.264 197.579 330.564 197.583 331.552 197.489C339.032 196.773 341.238 194.89 340.897 190.204C340.538 185.26 341.615 174.226 341.615 174.226C344.42 154.525 333.67 159.265 333.67 159.265C333.638 159.187 333.037 159.537 332.346 159.973C331.103 160.756 329.704 161.253 328.247 161.435C326.344 161.671 323.57 162.619 321.246 165.253C311.07 176.779 320.459 179.43 320.375 181.09C320.289 182.784 320.42 183.756 320.465 185.926C320.473 186.339 320.559 187.41 320.265 190.267C320.265 190.267 319.9 193.341 320.258 194.812C320.437 195.548 321.323 196.148 322.045 196.391Z" fill="#D35050"/>
<path d="M323.716 148.921C323.494 149.003 322.165 160.685 327.66 159.373C327.66 159.373 327.647 160.748 327.181 161.622C327.181 161.622 331.08 163.021 333.432 161.091C333.846 160.75 334.005 160.187 333.834 159.679C333.67 159.19 333.429 158.487 333.136 157.672C332.363 155.51 334.279 145.029 323.716 148.921Z" fill="#FBAA78"/>
<path d="M326.922 161.686L327.46 160.879C327.46 160.879 331.907 162.09 333.648 159.264C333.648 159.264 335.046 161.181 331.55 161.969C328.167 162.653 326.922 161.686 326.922 161.686Z" fill="white"/>
<path d="M321.255 181.314C321.287 181.287 321.273 181.302 321.206 181.373C321.222 181.354 321.238 181.334 321.255 181.314C321.183 181.38 320.859 181.688 320.351 182.14C320.381 184.006 320.495 186.292 320.475 187.224C325.115 183.947 328.124 178.09 327.644 171.797C326.643 174.119 324.712 177.211 321.255 181.314Z" fill="#A82D2D"/>
<path d="M338.711 159.365C338.713 159.365 338.713 159.367 338.715 159.367C338.713 159.367 338.711 159.367 338.711 159.365Z" fill="#333333"/>
<path d="M344.59 178.285L344.378 173.43C344.273 165.119 341.407 161.428 339.488 159.907C341.445 161.586 342.855 165.517 341.615 174.224C341.615 174.224 340.615 181.065 340.696 186.027L343.806 181.189C344.36 180.324 344.635 179.311 344.59 178.285Z" fill="#D35050"/>
<path d="M341.978 170.641C341.904 171.735 341.778 172.926 341.594 174.225C341.594 174.225 340.918 178.845 340.722 183.244C342.833 179.289 341.978 170.641 341.978 170.641Z" fill="#A82D2D"/>
<path d="M340.65 193.166C339.993 195.261 338.125 196.45 334.414 197.112C334.124 196.409 333.642 194.125 333.642 194.125C333.642 194.125 333.26 196.431 333.409 197.272C332.83 197.354 332.213 197.427 331.554 197.49C330.564 197.585 329.264 197.58 328.369 197.538C326.754 197.462 324.32 197.157 322.046 196.392C321.527 196.217 320.922 195.857 320.556 195.393C320.556 196.258 320.556 198.876 320.556 198.876C320.556 198.876 338.278 202.177 340.65 193.166Z" fill="#191919"/>
<path d="M311.409 216.044L311.326 210.89L310.701 210.724C310.701 210.724 310.58 210.72 310.365 210.697C310.327 213.422 310.289 215.848 310.256 217.741C310.973 218.004 311.749 218.285 312.577 218.593V219.405C312.577 219.405 318.309 222.69 320.959 218.682V214.798C320.959 215.414 320.953 215.772 320.943 215.825C317.007 219.9 311.409 216.044 311.409 216.044Z" fill="#191919"/>
<path d="M320.955 213.455C320.957 213.986 320.96 214.438 320.96 214.8V213.456L320.955 213.455Z" fill="#191919"/>
<path d="M310.152 221.293C306.106 223.6 300.145 220.834 300.145 220.834V216.018L299.995 215.979C299.995 215.979 299.03 215.948 297.721 215.544C296.198 215.074 294.561 215.951 294.184 217.497C294.176 217.532 294.11 218.54 294.103 218.574C293.581 221.102 296.695 221.919 301.872 223.848V224.66C301.872 224.66 307.604 227.945 310.254 223.937V218.709L310.23 218.702C310.197 220.237 310.172 221.175 310.152 221.293Z" fill="#191919"/>
<path d="M301.871 223.85C297.303 222.146 294.341 221.31 294.067 219.4C293.759 221.765 296.841 222.589 301.871 224.464V223.85Z" fill="#606060"/>
<path d="M301.871 224.661V225.276C301.871 225.276 307.602 228.561 310.253 224.553V223.938C307.602 227.947 301.871 224.661 301.871 224.661Z" fill="#606060"/>
<path d="M312.573 219.389V220.003C312.573 220.003 318.305 223.289 320.955 219.281V218.666C318.306 222.674 312.573 219.389 312.573 219.389Z" fill="#606060"/>
<path d="M310.247 218.336C310.965 218.6 311.742 218.882 312.574 219.191V218.577C311.748 218.269 310.973 217.989 310.259 217.726C310.254 217.936 310.25 218.139 310.247 218.336Z" fill="#606060"/>
<path d="M306.936 197.861H306.777V221.144H306.936V197.861Z" fill="white"/>
<path d="M317.892 217.094L317.053 199.837L317.212 199.833L318.05 217.091L317.892 217.094Z" fill="white"/>
<path d="M303.84 178.298L303.097 176.954C302.955 176.697 302.579 176.69 302.437 176.948C302.292 177.212 302.445 177.536 302.505 177.854C301.929 177.877 301.918 177.675 301.918 176.799C301.918 176.501 300.041 177.125 299.844 177.348C299.377 177.877 299.155 179.216 300.625 180.048C301.86 180.747 302.289 180.475 302.289 180.475L302.856 180.71L303.84 178.298Z" fill="#FBAA78"/>
<path d="M301.918 176.798C301.918 176.501 300.175 176.916 299.844 177.348C299.415 177.908 299.156 179.215 300.626 180.047" fill="#FBAA78"/>
<path d="M325.017 143.251C322.8 142.773 318.516 147.031 325.075 149.51C325.075 149.51 324.721 154.125 325.999 154.351C326.391 154.421 326.353 149.815 328.4 155.52C330.448 161.224 332.871 157.813 333.277 157.142C333.395 156.946 336.568 154.847 335.284 152.84C336.211 152.84 338.532 149.654 335.483 148.266C336.558 147.402 336.776 144.466 333.755 144.725C333.755 144.725 332.61 141.472 329.693 143.251C329.692 143.251 327.583 140.421 325.017 143.251Z" fill="#120621"/>
<path d="M357.259 196.491C357.181 196.157 353.444 183.029 353.444 183.029C353.444 183.029 350.107 175.18 340.907 178.225C331.706 181.27 329.513 189.689 329.513 189.689C329.513 189.689 324.34 202.771 315.843 197.443C307.346 192.114 309.014 204.006 309.014 204.006L322.744 211.998C322.744 211.998 330.753 215.899 338.952 212.568C347.151 209.238 354.73 204.054 354.73 204.054C354.73 204.054 358.355 201.2 357.259 196.491Z" fill="#FF9E26"/>
<path d="M315.211 209.706L317.684 211.145L312.863 226.707C312.635 227.442 311.855 227.853 311.119 227.626C310.382 227.398 309.97 226.62 310.198 225.885L315.211 209.706Z" fill="#585971"/>
<path d="M337.054 215.311L340.752 240.702C340.863 241.462 340.334 242.169 339.572 242.278C338.81 242.389 338.102 241.862 337.992 241.101L334.315 215.856C335.21 215.747 336.127 215.57 337.054 215.311Z" fill="#585971"/>
<path d="M353.713 206.82L361.085 227.703C361.341 228.427 360.959 229.222 360.233 229.478C359.508 229.733 358.71 229.352 358.455 228.628L351.292 208.336C352.299 207.726 353.124 207.201 353.713 206.82Z" fill="#585971"/>
<path d="M338.953 212.569C347.152 209.239 354.732 204.054 354.732 204.054C354.732 204.054 356.95 202.306 357.39 199.289C357.994 203.576 354.732 206.146 354.732 206.146C354.732 206.146 347.152 211.331 338.953 214.661C330.754 217.991 322.745 214.09 322.745 214.09L309.253 206.236C309.253 206.236 309.202 205.889 309.016 204.006L322.745 211.997C322.744 211.998 330.754 215.899 338.953 212.569Z" fill="#585971"/>
<path d="M285.651 158.595L302.439 148.833V172.361" stroke="#4C4C4C" stroke-width="6" stroke-miterlimit="10"/>
<path d="M280.991 199.764C283.477 194.432 272.405 184.037 256.263 176.546C240.12 169.055 225.019 167.306 222.534 172.638C220.049 177.97 231.121 188.365 247.263 195.856C263.406 203.347 278.506 205.096 280.991 199.764Z" fill="#EBECED"/>
<path d="M229.686 155.494L272.107 180.005C276.082 182.323 281.081 179.462 281.081 174.866V47.8863C281.081 42.9954 278.478 38.4719 274.247 36.0047L232.665 11.9837C228.393 9.49264 223.024 12.5678 223.024 17.5049V143.911C223.024 148.679 225.56 153.089 229.686 155.494Z" fill="#333333"/>
<path d="M281.079 174.829V47.8496C281.079 42.9587 278.477 38.4352 274.245 35.968L232.261 11.7593C230.953 10.9968 229.044 10.7735 227.054 11.5267C232.149 8.92867 237.008 8.40932 241.263 10.8898L279.813 33.1175C284.046 35.5847 286.647 40.1082 286.647 44.9991V173.303C286.647 174.406 286.046 175.422 285.078 175.956L278.387 179.806C279.973 178.77 281.079 176.991 281.079 174.829Z" fill="#585971"/>
<path d="M234.293 17.5801L240.789 21.3226V23.8374C240.789 24.8219 241.316 25.7324 242.17 26.224L260.606 36.8344C261.763 37.5004 263.208 36.6679 263.211 35.3358L263.212 34.239L271.14 38.8061C274.79 40.9337 277.033 44.8348 277.033 49.0517V171.058C277.033 175.02 274.569 176.71 271.14 174.712L232.716 152.454C229.158 150.381 226.972 146.579 226.972 142.468V20.3209C226.971 16.8017 229.961 15.0216 234.293 17.5801Z" fill="#FF9E26"/>
<path opacity="0.54" d="M276.909 74.4814L276.96 76.4597L226.936 107.717L226.887 105.735L276.909 74.4814Z" fill="white"/>
<path opacity="0.54" d="M227.205 118.506L227.034 111.649L277.062 80.3926L277.27 88.4392L227.364 119.624C227.267 119.263 227.213 118.888 227.205 118.506Z" fill="white"/>
<path opacity="0.54" d="M276.807 70.5482L226.789 101.803L226.733 99.5592L276.75 68.3096L276.807 70.5482Z" fill="white"/>
<path d="M293.236 116.859V46.1577C293.236 44.1358 295.43 42.8711 297.185 43.882L392.325 98.9346C394.256 100.046 395.446 102.101 395.446 104.325V173.687C395.446 176.299 392.613 177.933 390.344 176.63L296.466 122.432C294.467 121.287 293.236 119.16 293.236 116.859Z" fill="#EBEDF6"/>
<path d="M294.825 43.7458C294.833 43.7431 294.84 43.739 294.848 43.7363L294.825 43.7458Z" fill="#444444"/>
<path d="M393.651 98.2408L298.368 43.1076C297.822 42.7918 297.16 42.7508 296.58 42.9979L294.853 43.7327C295.568 43.4327 296.418 43.4393 297.185 43.8807L392.326 98.9333C394.257 100.045 395.446 102.1 395.446 104.324V173.685C395.446 174.979 394.751 176.034 393.773 176.609L395.65 175.584C396.341 175.208 396.772 174.484 396.772 173.697V103.631C396.772 101.407 395.582 99.3522 393.651 98.2408Z" fill="#444444"/>
<path d="M368.369 112.561V112.603C368.369 115.508 369.922 118.191 372.443 119.644L377.348 122.469C382.811 125.616 389.633 121.639 389.568 115.345C389.539 112.489 388.009 109.858 385.541 108.415L380.635 105.546C375.204 102.372 368.369 106.279 368.369 112.561Z" fill="#FF9E26"/>
<path d="M372.443 119.646L375.403 121.35L377.348 122.471C379.772 123.866 382.462 123.86 384.7 122.873C384.113 119.487 382.545 116.407 378.939 115.591C378.939 115.591 376.674 117.468 375.869 115.102C375.841 115.022 373.113 114.839 371.565 119.06C371.843 119.273 372.135 119.469 372.443 119.646Z" fill="#D35050"/>
<path d="M378.866 114.043C378.846 113.812 379.17 114.04 379.414 113.706C379.359 113.787 379.178 114.072 379.192 114.389C379.2 114.576 379.066 114.621 378.937 114.622C378.908 114.42 378.879 114.195 378.866 114.043Z" fill="#120621"/>
<path d="M374.654 111.63C374.654 111.63 374.385 116.279 375.832 115.882C375.832 115.882 376.115 116.051 375.973 116.534C375.832 117.015 378.27 117.131 378.866 115.772C378.866 115.772 378.895 114.384 378.867 114.044C378.839 113.704 379.548 114.356 379.662 112.77C379.66 112.77 378.363 108.471 374.654 111.63Z" fill="#FBAA78"/>
<path d="M379.046 109.958C379.474 110.056 379.833 110.359 379.978 110.772C380.071 111.035 380.084 111.351 379.887 111.695C379.49 112.387 379.66 112.77 379.66 112.77C379.66 112.77 379.333 112.308 379.019 112.682C378.968 112.743 378.929 112.814 378.906 112.891C378.8 113.225 378.423 113.602 378.157 113.336C378.076 113.255 378.498 111.61 377.789 111.581C377.081 111.553 374.415 112.685 374.216 110.76C374.017 108.836 375.266 108.324 375.493 109.147L379.046 109.958Z" fill="#120621"/>
<path d="M378.869 115.58C378.866 115.698 378.865 115.773 378.865 115.773C378.269 117.132 375.83 117.015 375.972 116.534C376.114 116.053 375.83 115.883 375.83 115.883C375.641 115.934 375.481 115.899 375.346 115.799C374.987 116.436 374.83 117.309 376.479 117.509C379.249 117.8 379.414 115.716 379.414 115.716L378.937 115.592L378.869 115.58Z" fill="white"/>
<path d="M297.365 111.487V52.4214C297.365 50.7312 299.198 49.6754 300.664 50.5198L303.268 52.0567C304.881 52.9857 305.874 54.7024 305.874 56.5604V114.507C305.874 116.689 303.507 118.054 301.612 116.966L300.063 116.146C298.394 115.185 297.365 113.409 297.365 111.487Z" fill="#333333"/>
<path d="M309.149 59.268C312.484 61.0653 315.819 62.8625 319.154 64.6597C319.756 64.9848 320.295 64.0677 319.691 63.7426C316.357 61.9454 313.022 60.1481 309.687 58.3509C309.083 58.0258 308.545 58.9429 309.149 59.268Z" fill="#333333"/>
<path d="M308.269 88.363C310.509 89.5709 312.75 90.7787 314.992 91.9866C315.294 92.1491 315.563 91.6906 315.261 91.528C313.02 90.3202 310.78 89.1123 308.537 87.9044C308.235 87.7419 307.967 88.2005 308.269 88.363Z" fill="#333333"/>
<path d="M308.269 95.3972C310.509 96.605 312.75 97.8129 314.992 99.0208C315.294 99.1833 315.563 98.7247 315.261 98.5622C313.02 97.3543 310.78 96.1465 308.537 94.9386C308.235 94.7761 307.967 95.2346 308.269 95.3972Z" fill="#333333"/>
<path d="M308.269 103.4C310.509 104.608 312.75 105.816 314.992 107.024C315.294 107.186 315.563 106.728 315.261 106.565C313.02 105.357 310.78 104.149 308.537 102.942C308.235 102.779 307.967 103.238 308.269 103.4Z" fill="#333333"/>
<path d="M308.269 111.326C310.509 112.534 312.75 113.742 314.992 114.949C315.294 115.112 315.563 114.653 315.261 114.491C313.02 113.283 310.78 112.075 308.537 110.867C308.235 110.705 307.967 111.163 308.269 111.326Z" fill="#333333"/>
<path d="M308.269 119.254C310.509 120.462 312.75 121.67 314.992 122.878C315.294 123.04 315.563 122.582 315.261 122.419C313.02 121.211 310.78 120.003 308.537 118.796C308.235 118.632 307.967 119.09 308.269 119.254Z" fill="#333333"/>
<path d="M318.086 127.562C320.327 128.77 322.568 129.978 324.81 131.186C325.112 131.348 325.381 130.89 325.079 130.727C322.838 129.519 320.597 128.312 318.355 127.104C318.055 126.941 317.784 127.4 318.086 127.562Z" fill="#333333"/>
<path d="M330.93 135.243C333.171 136.451 335.412 137.659 337.654 138.867C337.956 139.029 338.225 138.571 337.923 138.408C335.682 137.2 333.441 135.992 331.199 134.784C330.897 134.622 330.628 135.079 330.93 135.243Z" fill="#333333"/>
<path d="M344.51 142.666C346.751 143.874 348.992 145.081 351.234 146.289C351.536 146.452 351.805 145.993 351.503 145.831C349.262 144.623 347.021 143.415 344.779 142.207C344.477 142.045 344.208 142.503 344.51 142.666Z" fill="#333333"/>
<path d="M369.975 124.36C373.31 126.157 376.645 127.955 379.98 129.752C380.282 129.914 380.55 129.456 380.248 129.293C376.914 127.496 373.579 125.699 370.244 123.902C369.943 123.739 369.673 124.198 369.975 124.36Z" fill="#333333"/>
<path d="M369.804 131.071C373.139 132.868 376.474 134.666 379.809 136.463C380.111 136.625 380.38 136.167 380.078 136.004C376.743 134.207 373.408 132.41 370.073 130.612C369.771 130.45 369.502 130.908 369.804 131.071Z" fill="#333333"/>
<path d="M369.975 137.782C373.31 139.579 376.645 141.376 379.98 143.174C380.282 143.336 380.55 142.878 380.248 142.715C376.914 140.918 373.579 139.121 370.244 137.323C369.943 137.161 369.673 137.619 369.975 137.782Z" fill="#333333"/>
<path d="M310.002 68.0505V66.774C310.002 65.648 311.223 64.9437 312.201 65.5066L364.002 96.1655C365.076 96.784 365.739 97.9284 365.739 99.1667V99.6979C365.739 101.152 364.163 102.062 362.899 101.337L311.801 71.1534C310.688 70.5138 310.002 69.3311 310.002 68.0505Z" fill="#A82D2D"/>
<path d="M368.369 145.288V155.516C368.369 156.127 368.695 156.69 369.224 156.995L384.1 165.568C384.642 165.879 385.318 165.49 385.318 164.866V154.125C385.318 153.592 385.034 153.1 384.573 152.835L369.93 144.389C369.236 143.989 368.369 144.488 368.369 145.288Z" fill="#333333"/>
<path d="M317.211 83.1475V84.0091L322.581 87.0538L322.58 86.2517L317.211 83.1475Z" fill="#5267D1"/>
<path d="M335.787 93.9658V94.8274L341.157 97.8722L341.156 97.07L335.787 93.9658Z" fill="#A82D2D"/>
<path d="M353.889 104.841V105.704L359.26 108.747L359.258 107.946L353.889 104.841Z" fill="#FF9E26"/>
<path d="M310.288 77.7842V82.9341L314.689 85.4595L314.688 80.3704L310.288 77.7842Z" fill="#5267D1"/>
<path d="M299.419 63.23V65.6377C299.419 66.0593 299.644 66.4478 300.011 66.6579L302.051 67.8288C302.837 68.2807 303.82 67.7138 303.82 66.8073L303.819 64.4272C303.819 64.011 303.598 63.6251 303.237 63.4123L301.198 62.2137C300.411 61.7525 299.419 62.3194 299.419 63.23Z" fill="#F2F2F2"/>
<path d="M299.419 73.0253V75.4331C299.419 75.8546 299.644 76.2432 300.011 76.4533L302.051 77.6241C302.837 78.0761 303.82 77.5092 303.82 76.6026L303.819 74.2226C303.819 73.8063 303.598 73.4204 303.237 73.2077L301.198 72.0091C300.411 71.5492 299.419 72.1148 299.419 73.0253Z" fill="#F2F2F2"/>
<path d="M299.419 83.312V85.7198C299.419 86.1413 299.644 86.5299 300.011 86.74L302.051 87.9108C302.837 88.3628 303.82 87.7959 303.82 86.8893L303.819 84.5093C303.819 84.093 303.598 83.7071 303.237 83.4944L301.198 82.2957C300.411 81.8345 299.419 82.4015 299.419 83.312Z" fill="#F2F2F2"/>
<path d="M328.864 88.6543V93.8029L333.265 96.3296L333.264 91.2405L328.864 88.6543Z" fill="#A82D2D"/>
<path d="M346.967 99.1182V104.268L351.368 106.793L351.367 101.704L346.967 99.1182Z" fill="#FF9E26"/>
<path d="M343.611 114.531V115.481C343.611 115.822 343.794 116.136 344.089 116.306L346.581 117.737C347.217 118.101 348.012 117.643 348.012 116.911V115.995C348.012 115.658 347.833 115.346 347.542 115.176L345.05 113.711C344.413 113.337 343.611 113.795 343.611 114.531Z" fill="#333333"/>
<path d="M315.553 122.737C315.982 121.639 316.553 120.596 317.247 119.642C317.839 118.828 318.591 117.948 319.644 117.78C320.648 117.62 321.649 118.141 322.371 118.798C323.188 119.54 323.721 120.532 324.274 121.471C324.818 122.397 325.41 123.286 326.19 124.033C326.922 124.737 327.777 125.321 328.709 125.726C330.617 126.556 332.808 126.608 334.726 125.777C336.516 125 337.649 123.456 338.821 121.973C339.927 120.574 341.227 119.149 343.124 118.989C345.252 118.811 347.207 120.021 348.397 121.717C348.992 122.565 349.429 123.514 349.739 124.499C350.095 125.631 350.283 126.806 350.519 127.968C350.928 129.996 351.566 132.121 353.225 133.495C353.966 134.11 354.856 134.502 355.826 134.557C356.959 134.619 358.059 134.225 359.058 133.729C359.579 133.47 360.082 133.177 360.58 132.88C360.874 132.704 360.607 132.244 360.311 132.421C358.464 133.525 356.189 134.746 354.108 133.481C352.275 132.368 351.537 130.204 351.114 128.224C350.859 127.033 350.679 125.824 350.34 124.653C350.053 123.656 349.646 122.68 349.09 121.801C347.975 120.035 346.221 118.703 344.102 118.473C343.125 118.367 342.137 118.541 341.261 118.991C340.47 119.396 339.801 120.011 339.213 120.672C338.011 122.021 337.067 123.674 335.552 124.715C333.789 125.926 331.481 126.152 329.476 125.459C328.521 125.13 327.634 124.6 326.873 123.938C326.048 123.218 325.418 122.357 324.862 121.42C323.813 119.658 322.643 117.521 320.372 117.246C319.334 117.121 318.404 117.579 317.682 118.297C316.896 119.078 316.269 120.058 315.753 121.031C315.484 121.537 315.248 122.062 315.04 122.596C314.914 122.916 315.429 123.053 315.553 122.737Z" fill="#A82D2D"/>
<path d="M316.362 110.955C318.915 110.035 319.934 107.361 320.939 105.085C321.481 103.86 322.095 102.644 323.094 101.723C323.96 100.925 325.121 100.381 326.321 100.579C327.51 100.776 328.536 101.584 329.19 102.572C329.939 103.705 330.218 105.084 330.3 106.42C330.392 107.937 330.282 109.469 330.154 110.98C330.021 112.53 329.844 114.078 329.722 115.629C329.497 118.485 329.472 121.411 330.241 124.194C330.919 126.651 332.252 128.889 334.305 130.439C336.259 131.916 338.713 132.526 341.113 131.934C343.624 131.313 345.746 129.614 347.518 127.802C348.54 126.756 349.496 125.642 350.396 124.49C351.253 123.392 352.062 122.255 352.973 121.2C354.663 119.242 356.929 117.462 359.654 117.516C360.268 117.528 360.864 117.653 361.433 117.881C361.751 118.008 361.889 117.495 361.575 117.368C359.119 116.385 356.359 117.413 354.422 119.01C352.252 120.795 350.782 123.264 348.987 125.389C347.258 127.434 345.327 129.466 342.909 130.693C341.769 131.272 340.513 131.638 339.227 131.641C338.026 131.643 336.846 131.32 335.788 130.757C333.572 129.578 331.976 127.506 331.119 125.179C330.131 122.499 330.018 119.594 330.18 116.77C330.361 113.63 330.886 110.506 330.866 107.355C330.851 104.804 330.244 101.953 327.851 100.577C326.807 99.9775 325.561 99.8347 324.427 100.267C323.303 100.696 322.393 101.545 321.712 102.519C320.167 104.728 319.772 107.647 317.723 109.521C317.288 109.92 316.784 110.243 316.227 110.444C315.901 110.557 316.039 111.071 316.362 110.955Z" fill="#FF9E26"/>
<path d="M70.551 98.146V169.047C70.551 171.361 73.0713 172.799 75.0698 171.626L186.12 106.411C188.32 105.118 189.671 102.761 189.671 100.214V29.6194C189.671 27.5816 187.46 26.309 185.692 27.3292L74.3639 91.553C72.0039 92.9141 70.551 95.4263 70.551 98.146Z" fill="#EBEDF6"/>
<path d="M70.5509 169.046V98.1456C70.5509 95.4259 72.0038 92.9138 74.3625 91.5526L185.692 27.3302C186.333 26.9601 187.031 26.8941 187.662 27.0526L186.051 26.5095C184.659 25.9901 183.108 26.1197 181.822 26.861L72.0183 90.1479C69.6596 91.509 68.2068 94.0212 68.2068 96.7408V168.224C68.2068 170.538 72.0991 171.664 72.0991 171.664C71.1999 171.167 70.5509 170.219 70.5509 169.046Z" fill="#444444"/>
<path d="M178.506 85.4459C175.443 87.1942 172.38 88.9412 169.316 90.6896C166.253 92.4379 163.19 94.185 160.126 95.9333C158.391 96.9231 156.658 97.9129 154.923 98.9027C154.461 99.1657 154.262 99.8331 154.559 100.29C154.859 100.755 155.455 100.937 155.949 100.654C159.013 98.9054 162.076 97.1583 165.139 95.41C168.202 93.6616 171.266 91.9146 174.329 90.1663C176.064 89.1765 177.798 88.1867 179.532 87.1968C179.995 86.9339 180.193 86.2665 179.897 85.8093C179.596 85.3441 179 85.1644 178.506 85.4459Z" fill="#585971"/>
<path d="M178.506 92.1975C175.443 93.9459 172.38 95.6929 169.316 97.4413C166.253 99.1896 163.19 100.937 160.126 102.685C158.391 103.675 156.658 104.665 154.923 105.654C154.461 105.917 154.262 106.585 154.559 107.042C154.859 107.507 155.455 107.688 155.949 107.405C159.013 105.657 162.076 103.91 165.139 102.162C168.202 100.413 171.266 98.6663 174.329 96.9179C176.064 95.9281 177.798 94.9383 179.532 93.9485C179.995 93.6855 180.193 93.0182 179.897 92.5609C179.596 92.0971 179 91.916 178.506 92.1975Z" fill="#585971"/>
<path d="M178.506 99.4358C175.443 101.184 172.38 102.931 169.316 104.68C166.253 106.428 163.19 108.175 160.126 109.923C158.391 110.913 156.658 111.903 154.923 112.893C154.461 113.156 154.262 113.823 154.559 114.28C154.859 114.745 155.455 114.926 155.949 114.644C159.013 112.895 162.076 111.148 165.139 109.4C168.202 107.652 171.266 105.905 174.329 104.156C176.064 103.166 177.798 102.177 179.532 101.187C179.995 100.924 180.193 100.256 179.897 99.7992C179.596 99.3354 179 99.1543 178.506 99.4358Z" fill="#585971"/>
<path d="M84.5947 95.9787C82.3538 97.1865 80.113 98.3944 77.8708 99.6022C77.5688 99.7648 77.8377 100.223 78.1397 100.061C80.3805 98.8529 82.6213 97.6451 84.8635 96.4372C85.1642 96.2747 84.8966 95.8161 84.5947 95.9787Z" fill="#333333"/>
<path d="M84.5947 103.324C82.3538 104.532 80.113 105.74 77.8708 106.948C77.5688 107.11 77.8377 107.569 78.1397 107.406C80.3805 106.199 82.6213 104.991 84.8635 103.783C85.1642 103.62 84.8966 103.162 84.5947 103.324Z" fill="#333333"/>
<path d="M84.5947 110.665C82.3538 111.873 80.113 113.081 77.8708 114.289C77.5688 114.451 77.8377 114.91 78.1397 114.747C80.3805 113.539 82.6213 112.332 84.8635 111.124C85.1642 110.961 84.8966 110.503 84.5947 110.665Z" fill="#333333"/>
<path d="M84.5947 118.33C82.3538 119.538 80.113 120.746 77.8708 121.954C77.5688 122.116 77.8377 122.575 78.1397 122.412C80.3805 121.205 82.6213 119.997 84.8635 118.789C85.1642 118.626 84.8966 118.168 84.5947 118.33Z" fill="#333333"/>
<path d="M84.5947 126.333C82.3538 127.541 80.113 128.749 77.8708 129.957C77.5688 130.119 77.8377 130.578 78.1397 130.415C80.3805 129.207 82.6213 128 84.8635 126.792C85.1642 126.629 84.8966 126.171 84.5947 126.333Z" fill="#333333"/>
<path d="M117.594 124.174V139.64C117.594 142.337 116.153 144.83 113.814 146.182L83.5033 163.692C81.0612 165.102 78.0059 163.345 78.0059 160.53L78.0072 145.351C78.0072 142.507 79.5249 139.877 81.9896 138.45L112.094 121.013C114.534 119.599 117.594 121.357 117.594 124.174Z" fill="#FF9E26"/>
<path d="M127.833 114.157C130.121 110.529 133.236 107.929 136.355 106.713L136.628 119.471H147.158C147.199 119.328 147.238 119.187 147.275 119.044C146.774 120.955 145.936 122.909 144.754 124.783C140.421 131.652 133.121 134.842 128.447 131.909C123.775 128.975 123.499 121.027 127.833 114.157Z" fill="#FF9E26"/>
<path d="M136.629 119.471L136.356 106.713C139.144 105.627 141.935 105.647 144.14 107.032C147.632 109.225 148.668 114.219 147.159 119.471H136.629Z" fill="#333333"/>
<path d="M136.629 119.471L124.914 126.069C124.347 122.537 125.306 118.164 127.834 114.157C130.123 110.529 133.237 107.929 136.356 106.713L136.629 119.471Z" fill="#A82D2D"/>
<path d="M90.631 122.879C90.4417 120.045 90.6085 117.193 91.1595 114.406C91.672 111.808 92.4587 109.19 93.6917 106.837C95.6398 103.123 99.2726 99.2956 103.889 100.317C108.008 101.229 110.869 104.864 114.906 106.019C119.762 107.408 124.347 104.213 126.743 100.182C128.065 97.9596 128.886 95.4765 129.574 92.9973C130.255 90.5459 130.826 88.0641 131.504 85.6114C132.804 80.9042 134.583 75.827 138.411 72.5484C140.189 71.0247 142.515 69.9503 144.903 70.319C147.083 70.6546 148.941 71.9814 150.76 73.1325C152.624 74.3112 154.596 75.4121 156.847 75.5389C159.183 75.6698 161.476 74.7619 163.341 73.4087C167.633 70.2952 169.398 65.2603 171.523 60.631C173.636 56.0243 176.596 51.9408 180.519 48.6979C181.462 47.9182 182.454 47.1993 183.482 46.5346C184.002 46.1976 183.518 45.3611 182.993 45.7007C178.799 48.4151 175.239 52.0677 172.662 56.3441C171.274 58.6488 170.254 61.1345 169.159 63.5846C168.1 65.9527 166.952 68.3698 165.244 70.3494C163.662 72.181 161.608 73.7298 159.232 74.3364C156.941 74.9205 154.775 74.3416 152.759 73.2118C150.843 72.1374 149.094 70.7617 147.046 69.9318C144.85 69.0424 142.528 69.1217 140.381 70.1194C135.849 72.2246 133.288 77.1723 131.713 81.6562C130.019 86.4797 129.287 91.5965 127.479 96.3804C126.56 98.8146 125.265 101.18 123.288 102.919C121.485 104.505 119.114 105.561 116.679 105.376C114.535 105.212 112.62 104.061 110.862 102.914C109.117 101.775 107.411 100.53 105.447 99.7832C103.43 99.0154 101.241 98.9903 99.2435 99.8335C97.2251 100.686 95.6041 102.248 94.3234 103.991C92.8984 105.931 91.9276 108.146 91.1912 110.427C90.3185 113.128 89.7993 115.945 89.6378 118.779C89.5596 120.146 89.5702 121.517 89.6616 122.884C89.704 123.496 90.6721 123.5 90.631 122.879Z" fill="#A82D2D"/>
<path d="M214.634 21.2726L221.13 25.0151V27.5299C221.13 28.5144 221.657 29.4249 222.511 29.9165L240.947 40.5269C242.104 41.1929 243.549 40.3604 243.552 39.0283L243.553 37.9314L251.481 42.4986C255.131 44.6262 257.374 48.5273 257.374 52.7442V174.751C257.374 178.713 254.91 180.403 251.481 178.405L213.057 156.147C209.499 154.073 207.313 150.271 207.313 146.16V24.0134C207.313 20.4955 210.302 18.7154 214.634 21.2726Z" fill="#EBEDF6"/>
<path d="M212.349 51.2338C212.365 59.6557 212.333 78.355 212.323 83.8934C212.321 84.8885 212.85 85.8083 213.711 86.3104L244.259 103.807C245.755 104.678 247.636 103.601 247.636 101.871V69.1547C247.636 67.9125 246.97 66.7641 245.888 66.1469L216.043 49.0929C214.397 48.152 212.347 49.34 212.349 51.2338Z" fill="white"/>
<path d="M211.519 96.9291C211.535 105.351 211.503 124.05 211.492 129.589C211.491 130.584 212.02 131.504 212.88 132.006L225.796 139.57C227.292 140.441 229.173 139.364 229.173 137.634V104.918C229.173 103.675 228.507 102.527 227.425 101.91L215.213 94.7882C213.566 93.8473 211.515 95.0354 211.519 96.9291Z" fill="#6F7184"/>
<path d="M231.578 107.601C231.594 116.023 231.562 134.722 231.552 140.261C231.55 141.256 232.079 142.175 232.939 142.678L245.855 150.242C247.351 151.113 249.232 150.036 249.232 148.306V115.589C249.232 114.347 248.566 113.199 247.484 112.582L235.272 105.46C233.625 104.519 231.574 105.707 231.578 107.601Z" fill="#5F98F4"/>
<path d="M224.376 114.526C222.154 110.864 218.313 109.129 215.795 110.65C213.279 112.171 213.039 116.372 215.26 120.032C217.483 123.694 221.323 125.43 223.841 123.908C226.359 122.387 226.598 118.188 224.376 114.526ZM222.676 121.986C220.974 123.014 218.316 121.74 216.738 119.142C215.161 116.542 215.262 113.602 216.963 112.574C218.665 111.546 221.323 112.82 222.901 115.418C224.478 118.016 224.376 120.958 222.676 121.986Z" fill="#A82D2D"/>
<path d="M219.809 112.558C220.94 113.05 222.07 114.05 222.899 115.418C223.788 116.883 224.144 118.456 223.98 119.734L225.794 120.802C226.121 118.945 225.661 116.644 224.375 114.526C223.172 112.544 221.493 111.126 219.808 110.483V112.558H219.809Z" fill="#FF9E26"/>
<path d="M211.808 32.3388C214.871 34.0871 217.934 35.8341 220.997 37.5825C224.061 39.3308 227.124 41.0779 230.187 42.8262C231.922 43.816 233.656 44.8058 235.391 45.7956C235.853 46.0586 236.523 45.9185 236.781 45.4322C237.037 44.9499 236.91 44.3261 236.417 44.0446C233.354 42.2963 230.291 40.5493 227.227 38.8009C224.164 37.0526 221.101 35.3055 218.037 33.5572C216.302 32.5674 214.569 31.5776 212.834 30.5878C212.372 30.3248 211.702 30.4649 211.443 30.9512C211.188 31.4335 211.315 32.0573 211.808 32.3388Z" fill="#585971"/>
<path d="M211.808 39.8886C214.871 41.6369 217.934 43.3839 220.997 45.1323C224.061 46.8806 227.124 48.6277 230.187 50.376C231.922 51.3658 233.656 52.3556 235.391 53.3454C235.853 53.6084 236.523 53.4683 236.781 52.982C237.037 52.4997 236.91 51.8759 236.417 51.5944C233.354 49.8461 230.291 48.0991 227.227 46.3507C224.164 44.6024 221.101 42.8553 218.037 41.107C216.302 40.1172 214.569 39.1274 212.834 38.1376C212.372 37.8746 211.702 38.0147 211.443 38.501C211.188 38.9833 211.315 39.6071 211.808 39.8886Z" fill="#585971"/>
<path d="M212.336 54.1876L212.28 54.2822L247.595 74.9342L247.651 74.8395L212.336 54.1876Z" fill="#A0A0A0"/>
<path d="M212.336 59.9444L212.28 60.0391L247.595 80.691L247.651 80.5964L212.336 59.9444Z" fill="#A0A0A0"/>
<path d="M212.335 66.1319L212.28 66.2266L247.594 86.8785L247.65 86.7839L212.335 66.1319Z" fill="#A0A0A0"/>
<path d="M212.335 72.1212L212.28 72.2158L247.594 92.8677L247.65 92.7731L212.335 72.1212Z" fill="#A0A0A0"/>
<path d="M212.334 78.0265L212.279 78.1211L247.594 98.773L247.649 98.6784L212.334 78.0265Z" fill="#A0A0A0"/>
<path d="M212.888 68.1091C213.46 67.3427 214.056 66.5352 214.868 66.0026C215.626 65.5058 216.615 65.2309 217.476 65.6313C219.263 66.4599 219.448 68.7937 219.669 70.4918C219.909 72.3379 220.104 74.2105 220.674 75.9906C221.24 77.7508 222.205 79.3644 223.661 80.5326C224.365 81.0982 225.233 81.7233 226.16 81.7999C227.071 81.8752 227.949 81.303 228.562 80.6806C229.764 79.4609 230.252 77.7429 230.636 76.1241C230.85 75.2254 231.052 74.3189 231.377 73.452C231.685 72.6287 232.138 71.7314 232.856 71.1882C233.191 70.9345 233.617 70.7455 234.041 70.8618C234.372 70.953 234.604 71.2147 234.776 71.4975C235.183 72.1675 235.35 72.9524 235.764 73.6211C236.237 74.3863 236.932 75.0682 237.751 75.458C238.662 75.8928 239.561 75.8082 240.461 75.3933C241.343 74.9862 242.142 74.455 243.066 74.1325C243.954 73.822 244.899 73.637 245.843 73.7308C246.296 73.7757 246.746 73.8973 247.159 74.0876C247.543 74.2647 247.881 73.6951 247.493 73.5167C245.701 72.6934 243.709 73.0806 241.976 73.8643C241.095 74.2621 240.247 74.9585 239.271 75.092C238.307 75.2241 237.404 74.5805 236.792 73.8986C236.208 73.2485 235.954 72.4635 235.609 71.6798C235.317 71.0125 234.861 70.3398 234.092 70.1971C233.17 70.0253 232.333 70.6411 231.794 71.3283C231.211 72.071 230.828 72.9366 230.546 73.8312C230.007 75.5373 229.826 77.3676 228.979 78.9679C228.587 79.7093 228.054 80.3886 227.324 80.8207C226.876 81.0863 226.38 81.2251 225.869 81.0784C225.402 80.9436 224.971 80.6647 224.573 80.3938C222.993 79.3142 221.93 77.6993 221.339 75.9007C220.746 74.0916 220.552 72.1873 220.306 70.3094C220.066 68.4831 219.82 66.337 218.128 65.2388C217.351 64.7353 216.394 64.6653 215.525 64.9534C214.599 65.2613 213.846 65.8956 213.218 66.6251C212.9 66.9951 212.608 67.3863 212.316 67.7761C212.062 68.1171 212.637 68.4474 212.888 68.1091Z" fill="#FF9E26"/>
<path d="M212.785 77.2611C215.066 74.9327 217.685 72.2447 221.143 72.0068C222.558 71.9091 224.058 72.1985 225.201 73.0759C226.503 74.0763 226.966 75.6661 227.182 77.2241C227.41 78.8668 227.439 80.5464 228.011 82.1216C228.565 83.6453 229.501 85.0461 230.778 86.0584C232.102 87.109 233.759 87.7208 235.456 87.7301C237.012 87.7393 238.453 87.1883 239.724 86.3201C240.892 85.5219 241.911 84.536 242.978 83.6149C243.998 82.7348 245.104 81.8692 246.408 81.4622C246.718 81.3657 247.037 81.2917 247.36 81.2521C247.778 81.2019 247.783 80.5398 247.36 80.5913C244.467 80.9428 242.505 83.2608 240.378 85.0038C239.259 85.921 238.01 86.7231 236.563 86.9808C234.874 87.2821 233.084 86.8381 231.667 85.8932C230.289 84.9761 229.255 83.566 228.68 82.0252C228.088 80.4394 228.056 78.7478 227.827 77.0893C227.609 75.5035 227.133 73.8913 225.894 72.7918C224.794 71.8179 223.332 71.3672 221.879 71.3263C218.399 71.2285 215.59 73.52 213.258 75.8392C212.941 76.1537 212.629 76.4722 212.317 76.7907C212.018 77.0986 212.486 77.5664 212.785 77.2611Z" fill="#A82D2D"/>
<path d="M232.822 120.767C232.822 123.528 232.822 126.288 232.822 129.049C232.822 129.484 233.5 129.485 233.5 129.049C233.5 126.288 233.5 123.528 233.5 120.767C233.5 120.332 232.822 120.331 232.822 120.767Z" fill="white"/>
<path d="M235.661 120.995C235.661 124.167 235.661 127.337 235.661 130.509C235.661 131.226 235.661 131.944 235.661 132.661C235.661 133.096 236.339 133.097 236.339 132.661C236.339 129.49 236.339 126.319 236.339 123.148C236.339 122.43 236.339 121.713 236.339 120.995C236.339 120.559 235.661 120.559 235.661 120.995Z" fill="white"/>
<path d="M238.345 125.395C238.345 127.555 238.345 129.713 238.345 131.872C238.345 132.307 239.024 132.308 239.024 131.872C239.024 129.713 239.024 127.555 239.024 125.395C239.024 124.959 238.345 124.959 238.345 125.395Z" fill="white"/>
<path d="M241.186 128.781C241.186 130.113 241.186 131.444 241.186 132.776C241.186 133.211 241.864 133.212 241.864 132.776C241.864 131.444 241.864 130.113 241.864 128.781C241.863 128.345 241.186 128.345 241.186 128.781Z" fill="white"/>
<path d="M243.905 127.766C243.905 130.414 243.905 133.061 243.905 135.71C243.905 136.349 243.905 136.989 243.905 137.627C243.905 138.062 244.583 138.063 244.583 137.627C244.583 134.979 244.583 132.332 244.583 129.684C244.583 129.044 244.583 128.404 244.583 127.766C244.582 127.331 243.905 127.33 243.905 127.766Z" fill="white"/>
<path d="M246.745 133.408C246.745 133.811 246.745 134.212 246.745 134.615C246.745 135.05 247.423 135.052 247.423 134.615V134.614C247.423 134.179 246.745 134.178 246.745 134.614C246.745 135.017 246.745 135.419 246.745 135.822C246.745 136.257 247.423 136.258 247.423 135.822C247.423 135.419 247.423 135.017 247.423 134.614C247.423 134.179 246.745 134.178 246.745 134.614V134.615C246.745 135.05 247.423 135.052 247.423 134.615C247.423 134.212 247.423 133.811 247.423 133.408C247.423 132.973 246.745 132.972 246.745 133.408Z" fill="white"/>
<path d="M229.385 155.218C231.036 154.267 231.015 151.148 229.339 148.251C227.663 145.355 224.966 143.777 223.315 144.728C221.665 145.679 221.685 148.798 223.361 151.695C225.037 154.592 227.734 156.169 229.385 155.218Z" fill="#FF9E26"/>
<path d="M226.212 147.303C226.212 149.084 226.212 150.867 226.212 152.65C226.212 152.836 226.502 152.836 226.502 152.65C226.502 150.867 226.502 149.086 226.502 147.303C226.502 147.117 226.212 147.117 226.212 147.303Z" fill="white"/>
<path d="M223.911 149.343C225.515 149.859 227.12 150.374 228.724 150.89C228.903 150.946 228.978 150.668 228.801 150.611C227.197 150.095 225.592 149.58 223.988 149.065C223.81 149.006 223.734 149.287 223.911 149.343Z" fill="white"/>
<path d="M213.378 145.031V146.157L214.158 146.61V145.495L213.378 145.031Z" fill="white"/>
<path d="M214.516 144.582V146.811L215.296 147.265V145.045L214.516 144.582Z" fill="white"/>
<path d="M215.627 144.121V147.455L216.407 147.909V144.585L215.627 144.121Z" fill="white"/>
<path d="M216.713 143.647V148.085L217.493 148.538V144.11L216.713 143.647Z" fill="white"/>
<path d="M217.816 143.172V148.713L218.596 149.166V143.636L217.816 143.172Z" fill="white"/>
<path d="M235.11 152.532V156.651C235.11 157.021 235.309 157.362 235.632 157.546L239.229 159.588C239.916 159.978 240.77 159.482 240.77 158.693V154.606C240.77 154.238 240.574 153.899 240.255 153.715L236.658 151.642C235.97 151.245 235.11 151.741 235.11 152.532Z" fill="white"/>
<path d="M215.789 52.7538C219.443 54.8352 223.097 56.9165 226.749 58.9979C230.387 61.07 234.024 63.1422 237.662 65.2143C239.72 66.3864 241.778 67.5586 243.836 68.7321C244.207 68.9436 244.541 68.3727 244.17 68.1612C240.516 66.0799 236.862 63.9985 233.21 61.9171C229.572 59.845 225.935 57.7729 222.297 55.7008C220.239 54.5286 218.181 53.3564 216.123 52.1829C215.752 51.9715 215.418 52.5424 215.789 52.7538Z" fill="#6F7184"/>
<path d="M215.789 84.9779C219.443 87.0593 223.097 89.1406 226.749 91.222C230.387 93.2941 234.024 95.3663 237.662 97.4384C239.72 98.6106 241.778 99.7827 243.836 100.956C244.207 101.168 244.541 100.597 244.17 100.385C240.516 98.304 236.862 96.2226 233.21 94.1412C229.572 92.0691 225.935 89.997 222.297 87.9249C220.239 86.7527 218.181 85.5805 216.123 84.407C215.752 84.1969 215.418 84.7678 215.789 84.9779Z" fill="#6F7184"/>
<path d="M196.846 85.2821L214.523 95.5026C215.115 95.8448 215.479 96.4765 215.479 97.1584L215.477 109.315C215.477 110.79 213.875 111.711 212.596 110.971L199.949 103.642C196.257 103.985 194.971 104.174 194.971 104.174L196.107 101.416L194.923 100.737C194.331 100.395 193.968 99.7644 193.968 99.0812V86.9379C193.967 85.4631 195.568 84.5433 196.846 85.2821Z" fill="#DDDFE6"/>
<path d="M215.477 109.316L215.479 97.1595C215.479 96.4763 215.115 95.846 214.523 95.5037L196.846 85.2832C196.409 85.0308 195.935 84.9713 195.499 85.0625C196.081 84.4956 197.006 84.3092 197.808 84.7717L215.484 94.9923C216.076 95.3345 216.44 95.9662 216.44 96.6481L216.439 108.805C216.439 110.018 214.934 111.241 213.688 111.228C214.638 111.161 215.477 110.384 215.477 109.316Z" fill="#333333"/>
<path d="M197.212 95.13V95.2767C197.212 95.4868 197.324 95.6798 197.506 95.7855L207.689 101.634C208.082 101.862 208.574 101.579 208.574 101.126V100.979C208.574 100.769 208.461 100.576 208.279 100.47L198.096 94.6212C197.704 94.3939 197.212 94.6767 197.212 95.13Z" fill="#333333"/>
<path d="M197.212 91.8085V91.9552C197.212 92.1653 197.324 92.3583 197.506 92.464L210.655 100.044C211.049 100.271 211.54 99.9887 211.54 99.5354V99.3887C211.54 99.1786 211.428 98.9856 211.246 98.8799L198.096 91.2998C197.704 91.0725 197.212 91.3566 197.212 91.8085Z" fill="#333333"/>
<path d="M317.778 133.232L300.101 143.453C299.509 143.795 299.145 144.427 299.145 145.108L299.146 157.265C299.146 158.74 300.749 159.661 302.028 158.921L314.675 151.592C318.367 151.935 319.653 152.124 319.653 152.124L318.517 149.366L319.701 148.687C320.293 148.345 320.656 147.714 320.656 147.031V134.888C320.658 133.414 319.057 132.493 317.778 133.232Z" fill="#DDDFE6"/>
<path d="M299.146 157.266L299.145 145.11C299.145 144.427 299.509 143.796 300.101 143.454L317.778 133.233C318.215 132.981 318.689 132.921 319.125 133.013C318.543 132.446 317.616 132.259 316.816 132.722L299.14 142.942C298.548 143.285 298.184 143.916 298.184 144.598L298.185 156.755C298.185 157.968 299.689 159.192 300.936 159.178C299.987 159.111 299.146 158.334 299.146 157.266Z" fill="#333333"/>
<path d="M317.412 143.08V143.227C317.412 143.437 317.3 143.63 317.118 143.736L306.935 149.585C306.542 149.812 306.05 149.529 306.05 149.076V148.929C306.05 148.719 306.163 148.526 306.344 148.42L316.527 142.571C316.921 142.344 317.412 142.627 317.412 143.08Z" fill="#333333"/>
<path d="M317.412 139.759V139.906C317.412 140.116 317.3 140.309 317.118 140.415L303.968 147.995C303.575 148.222 303.084 147.939 303.084 147.486V147.339C303.084 147.129 303.196 146.936 303.378 146.831L316.527 139.25C316.921 139.024 317.412 139.307 317.412 139.759Z" fill="#333333"/>
<path d="M211.796 166.005L211.79 226.1C211.79 227.345 212.455 228.495 213.536 229.117L283.738 269.554C284.447 269.963 285.33 269.447 285.322 268.63L284.689 207.299C284.677 206.199 284.089 205.185 283.137 204.629L214.466 164.476C213.284 163.786 211.796 164.637 211.796 166.005Z" fill="#EBEDF6"/>
<path d="M257.45 254.234C257.725 252.513 257.979 250.971 258.128 249.751C259.008 242.562 268.226 229.274 268.226 229.274C268.226 229.274 260.986 231.739 258.039 226.82C248.754 237.375 247.839 243.959 247.29 246.344C247.212 246.686 247.186 247.382 247.184 248.32L257.45 254.234Z" fill="#585971"/>
<path d="M268.758 260.747C268.716 258.025 268.875 255.813 269.701 254.933L270.014 261.471L278.73 266.492L278.314 244.568C278.314 244.568 278.086 233.224 267.112 228.886C267.112 228.886 258.243 242.734 256.775 249.826C256.542 250.951 256.333 252.18 256.152 253.486L268.758 260.747Z" fill="white"/>
<path d="M248.202 248.907C248.261 247.378 248.321 246.325 248.404 245.964C248.952 243.579 248.787 237.403 258.073 226.847C246.822 222.54 243.876 237.415 243.076 245.953L248.202 248.907Z" fill="white"/>
<path d="M252.902 226.082C251.975 227.34 251.164 228.68 250.49 230.088C249.813 231.501 249.097 233.058 249.029 234.645C249.011 235.072 249.675 235.07 249.694 234.645C249.728 233.836 249.976 233.062 250.258 232.309C250.52 231.612 250.816 230.928 251.143 230.259C251.801 228.91 252.585 227.624 253.476 226.415C253.729 226.072 253.152 225.741 252.902 226.082Z" fill="#444444"/>
<path d="M258.073 226.847L252.099 227.743V230.675L248.404 233.223C248.404 233.223 246.666 240.195 248.211 248.74C248.212 248.74 247.042 239.278 258.073 226.847Z" fill="#DDDFE6"/>
<path d="M257.386 216.181C257.231 215.957 257.275 208.601 257.275 208.601L255.607 207.299C255.598 207.241 255.565 207.2 255.507 207.221C255.507 207.221 254.602 207.359 253.708 208.38C253.442 208.635 253.202 208.91 253 209.193C252.348 210.105 251.875 211.03 251.603 212.112C251.319 213.24 251.216 214.41 251.244 215.571C251.273 216.816 251.457 218.053 251.716 219.27C251.985 220.526 252.339 221.762 252.7 222.995C252.71 223.025 252.718 223.056 252.727 223.086C252.719 223.339 252.702 223.591 252.674 223.839C252.487 225.539 251.754 226.991 254.442 227.615C255.035 227.752 256.12 227.784 256.721 227.69C257.432 227.581 258.058 226.817 258.393 226.552C259.806 225.445 257.542 216.407 257.386 216.181ZM252.062 219.761C251.781 218.559 251.567 217.338 251.495 216.103C251.429 214.963 251.483 213.81 251.708 212.69C251.867 211.9 252.167 211.198 252.543 210.509C252.111 211.8 251.857 213.592 252.018 216.08C252.15 218.092 252.663 220.216 252.73 222.268C252.49 221.437 252.259 220.603 252.062 219.761Z" fill="#120621"/>
<path d="M267.616 229.456C267.695 229.395 267.737 229.361 267.737 229.361C266.114 227.413 266.767 220.125 266.767 220.125C271.671 217.702 267.061 214.207 267.061 214.207C262.767 201.153 255.719 208.046 255.719 208.046C251.085 224.8 258.454 224.421 258.454 224.421C258.454 224.421 259.137 225.861 258.073 226.847C258.073 226.847 260.098 231.31 267.616 229.456Z" fill="#FCB697"/>
<path d="M267.112 228.886L269.025 233.121C269.025 233.121 265.042 235.806 265.042 236.117C265.042 236.428 264.524 241.281 264.524 241.281L256.365 252.064C256.365 252.064 256.365 245.775 267.112 228.886Z" fill="#DDDFE6"/>
<path d="M276.346 221.062C275.542 219.993 274.925 218.797 274.518 217.524C274.082 216.162 273.843 214.741 273.562 213.342C273.501 213.04 273.441 212.739 273.38 212.436C273.306 211.91 273.206 211.408 273.078 210.931C273.077 210.922 273.074 210.914 273.073 210.905C273.071 210.894 273.068 210.885 273.064 210.876C270.324 200.774 256.273 201.759 255.515 207.261C255.428 207.882 255.459 208.547 255.599 209.217C255.846 210.663 256.456 212.032 257.324 213.217C258.32 214.578 259.637 215.719 261.135 216.5C262.097 217.001 263.162 217.35 264.257 217.306C264.402 217.301 264.404 217.072 264.257 217.079C263.306 217.117 262.375 216.849 261.523 216.44C260.758 216.073 260.039 215.605 259.384 215.066C258.28 214.157 257.348 213.035 256.692 211.764C258.26 214.091 261.604 216.763 265.92 216.09C265.92 216.09 268.618 216.068 267.061 218.667C266.911 218.821 266.302 219.719 265.617 219.653C265.617 219.653 266.985 222.636 264.907 226.003C263.473 228.326 266.095 231.539 269.909 231.084C273.594 230.644 276.354 227.006 275.576 223.386C275.354 222.352 274.782 221.088 274.425 219.324C274.096 217.687 273.619 216.011 273.53 214.342C273.594 214.658 273.659 214.974 273.723 215.289C274.007 216.657 274.358 218.008 274.976 219.267C275.306 219.939 275.701 220.577 276.15 221.174C276.236 221.292 276.433 221.179 276.346 221.062Z" fill="#120621"/>
<path d="M265.701 238.681C263.396 238.91 261.91 242.93 262.38 247.659C262.405 247.908 262.436 248.152 262.469 248.394C262.472 248.44 262.482 248.48 262.497 248.524C262.684 249.081 263.159 249.442 263.661 249.706C264.211 249.996 264.822 250.146 265.445 250.108C265.804 250.086 265.739 249.532 265.381 249.554C264.881 249.586 264.395 249.453 263.951 249.229C263.55 249.027 263.152 248.773 263.003 248.331C263 248.321 262.993 248.29 262.993 248.29C262.993 248.29 262.954 247.871 262.927 247.605C262.498 243.293 263.774 239.635 265.775 239.437C267.777 239.239 269.748 242.574 270.176 246.886C270.41 249.237 270.137 251.393 269.516 252.9C269.515 252.9 269.515 252.9 269.513 252.9C269.471 252.879 269.418 252.87 269.374 252.852C269.267 252.804 269.172 252.738 269.082 252.665C268.895 252.517 268.724 252.347 268.564 252.171C268.231 251.805 267.94 251.399 267.703 250.964C267.504 250.6 266.895 250.839 267.096 251.209C267.445 251.85 267.875 252.429 268.402 252.935C268.729 253.249 269.58 253.907 269.96 253.367C269.961 253.367 269.961 253.367 269.962 253.367C269.964 253.364 269.964 253.362 269.965 253.359C269.978 253.341 269.99 253.319 270.002 253.298C270.026 253.255 270.038 253.211 270.04 253.171C270.685 251.531 270.965 249.277 270.723 246.832C270.254 242.102 268.005 238.452 265.701 238.681Z" fill="#D3D5DD"/>
<path d="M270.725 246.834C270.358 243.148 268.912 240.118 267.201 239.067C267.21 239.041 267.217 239.012 267.22 238.982C267.288 238.269 267.703 237.693 268.053 237.092C268.446 236.417 268.806 235.713 269.056 234.972C269.517 233.603 269.54 231.997 268.674 230.778C268.429 230.433 267.851 230.763 268.1 231.112C268.953 232.312 268.801 233.837 268.29 235.141C268.018 235.834 267.646 236.484 267.262 237.12C266.941 237.651 266.679 238.173 266.581 238.778C266.291 238.686 265.996 238.65 265.7 238.68C264.124 238.836 262.93 240.768 262.485 243.488L263.004 243.787C263.383 241.319 264.411 239.572 265.776 239.436C267.778 239.238 269.748 242.573 270.177 246.885C270.213 247.249 270.236 247.607 270.25 247.96L270.809 248.282C270.801 247.811 270.774 247.327 270.725 246.834Z" fill="#444444"/>
<path d="M283.834 271.057L283.836 271.058C283.843 271.061 283.85 271.063 283.857 271.066C283.849 271.063 283.842 271.059 283.834 271.057Z" fill="#585971"/>
<path d="M286.04 208.01C286.028 206.91 285.44 205.896 284.488 205.34L215.817 165.187C214.983 164.699 213.373 165.221 212.494 166.05C213.033 165.643 213.798 165.541 214.464 165.931L283.136 206.084C284.087 206.64 284.676 207.654 284.688 208.754L285.321 270.085C285.329 270.848 284.557 271.349 283.878 271.077C284.949 271.543 286.583 270.856 286.672 269.341L286.04 208.01Z" fill="#585971"/>
<path d="M216.516 183.237V217.791L241.778 232.893V198.021L216.516 183.237Z" fill="#D35050"/>
<path d="M235.652 204.967C232.341 199.512 226.617 196.926 222.867 199.192C219.117 201.459 218.76 207.717 222.071 213.172C225.382 218.628 231.106 221.214 234.856 218.947C238.606 216.682 238.963 210.422 235.652 204.967ZM233.117 216.082C230.582 217.614 226.621 215.716 224.271 211.844C221.922 207.972 222.071 203.59 224.608 202.059C227.144 200.527 231.104 202.425 233.453 206.297C235.803 210.169 235.652 214.551 233.117 216.082Z" fill="#333333"/>
<path d="M228.847 202.036C230.533 202.768 232.215 204.258 233.452 206.296C234.776 208.479 235.306 210.824 235.062 212.728L237.767 214.319C238.255 211.553 237.568 208.125 235.652 204.967C233.858 202.012 231.358 199.9 228.847 198.943V202.036Z" fill="#FF9E26"/>
<path d="M134.806 214.683C139.839 214.683 143.919 212.582 143.919 209.991C143.919 207.399 139.839 205.298 134.806 205.298C129.773 205.298 125.693 207.399 125.693 209.991C125.693 212.582 129.773 214.683 134.806 214.683Z" fill="#BFBFBF"/>
<path d="M134.638 186.224C129.957 186.224 126.099 184.595 125.552 182.492C125.506 182.434 125.486 182.402 125.486 182.402L130.013 211.306C130.013 211.306 131.598 212.686 134.61 212.686C137.59 212.686 139.134 211.306 139.134 211.306L143.712 182.531C143.132 184.615 139.29 186.224 134.638 186.224Z" fill="#585971"/>
<path d="M134.647 198.927C137.298 198.927 139.686 198.404 141.358 197.567L141.836 194.561C140.159 195.536 137.575 196.162 134.675 196.162C131.72 196.162 129.092 195.512 127.418 194.504L127.895 197.547C129.571 198.396 131.974 198.927 134.647 198.927Z" fill="#EBEDF6"/>
<path d="M134.647 200.956C132.152 200.956 129.891 200.492 128.24 199.741L128.469 201.204C130.1 201.903 132.28 202.33 134.675 202.33C137.016 202.33 139.152 201.922 140.771 201.25L141.008 199.761C139.363 200.5 137.119 200.956 134.647 200.956Z" fill="#EBEDF6"/>
<path d="M134.638 186.437C139.692 186.437 143.789 184.536 143.789 182.192C143.789 179.848 139.692 177.947 134.638 177.947C129.583 177.947 125.486 179.848 125.486 182.192C125.486 184.536 129.583 186.437 134.638 186.437Z" fill="#727B8E"/>
<path d="M134.769 185.382C138.976 185.382 142.387 183.888 142.387 182.045C142.387 180.202 138.976 178.708 134.769 178.708C130.561 178.708 127.151 180.202 127.151 182.045C127.151 183.888 130.561 185.382 134.769 185.382Z" fill="#EBEDF6"/>
<path d="M141.188 176.13C141.188 176.13 145.879 179.749 153.985 174.669C161.36 170.049 167.371 178.333 167.371 178.333C167.371 178.333 158.721 162.776 145.992 169.196C145.99 169.197 141.401 171.421 141.188 176.13Z" fill="#7BC980"/>
<path d="M130.83 179.799C130.83 179.799 125.58 182.551 118.481 176.146C112.024 170.318 104.662 177.434 104.662 177.434C104.662 177.434 115.887 163.612 127.307 172.14C127.306 172.14 131.439 175.125 130.83 179.799Z" fill="#7BC980"/>
<path d="M136.574 174.167C136.574 174.167 141.96 174.016 145.897 165.31C148.202 160.213 156.763 158.783 156.763 158.783C156.763 158.783 144.993 152.46 137.864 164.352C137.862 164.353 134.769 170.077 136.574 174.167Z" fill="#7BC980"/>
<path d="M131.479 172.466C131.479 172.466 126.108 172.908 121.235 164.688C118.381 159.875 109.715 159.395 109.715 159.395C109.715 159.395 120.714 151.817 129.115 162.852C129.115 162.854 132.82 168.203 131.479 172.466Z" fill="#7BC980"/>
<path d="M134.451 170.664C134.451 170.664 140.379 165.303 136.549 156.549C132.802 147.987 134.186 142.207 134.186 142.207C134.186 142.207 131.409 143.178 129.696 155.008C129.172 158.635 129.169 162.208 130.467 165.636C131.201 167.577 133.096 169.673 134.451 170.664Z" fill="#7BC980"/>
<path d="M136.746 185.294C137.476 180.783 140.351 176.712 144.248 174.344C145.344 173.679 146.516 173.153 147.745 172.789C147.996 172.715 147.889 172.321 147.636 172.395C143.148 173.726 139.381 177.175 137.485 181.426C136.95 182.627 136.563 183.887 136.353 185.186C136.31 185.442 136.704 185.553 136.746 185.294Z" fill="#4DA34F"/>
<path d="M133.071 185.321C132.374 181.019 129.645 177.143 125.921 174.897C124.872 174.264 123.743 173.766 122.569 173.417C122.316 173.341 122.208 173.735 122.46 173.811C126.551 175.024 129.955 178.14 131.671 182.022C132.152 183.109 132.487 184.257 132.678 185.429C132.719 185.688 133.112 185.579 133.071 185.321Z" fill="#4DA34F"/>
<path d="M136.121 185.375C135.791 181.552 135.965 177.695 136.865 173.956C137.673 170.597 139.028 167.374 141.016 164.537C142.108 162.976 143.389 161.553 144.834 160.309C145.034 160.137 144.744 159.851 144.545 160.021C141.96 162.244 139.918 165.052 138.465 168.127C136.894 171.455 135.995 175.087 135.68 178.745C135.49 180.952 135.522 183.171 135.712 185.375C135.734 185.634 136.143 185.637 136.121 185.375Z" fill="#4DA34F"/>
<path d="M133.663 185.382C133.806 183.73 133.861 182.067 133.669 180.418C133.496 178.926 133.13 177.471 132.709 176.032C132.217 174.349 131.691 172.677 130.98 171.07C130.291 169.513 129.457 168.02 128.476 166.627C127.369 165.053 126.081 163.611 124.621 162.356C124.423 162.185 124.133 162.472 124.332 162.644C126.895 164.847 128.91 167.62 130.349 170.667C131.091 172.237 131.632 173.872 132.134 175.531C132.573 176.984 132.982 178.451 133.201 179.954C133.461 181.753 133.41 183.577 133.255 185.382C133.232 185.643 133.64 185.642 133.663 185.382Z" fill="#4DA34F"/>
<path d="M133.439 159.41C134.272 166.122 134.565 172.897 134.305 179.656C134.232 181.564 134.114 183.471 133.954 185.375C133.932 185.637 134.341 185.635 134.363 185.375C134.929 178.635 134.953 171.853 134.426 165.111C134.277 163.207 134.084 161.305 133.848 159.41C133.816 159.152 133.407 159.15 133.439 159.41Z" fill="#4DA34F"/>
<path d="M192.021 231.132C202.325 231.132 210.678 226.831 210.678 221.526C210.678 216.221 202.325 211.92 192.021 211.92C181.718 211.92 173.365 216.221 173.365 221.526C173.365 226.831 181.718 231.132 192.021 231.132Z" fill="#DDDFE6"/>
<path d="M200.357 150.533C188.097 136.005 194.335 133.734 194.335 133.734C199.578 128.753 206.503 143.107 206.503 143.107L209.187 147.62L216.651 141.166L219.325 143.636C219.325 143.636 210.804 157.686 206.966 155.52C203.093 153.336 199.768 149.909 200.357 150.533Z" fill="#5267D1"/>
<path d="M201.026 163.925V223.639C201.026 223.639 194.879 226.49 190.71 224.111C190.562 223.219 190.059 177.302 190.059 177.302L189.414 218.067C189.414 218.067 183.642 222.042 179.584 217.843C179.436 217.101 180.366 159.443 180.366 159.443C180.366 159.443 184.197 166.554 201.026 163.925Z" fill="#333333"/>
<path d="M199.492 166.013C197.15 166.802 194.64 167.116 192.975 167.194C192.052 167.238 190.71 167.242 189.691 167.145C181.98 166.407 179.706 164.465 180.058 159.635C180.429 154.538 179.318 143.164 179.318 143.164C176.427 122.857 187.508 127.743 187.508 127.743C187.541 127.663 188.16 128.024 188.873 128.473C190.154 129.279 191.596 129.792 193.1 129.979C195.061 130.224 197.92 131.2 200.316 133.915C210.807 145.795 201.128 148.529 201.214 150.239C201.303 151.985 201.168 152.988 201.121 155.225C201.112 155.651 201.025 156.754 201.327 159.7C201.327 159.7 201.703 162.869 201.333 164.385C201.15 165.145 200.237 165.763 199.492 166.013Z" fill="#5267D1"/>
<path d="M197.612 174.355H197.449V221.597H197.612V174.355Z" fill="white"/>
<path d="M186.875 175.411L186.012 217.41L186.175 217.413L187.038 175.414L186.875 175.411Z" fill="white"/>
<path d="M197.747 117.08C197.976 117.165 199.345 129.208 193.681 127.854C193.681 127.854 193.694 129.274 194.175 130.172C194.175 130.172 190.156 131.614 187.732 129.624C187.304 129.272 187.14 128.692 187.316 128.169C187.486 127.664 187.733 126.941 188.035 126.099C188.834 123.873 186.858 113.068 197.747 117.08Z" fill="#FBAA78"/>
<path d="M218.933 143.273L216.944 141.508L217.835 139.213C217.969 138.869 218.275 138.621 218.64 138.561L220.274 138.293L223.058 135.352C223.058 135.352 223.716 135.412 223.415 135.827C223.113 136.244 221.142 138.856 221.142 138.856C221.142 138.856 222.841 140.737 221.78 141.72C221.249 142.213 220.719 142.427 220.399 142.517C220.166 142.583 219.947 142.695 219.758 142.846L218.933 143.273Z" fill="#FBAA78"/>
<path d="M194.442 130.239L193.889 129.408C193.889 129.408 189.305 130.657 187.511 127.743C187.511 127.743 186.068 129.72 189.672 130.532C193.158 131.236 194.442 130.239 194.442 130.239Z" fill="white"/>
<path d="M200.307 150.472C200.274 150.443 200.29 150.46 200.357 150.533C200.34 150.512 200.324 150.492 200.307 150.472C200.382 150.539 200.715 150.858 201.239 151.323C201.207 153.246 201.09 155.602 201.111 156.564C196.328 153.185 193.227 147.148 193.721 140.661C194.752 143.054 196.743 146.242 200.307 150.472Z" fill="#2F2FA5"/>
<path d="M182.315 127.848C182.313 127.848 182.313 127.85 182.311 127.85C182.313 127.848 182.313 127.848 182.315 127.848Z" fill="#333333"/>
<path d="M176.253 147.349L176.472 142.345C176.581 133.778 179.534 129.973 181.511 128.404C179.493 130.134 178.041 134.187 179.319 143.163C179.319 143.163 180.351 150.213 180.268 155.329L177.063 150.341C176.489 149.452 176.207 148.407 176.253 147.349Z" fill="#5267D1"/>
<path d="M178.923 139.469C179 140.597 179.13 141.825 179.319 143.162C179.319 143.162 180.016 147.924 180.217 152.46C178.04 148.384 178.923 139.469 178.923 139.469Z" fill="#2F2FA5"/>
<path d="M187.78 166.921C188.377 167.005 189.013 167.081 189.692 167.145C190.712 167.243 192.052 167.238 192.976 167.194C194.641 167.116 197.151 166.802 199.494 166.013C200.029 165.833 200.654 165.462 201.03 164.983C201.03 165.875 201.03 167.591 201.03 167.591C201.03 167.591 182.76 171.975 180.315 162.687C180.992 164.846 182.918 166.071 186.743 166.754L187.78 166.921Z" fill="#191919"/>
<path d="M189.414 218.067L189.497 212.754L190.141 212.582C190.141 212.582 190.267 212.578 190.488 212.555C190.528 215.364 190.566 217.864 190.6 219.816C189.861 220.089 189.063 220.377 188.209 220.695V221.532C188.209 221.532 182.299 224.917 179.568 220.788V216.785C179.568 217.42 179.574 217.789 179.584 217.843C183.643 222.042 189.414 218.067 189.414 218.067Z" fill="#191919"/>
<path d="M179.574 215.398C179.57 215.946 179.568 216.412 179.568 216.785V215.4L179.574 215.398Z" fill="#191919"/>
<path d="M190.71 223.478C194.881 225.856 201.026 223.007 201.026 223.007V218.042L201.18 218.001C201.18 218.001 202.175 217.969 203.524 217.553C205.094 217.068 206.782 217.973 207.17 219.567C207.179 219.602 207.245 220.641 207.253 220.677C207.791 223.283 204.582 224.125 199.246 226.113V226.95C199.246 226.95 193.337 230.336 190.606 226.206V220.818L190.631 220.812C190.663 222.389 190.69 223.357 190.71 223.478Z" fill="#191919"/>
<path d="M199.246 226.113C203.955 224.357 207.007 223.495 207.29 221.526C207.608 223.963 204.431 224.813 199.246 226.746V226.113Z" fill="#606060"/>
<path d="M199.246 226.95V227.583C199.246 227.583 193.337 230.969 190.606 226.839V226.206C193.338 230.337 199.246 226.95 199.246 226.95Z" fill="#606060"/>
<path d="M188.214 221.515V222.148C188.214 222.148 182.305 225.533 179.574 221.403V220.771C182.305 224.902 188.214 221.515 188.214 221.515Z" fill="#606060"/>
<path d="M190.612 220.431C189.872 220.703 189.071 220.992 188.214 221.312V220.679C189.067 220.362 189.864 220.073 190.6 219.802C190.604 220.017 190.608 220.227 190.612 220.431Z" fill="#606060"/>
<path d="M194.948 123.199C194.547 123.27 194.585 118.557 192.49 124.394C190.394 130.233 187.166 126.784 187.5 126.054C187.834 125.325 185.9 122.871 185.903 122.583C185.905 122.296 181.556 118.437 185.964 113.031C187.887 110.672 195.675 110.915 196.83 109.543C197.985 108.172 202.606 115.704 195.894 118.243C195.894 118.244 196.255 122.967 194.948 123.199Z" fill="#120621"/>
</g>
<defs>
<clipPath id="clip0_965_390">
<rect width="472" height="314" fill="white" transform="translate(0 -1)"/>
</clipPath>
</defs>
</svg>
