<svg width="1252" height="750" viewBox="0 0 1252 750" fill="none" xmlns="http://www.w3.org/2000/svg">
<path d="M420.328 430.484L538.031 420.064V15.6004L420.328 0.237305V430.484Z" fill="url(#paint0_linear_944_8)"/>
<path d="M484.797 210.941L525.967 211.197V409.021L484.797 412.754V210.941Z" fill="url(#paint1_linear_944_8)"/>
<path d="M472.802 210.864V413.839L431.95 417.542V210.608L472.802 210.864Z" fill="url(#paint2_linear_944_8)"/>
<path d="M431.95 197.784V13.8633L525.967 26.3371V198.154L431.95 197.784Z" fill="url(#paint3_linear_944_8)"/>
<path d="M431.95 48.9479V13.8633L525.967 26.3371L431.95 48.9479Z" fill="#D9DBDF"/>
<path d="M420.328 430.443L367.786 420.986V27.9584L420.328 0.237305V430.443Z" fill="#D9DBDF"/>
<path d="M311.174 618.105L139.398 701.608L0 689.161L247.668 603.027L311.174 618.105Z" fill="url(#paint4_linear_944_8)"/>
<path d="M280.72 625.292C302.657 625.292 320.441 616.132 320.441 604.832C320.441 593.532 302.657 584.372 280.72 584.372C258.783 584.372 241 593.532 241 604.832C241 616.132 258.783 625.292 280.72 625.292Z" fill="#C4C8CD"/>
<path d="M330.197 541.843H231.245L241.053 605.29C241.053 608.042 258.812 610.276 280.722 610.276C302.63 610.276 320.392 608.045 320.392 605.29L330.197 541.843Z" fill="#C4C8CD"/>
<path d="M247.465 577.45C254.753 568.763 263.677 577.032 273.184 575.194C283.229 573.254 293.431 571.769 302.339 578.539C300.748 577.332 314.284 594.776 324.906 576.059L330.194 541.843H231.242L238.937 589.048C242.104 584.312 246.228 578.925 247.465 577.45Z" fill="url(#paint5_linear_944_8)"/>
<path d="M337.83 528.176L328.536 553.851C328.536 548.11 307.12 543.455 280.717 543.455C254.314 543.455 232.916 548.113 232.916 553.851L223.62 528.176H337.83Z" fill="url(#paint6_linear_944_8)"/>
<path d="M280.72 570.354C307.243 570.354 328.745 562.705 328.745 553.269C328.745 543.833 307.243 536.184 280.72 536.184C254.197 536.184 232.695 543.833 232.695 553.269C232.695 562.705 254.197 570.354 280.72 570.354Z" fill="url(#paint7_linear_944_8)"/>
<path d="M280.72 547.347C312.258 547.347 337.825 538.762 337.825 528.172C337.825 517.583 312.258 508.998 280.72 508.998C249.181 508.998 223.615 517.583 223.615 528.172C223.615 538.762 249.181 547.347 280.72 547.347Z" fill="url(#paint8_linear_944_8)"/>
<path d="M280.72 542.905C309.374 542.905 332.604 536.31 332.604 528.175C332.604 520.04 309.374 513.445 280.72 513.445C252.065 513.445 228.835 520.04 228.835 528.175C228.835 536.31 252.065 542.905 280.72 542.905Z" fill="#697182"/>
<path d="M301.697 435.327C297.08 444.202 286.658 525.239 286.658 525.239L290.577 527.166C294.819 470.948 297.514 456.226 302.417 435.914C302.493 435.599 306.317 426.448 301.697 435.327Z" fill="#3C4456"/>
<path d="M309.091 301.754C281.16 371.357 301.717 436.222 301.717 436.222C333.262 423.63 336.092 385.656 336.092 385.656C301.242 405.315 337.804 373.085 337.804 373.085C352.439 320.694 309.091 301.754 309.091 301.754Z" fill="#5F6CDE"/>
<path d="M287.628 380.895C287.628 380.895 321.063 413.449 287.717 391.34C287.717 391.34 284.076 425.605 301.717 436.222C301.717 436.222 330.89 372.295 308.029 300.864C308.026 300.864 276.788 327.585 287.628 380.895Z" fill="#3C4456"/>
<path d="M333.658 417.893C333.658 417.893 328.273 424.718 338.359 432.89C348.442 441.065 327.987 437.709 326.758 423.09C325.526 408.47 306.867 428 317.26 448.522C326.877 467.503 296.002 489.383 283.404 529.273C285.124 528.618 286.897 528.095 288.703 527.653C295.611 509.479 309.298 477.54 327.963 453.6C355.555 418.208 405.277 418.982 405.277 418.982C405.277 418.982 362.274 400.692 333.658 417.893Z" fill="#3C4456"/>
<path d="M283.849 505.07C284.738 509.088 288.509 519.646 291.239 527.077C292.013 526.934 292.8 526.845 293.584 526.742C291.304 520.457 288.296 514.703 286.905 509.743C275.434 468.815 293.293 453.255 298.579 422.718C228.9 494.119 282.418 498.598 283.849 505.07Z" fill="#3C4456"/>
<path d="M345.313 441.885C342.644 450.779 348.612 460.571 342.275 461.504C335.939 462.436 347.523 443.353 339.529 444.609C331.537 445.868 325.419 456.024 325.419 456.024C325.818 489.553 321.686 459.967 321.686 459.967C308.692 484.141 318.554 496.329 318.554 496.329C304.466 504.17 293.962 517.681 287.491 527.942C288.542 527.654 289.604 527.395 290.679 527.182C297.808 515.388 310.549 499.911 331.392 491.327C368.136 476.193 382.909 442.286 382.909 442.286C382.909 442.286 347.981 432.993 345.313 441.885Z" fill="#5F6CDE"/>
<path d="M343.968 464.36C318.91 470.05 318.554 496.331 318.554 496.331C303.762 505.04 293.49 518.101 287.275 527.998C288.396 527.683 289.531 527.411 290.682 527.184C297.811 515.39 310.552 499.913 331.394 491.329C368.139 476.195 382.912 442.288 382.912 442.288C382.912 442.288 369.026 458.67 343.968 464.36Z" fill="#3C4456"/>
<path d="M268.898 459.749C270.712 479.732 284.881 514.418 290.369 527.258C292.175 526.889 294.013 526.636 295.875 526.49C290.304 517.375 274.316 489.368 270.249 461.835C265.297 428.333 287.326 412.986 257.308 372.142C257.308 372.142 229.496 419.455 251.029 364.312C251.029 364.312 238.258 354.242 233.69 348.003C233.69 348.003 233.754 355.439 227.822 362.684C227.822 362.684 231.186 336.108 197.875 340.639C197.875 340.639 181.954 364.783 211.055 384.378C211.055 384.378 226.391 393.046 231.709 399.049C231.709 399.049 217.507 391.305 207.489 396.081C207.489 396.081 211.718 417.42 221.434 419.403C231.151 421.39 232.153 422.455 232.153 422.455C232.153 422.455 233.442 427.506 239.894 426.853C246.347 426.201 246.527 431.158 246.527 431.158C246.527 431.158 235.609 426.46 227.181 429.527C227.181 429.527 226.836 442.629 242.096 445.513C257.357 448.397 266.64 434.891 268.898 459.749Z" fill="#5F6CDE"/>
<path d="M268.895 459.749C270.709 479.73 284.878 514.413 290.368 527.258C292.172 526.889 294.01 526.636 295.872 526.49C290.304 517.377 274.315 489.371 270.251 461.838C268.981 453.248 269.485 445.855 270.429 438.917C272.571 423.201 276.975 409.838 268.181 390.284C268.181 390.276 268.181 390.276 268.181 390.268C265.712 384.772 262.2 378.799 257.308 372.139C257.308 372.139 229.495 419.452 251.031 364.309C251.031 364.309 238.26 354.24 233.692 348.005C233.692 348.005 233.754 355.442 227.822 362.684C227.822 362.684 231.185 336.111 197.874 340.645C197.874 340.645 195.319 360.989 224.417 380.583C224.417 380.583 268.534 433.791 260.1 436.861C260.1 436.861 226.835 442.624 242.093 445.51C257.357 448.389 266.639 434.885 268.895 459.749Z" fill="#3C4456"/>
<path d="M263.796 419.437C262.79 431.251 270.429 438.919 270.429 438.919C272.571 423.203 276.975 409.839 268.181 390.285C271.771 407.619 264.809 407.613 263.796 419.437Z" fill="#5F6CDE"/>
<path d="M280.208 530.659C276.793 519.66 268.732 498.992 253.42 485.888C253.42 485.888 265.503 475.902 257.573 449.628C257.573 449.628 247.644 477.805 254.697 445.022C254.697 445.022 250.716 433.853 243.134 431.033C235.553 428.214 243.113 449.216 237.089 447.043C231.065 444.871 238.86 436.459 238.008 427.214C237.159 417.967 201.077 420.139 201.077 420.139C201.077 420.139 208.823 456.304 241.83 478.435C266.298 494.839 274.869 520.032 277.669 531.977C278.502 531.514 279.343 531.066 280.208 530.659Z" fill="#5F6CDE"/>
<path d="M280.319 530.607C277.128 519.991 269.443 500.285 253.42 485.884C253.42 485.884 258.293 460.055 234.863 449.501C211.435 438.946 201.077 420.133 201.077 420.133C201.077 420.133 208.824 456.298 241.83 478.429C266.298 494.833 274.869 520.026 277.67 531.971C278.537 531.491 279.416 531.031 280.319 530.607Z" fill="#3C4456"/>
<path d="M278.391 527.512C263.567 510.195 239.503 504.371 242.037 494.271C244.708 483.625 229.776 477.28 231.652 484.046C233.528 490.813 221.615 495.042 226.318 490.013C231.021 484.983 226.496 482.617 226.496 482.617C205.89 478.647 182.867 492.617 182.867 492.617C182.867 492.617 213.149 485.665 236.401 497.988C253.91 507.265 269.432 521.85 276.033 528.483C276.798 528.138 277.593 527.825 278.391 527.512Z" fill="#3C4456"/>
<path d="M814.104 299.509H907.603V15.1318L814.104 17.9376V299.509Z" fill="url(#paint9_linear_944_8)"/>
<path d="M706.449 299.509H797.55V18.8184L706.449 21.5514V299.509Z" fill="url(#paint10_linear_944_8)"/>
<path d="M1053.96 291.172H1147.45V6.79688L1053.96 9.59996V291.172Z" fill="url(#paint11_linear_944_8)"/>
<path d="M946.302 291.171H1037.4V10.4834L946.302 13.2164V291.171Z" fill="url(#paint12_linear_944_8)"/>
<path d="M376.802 376.379L408.188 385.136V745.884L376.802 744.569V376.379Z" fill="url(#paint13_linear_944_8)"/>
<path d="M1024.6 577.348L1059.74 582.143V736.23L1024.6 735.51V577.348Z" fill="url(#paint14_linear_944_8)"/>
<path d="M1164.95 473.811L1059.74 582.142V736.229L1164.95 631.973V473.811Z" fill="url(#paint15_linear_944_8)"/>
<path d="M649.819 303.768L408.188 385.136V745.884L649.819 671.955V303.768Z" fill="url(#paint16_linear_944_8)"/>
<path d="M834.518 543.631C834.518 543.631 839.294 621.274 799.652 693.513C760.007 765.752 689.592 731.678 689.875 701.61C690.158 671.544 705.387 518.352 705.387 518.352L834.518 543.631Z" fill="url(#paint17_linear_944_8)"/>
<path d="M1251.53 399.986L630.911 259.062L332.451 350.834L1078.37 595.02L1251.53 399.986Z" fill="url(#paint18_linear_944_8)"/>
<path d="M1078.37 624.411L332.405 368.936L332.451 350.834L1078.37 595.019V624.411Z" fill="url(#paint19_linear_944_8)"/>
<path d="M1078.37 624.413L1251.54 418.051L1251.53 399.952L1078.37 595.021V624.413Z" fill="url(#paint20_linear_944_8)"/>
<path d="M1131.06 419.91L1016.85 549.025L697.635 447.011L831.133 352.064L1131.06 419.91Z" fill="url(#paint21_linear_944_8)"/>
<path d="M822.171 343.022L669.542 450.144L417.64 367.282L580.463 290.521L822.171 343.022Z" fill="url(#paint22_linear_944_8)"/>
<path d="M761.993 347.566L633.336 318.64L601.939 335.396L736.407 372.13L761.993 347.566Z" fill="#697182"/>
<path d="M736.493 376.968L602.004 339.115L601.939 335.396L736.407 372.13L736.493 376.968Z" fill="#414A5C"/>
<path d="M761.994 347.577L736.408 372.131L736.494 376.969L762.064 351.661L761.994 347.577Z" fill="#202735"/>
<path d="M652.538 280.982L731.871 293.801C733.127 294.005 733.968 294.997 733.911 296.216L731.127 348.997L721.707 358.469L650.573 282.788C650.6 281.715 651.565 280.825 652.538 280.982Z" fill="#202735"/>
<path d="M643.919 278.827L722.759 291.547C724.006 291.749 724.842 292.738 724.785 293.951L721.705 358.471L640.652 337.065L641.964 280.631C641.989 279.561 642.954 278.671 643.919 278.827Z" fill="#414A5C"/>
<path d="M643.919 278.827L722.758 291.547C724.006 291.749 724.842 292.738 724.785 293.951L721.856 348.137L640.8 326.731L641.967 280.631C641.989 279.561 642.954 278.671 643.919 278.827Z" fill="url(#paint23_linear_944_8)"/>
<path d="M830.35 159.356C829.258 201.607 825.956 328.588 825.549 337.156C825.059 347.401 813.93 347.829 813.93 347.829L820.083 145.033C828.778 145.799 830.554 151.488 830.35 159.356Z" fill="#414A5C"/>
<path d="M587.349 124.531L818.489 144.894C822.349 145.234 824.99 148.021 824.883 151.659L819.131 345.903L580.463 290.518L581.999 130.04C582.029 127.011 584.66 124.294 587.349 124.531Z" fill="#697182"/>
<path d="M591.336 133.729L809.684 154.617C813.293 154.962 815.765 157.601 815.668 161.024L810.388 343.875L584.719 291.505L586.234 138.922C586.263 136.041 588.773 133.481 591.336 133.729Z" fill="black"/>
<path d="M699.471 246.039C675.276 224.779 671.462 192.891 642.644 176.846C620.639 164.593 602.953 187.945 581.55 177.382L582.002 130.045C582.032 127.013 584.66 124.296 587.35 124.533L818.49 144.896C822.349 145.236 824.991 148.022 824.883 151.661L822.535 230.986C822.012 231.342 771.338 309.19 699.471 246.039Z" fill="url(#paint24_linear_944_8)"/>
<path d="M817.339 352.385C816.878 353.854 815.177 354.724 813.544 354.333L580.369 298.592C579.806 298.457 579.469 297.846 579.617 297.228L580.464 290.522L819.358 345.959L817.339 352.385Z" fill="#414A5C"/>
<path d="M594.347 146.885L805.943 169.469L806.043 165.688L594.438 144.411L594.347 146.885Z" fill="#414A5C"/>
<path d="M594.185 151.136L603.486 152.225L603.581 149.694L594.276 148.659L594.185 151.136Z" fill="#414A5C"/>
<path d="M714.745 165.281L805.776 175.966L805.873 172.179L714.845 162.061L714.745 165.281Z" fill="#414A5C"/>
<path d="M621.046 154.286L697.536 163.261L697.636 160.145L621.141 151.645L621.046 154.286Z" fill="#414A5C"/>
<path d="M755.627 176.067L805.606 182.463L805.706 178.676L755.73 172.59L755.627 176.067Z" fill="#414A5C"/>
<path d="M594.023 155.387L638.916 161.131L639.013 158.376L594.12 152.91L594.023 155.387Z" fill="#414A5C"/>
<path d="M655.405 163.24L727.749 172.498L727.849 169.194L655.502 160.383L655.405 163.24Z" fill="#414A5C"/>
<path d="M593.147 167.986L805.013 200.418L805.102 196.623L593.274 164.633L593.147 167.986Z" fill="#414A5C"/>
<path d="M592.931 173.744L605.338 175.685L605.462 172.308L593.058 170.389L592.931 173.744Z" fill="#414A5C"/>
<path d="M728.906 195.04L804.859 206.934L804.948 203.137L729.011 191.401L728.906 195.04Z" fill="#414A5C"/>
<path d="M627.744 179.196L712.343 192.443L712.451 188.84L627.865 175.768L627.744 179.196Z" fill="#414A5C"/>
<path d="M765.238 207.132L804.705 213.452L804.797 209.655L765.335 203.415L765.238 207.132Z" fill="#414A5C"/>
<path d="M592.716 179.505L649.296 188.567L649.411 185.092L592.843 176.149L592.716 179.505Z" fill="#414A5C"/>
<path d="M668.155 191.588L740.893 203.237L740.995 199.569L668.268 188.073L668.155 191.588Z" fill="#414A5C"/>
<path d="M592.454 186.388L804.525 221.249L804.611 217.443L592.581 183.027L592.454 186.388Z" fill="#414A5C"/>
<path d="M592.239 192.158L604.653 194.241L604.78 190.853L592.366 188.794L592.239 192.158Z" fill="#414A5C"/>
<path d="M728.338 215.013L804.372 227.783L804.461 223.975L728.443 211.366L728.338 215.013Z" fill="#414A5C"/>
<path d="M627.081 198.01L711.759 212.23L711.867 208.616L627.202 194.573L627.081 198.01Z" fill="#414A5C"/>
<path d="M764.708 227.546L804.218 234.322L804.307 230.511L764.805 223.818L764.708 227.546Z" fill="#414A5C"/>
<path d="M592.02 197.935L648.651 207.643L648.767 204.161L592.147 194.568L592.02 197.935Z" fill="#414A5C"/>
<path d="M667.526 210.877L740.334 223.362L740.437 219.688L667.642 207.354L667.526 210.877Z" fill="#414A5C"/>
<path d="M591.778 204.367L804.048 241.608L804.14 237.792L591.907 201.001L591.778 204.367Z" fill="#414A5C"/>
<path d="M591.563 210.151L603.988 212.372L604.112 208.976L591.689 206.779L591.563 210.151Z" fill="#414A5C"/>
<path d="M727.782 234.531L803.894 248.155L803.983 244.339L727.887 230.876L727.782 234.531Z" fill="#414A5C"/>
<path d="M626.431 216.392L711.187 231.561L711.292 227.941L626.555 212.947L626.431 216.392Z" fill="#414A5C"/>
<path d="M764.188 247.494L803.741 254.715L803.83 250.893L764.285 243.756L764.188 247.494Z" fill="#414A5C"/>
<path d="M591.344 215.94L648.021 226.287L648.139 222.794L591.471 212.568L591.344 215.94Z" fill="#414A5C"/>
<path d="M666.911 229.734L739.792 243.038L739.892 239.353L667.025 226.203L666.911 229.734Z" fill="#414A5C"/>
<path d="M591.126 221.73L603.559 224.045L603.68 220.644L591.252 218.355L591.126 221.73Z" fill="#414A5C"/>
<path d="M727.427 247.103L803.588 261.278L803.679 257.453L727.529 243.438L727.427 247.103Z" fill="#414A5C"/>
<path d="M626.016 228.227L710.818 244.011L710.926 240.38L626.138 224.777L626.016 228.227Z" fill="#414A5C"/>
<path d="M763.853 260.336L803.434 267.845L803.523 264.017L763.95 256.592L763.853 260.336Z" fill="#414A5C"/>
<path d="M590.907 227.531L647.613 238.288L647.732 234.79L591.037 224.151L590.907 227.531Z" fill="#414A5C"/>
<path d="M666.519 241.873L739.44 255.705L739.542 252.013L666.632 238.334L666.519 241.873Z" fill="#414A5C"/>
<path d="M590.666 233.99L803.262 275.163L803.353 271.331L590.792 230.607L590.666 233.99Z" fill="#414A5C"/>
<path d="M590.447 239.798L602.888 242.251L603.012 238.842L590.573 236.413L590.447 239.798Z" fill="#414A5C"/>
<path d="M726.866 266.703L803.111 281.74L803.2 277.907L726.971 263.029L726.866 266.703Z" fill="#414A5C"/>
<path d="M625.361 246.684L710.244 263.424L710.351 259.788L625.485 243.226L625.361 246.684Z" fill="#414A5C"/>
<path d="M763.33 280.372L802.954 288.328L803.043 284.49L763.43 276.617L763.33 280.372Z" fill="#414A5C"/>
<path d="M590.228 245.606L646.98 257.004L647.099 253.498L590.355 242.221L590.228 245.606Z" fill="#414A5C"/>
<path d="M665.901 260.806L738.894 275.465L738.997 271.762L666.014 257.259L665.901 260.806Z" fill="#414A5C"/>
<path d="M589.969 252.552L802.771 296.199L802.86 292.359L590.093 249.161L589.969 252.552Z" fill="#414A5C"/>
<path d="M589.748 258.376L602.201 260.974L602.325 257.556L589.875 254.982L589.748 258.376Z" fill="#414A5C"/>
<path d="M726.292 286.868L802.617 302.8L802.706 298.954L726.397 283.187L726.292 286.868Z" fill="#414A5C"/>
<path d="M624.693 265.667L709.654 283.397L709.762 279.75L624.814 262.201L624.693 265.667Z" fill="#414A5C"/>
<path d="M762.794 300.985L802.461 309.405L802.552 305.556L762.894 297.22L762.794 300.985Z" fill="#414A5C"/>
<path d="M589.53 264.197L646.331 276.256L646.449 272.741L589.657 260.804L589.53 264.197Z" fill="#414A5C"/>
<path d="M665.268 280.279L738.332 295.79L738.434 292.079L665.384 276.724L665.268 280.279Z" fill="#414A5C"/>
<path d="M589.285 270.692L802.288 316.762L802.38 312.911L589.414 267.293L589.285 270.692Z" fill="#414A5C"/>
<path d="M589.067 276.526L601.527 279.265L601.654 275.839L589.194 273.125L589.067 276.526Z" fill="#414A5C"/>
<path d="M725.732 306.574L802.135 323.377L802.227 319.52L725.837 302.882L725.732 306.574Z" fill="#414A5C"/>
<path d="M624.038 284.216L709.074 302.916L709.182 299.259L624.162 280.742L624.038 284.216Z" fill="#414A5C"/>
<path d="M762.269 321.126L801.981 330.002L802.07 326.142L762.366 317.353L762.269 321.126Z" fill="#414A5C"/>
<path d="M588.848 282.364L645.692 295.07L645.813 291.547L588.972 278.963L588.848 282.364Z" fill="#414A5C"/>
<path d="M664.648 299.307L737.779 315.654L737.884 311.932L664.764 295.741L664.648 299.307Z" fill="#414A5C"/>
<path d="M1054.68 425.884L896.333 390.142L857.173 410.85L1022.54 456.241L1054.68 425.884Z" fill="#697182"/>
<path d="M1022.54 462.218L857.173 415.447V410.852L1022.54 456.243V462.218Z" fill="#414A5C"/>
<path d="M1054.68 425.897L1022.54 456.241V462.217L1054.68 430.943V425.897Z" fill="#202735"/>
<path d="M920.87 343.615L1018.62 359.455C1020.17 359.706 1021.19 360.935 1021.09 362.436L1016.51 427.657L1004.67 439.357L918.404 345.844C918.458 344.521 919.674 343.421 920.87 343.615Z" fill="#202735"/>
<path d="M910.268 340.949L1007.41 356.665C1008.95 356.913 1009.96 358.136 1009.87 359.635L1004.67 439.359L904.974 412.91L907.818 343.175C907.869 341.852 909.076 340.757 910.268 340.949Z" fill="#414A5C"/>
<path d="M910.267 340.949L1007.41 356.665C1008.95 356.913 1009.96 358.136 1009.87 359.635L1005.08 426.589L905.383 400.14L907.817 343.175C907.868 341.852 909.076 340.757 910.267 340.949Z" fill="url(#paint25_linear_944_8)"/>
<path d="M1143.21 193.32C1140.94 245.531 1134.13 402.432 1133.44 413.021C1132.61 425.681 1118.85 426.21 1118.85 426.21L1130.83 175.623C1141.56 176.572 1143.63 183.604 1143.21 193.32Z" fill="#414A5C"/>
<path d="M843.691 150.291L1128.87 175.452C1133.63 175.872 1136.83 179.317 1136.62 183.812L1125.32 423.831L831.605 355.395L836.966 157.099C837.066 153.356 840.375 150 843.691 150.291Z" fill="#697182"/>
<path d="M848.424 161.656L1117.78 187.466C1122.23 187.892 1125.23 191.156 1125.03 195.385L1114.56 421.326L836.842 356.617L842.006 168.076C842.103 164.516 845.26 161.351 848.424 161.656Z" fill="black"/>
<path d="M979.617 300.435C950.177 274.164 946.153 234.761 910.887 214.932C883.964 199.793 861.609 228.646 835.384 215.598L836.966 157.102C837.066 153.356 840.376 150 843.691 150.291L1128.87 175.452C1133.63 175.872 1136.83 179.317 1136.62 183.812L1132.01 281.832C1131.35 282.277 1067.06 378.466 979.617 300.435Z" fill="url(#paint26_linear_944_8)"/>
<path d="M1122.97 431.838C1122.37 433.652 1120.25 434.73 1118.24 434.247L831.317 365.372C830.621 365.205 830.22 364.45 830.417 363.685L831.605 355.399L1125.6 423.9L1122.97 431.838Z" fill="#414A5C"/>
<path d="M851.858 177.915L1112.83 205.819L1113.03 201.145L852.025 174.855L851.858 177.915Z" fill="#414A5C"/>
<path d="M851.568 183.165L863.042 184.512L863.211 181.383L851.738 180.105L851.568 183.165Z" fill="#414A5C"/>
<path d="M1000.23 200.642L1112.49 213.844L1112.69 209.165L1000.43 196.664L1000.23 200.642Z" fill="#414A5C"/>
<path d="M884.69 187.061L979.012 198.149L979.203 194.303L884.865 183.797L884.69 187.061Z" fill="#414A5C"/>
<path d="M1050.52 213.972L1112.14 221.877L1112.34 217.196L1050.72 209.676L1050.52 213.972Z" fill="#414A5C"/>
<path d="M851.279 188.419L906.624 195.516L906.802 192.115L851.446 185.357L851.279 188.419Z" fill="#414A5C"/>
<path d="M926.955 198.125L1016.15 209.563L1016.34 205.48L927.135 194.594L926.955 198.125Z" fill="#414A5C"/>
<path d="M849.926 203.989L1111.02 244.063L1111.2 239.376L850.153 199.847L849.926 203.989Z" fill="#414A5C"/>
<path d="M849.532 211.103L864.817 213.502L865.044 209.327L849.759 206.958L849.532 211.103Z" fill="#414A5C"/>
<path d="M1017.09 237.415L1110.69 252.112L1110.88 247.42L1017.3 232.919L1017.09 237.415Z" fill="#414A5C"/>
<path d="M892.43 217.839L996.681 234.21L996.892 229.757L892.654 213.604L892.43 217.839Z" fill="#414A5C"/>
<path d="M1061.72 252.36L1110.36 260.169L1110.55 255.473L1061.92 247.768L1061.72 252.36Z" fill="#414A5C"/>
<path d="M849.142 218.22L918.858 229.417L919.079 225.123L849.371 214.072L849.142 218.22Z" fill="#414A5C"/>
<path d="M942.096 233.148L1031.72 247.54L1031.93 243.01L942.312 228.803L942.096 233.148Z" fill="#414A5C"/>
<path d="M848.673 226.723L1109.96 269.799L1110.16 265.099L848.902 222.572L848.673 226.723Z" fill="#414A5C"/>
<path d="M848.279 233.854L863.572 236.431L863.801 232.243L848.508 229.698L848.279 233.854Z" fill="#414A5C"/>
<path d="M1015.96 262.098L1109.63 277.874L1109.83 273.168L1016.17 257.589L1015.96 262.098Z" fill="#414A5C"/>
<path d="M891.204 241.084L995.531 258.655L995.741 254.191L891.428 236.839L891.204 241.084Z" fill="#414A5C"/>
<path d="M1060.63 277.582L1109.3 285.953L1109.5 281.245L1060.83 272.976L1060.63 277.582Z" fill="#414A5C"/>
<path d="M847.885 240.992L917.65 252.991L917.871 248.687L848.114 236.833L847.885 240.992Z" fill="#414A5C"/>
<path d="M956.344 255.223L941.121 252.636L940.906 256.989L956.344 259.643V255.223Z" fill="#414A5C"/>
<path d="M961.961 256.18V260.613L979.141 263.567V259.099L961.961 256.18Z" fill="#414A5C"/>
<path d="M985.416 260.16V264.645L1030.6 272.416L1030.8 267.874L985.416 260.16Z" fill="#414A5C"/>
<path d="M847.449 248.943L1108.94 294.957L1109.13 290.242L847.678 244.778L847.449 248.943Z" fill="#414A5C"/>
<path d="M847.052 256.088L862.359 258.834L862.585 254.635L847.284 251.921L847.052 256.088Z" fill="#414A5C"/>
<path d="M1014.85 286.215L1108.6 303.047L1108.8 298.331L1015.06 281.695L1014.85 286.215Z" fill="#414A5C"/>
<path d="M890.007 263.799L994.407 282.545L994.617 278.068L890.231 259.543L890.007 263.799Z" fill="#414A5C"/>
<path d="M1059.55 302.229L1108.27 311.151L1108.47 306.431L1059.75 297.612L1059.55 302.229Z" fill="#414A5C"/>
<path d="M846.662 263.238L916.467 276.025L916.688 271.707L846.891 259.071L846.662 263.238Z" fill="#414A5C"/>
<path d="M967.136 280.843L939.956 275.922L939.738 280.288L967.136 285.304V280.843Z" fill="#414A5C"/>
<path d="M992.245 285.39V289.902L1029.5 296.726L1029.71 292.171L992.245 285.39Z" fill="#414A5C"/>
<path d="M846.265 270.399L861.575 273.259L861.804 269.054L846.495 266.229L846.265 270.399Z" fill="#414A5C"/>
<path d="M1014.14 301.746L1107.94 319.263L1108.14 314.538L1014.34 297.221L1014.14 301.746Z" fill="#414A5C"/>
<path d="M889.237 278.42L993.684 297.924L993.895 293.441L889.46 274.159L889.237 278.42Z" fill="#414A5C"/>
<path d="M1058.86 318.098L1107.61 327.375L1107.81 322.645L1059.07 313.473L1058.86 318.098Z" fill="#414A5C"/>
<path d="M845.872 277.562L915.707 290.852L915.931 286.532L846.101 273.387L845.872 277.562Z" fill="#414A5C"/>
<path d="M938.989 295.286L1028.8 312.376L1029 307.813L939.208 290.911L938.989 295.286Z" fill="#414A5C"/>
<path d="M845.433 285.54L1107.24 336.416L1107.43 331.681L845.662 281.362L845.433 285.54Z" fill="#414A5C"/>
<path d="M845.036 292.717L860.356 295.749L860.585 291.536L845.266 288.536L845.036 292.717Z" fill="#414A5C"/>
<path d="M1013.03 325.968L1106.91 344.552L1107.1 339.813L1013.23 321.432L1013.03 325.968Z" fill="#414A5C"/>
<path d="M888.034 301.227L992.555 321.913L992.765 317.42L888.258 296.955L888.034 301.227Z" fill="#414A5C"/>
<path d="M1057.79 342.856L1106.58 352.689L1106.77 347.948L1057.99 338.218L1057.79 342.856Z" fill="#414A5C"/>
<path d="M844.643 299.899L914.524 313.982L914.745 309.65L844.872 295.713L844.643 299.899Z" fill="#414A5C"/>
<path d="M992.245 325.106V329.648L1027.7 336.791L1027.9 332.217L992.245 325.106Z" fill="#414A5C"/>
<path d="M967.136 320.099L938.038 314.296L937.819 318.678L967.136 324.586V320.099Z" fill="#414A5C"/>
<path d="M844.168 308.479L1106.18 362.415L1106.37 357.669L844.4 304.291L844.168 308.479Z" fill="#414A5C"/>
<path d="M843.772 315.675L859.101 318.885L859.33 314.661L844.004 311.483L843.772 315.675Z" fill="#414A5C"/>
<path d="M1011.88 350.886L1105.85 370.569L1106.04 365.817L1012.09 346.336L1011.88 350.886Z" fill="#414A5C"/>
<path d="M886.797 324.685L991.394 346.595L991.604 342.086L887.024 320.399L886.797 324.685Z" fill="#414A5C"/>
<path d="M1056.68 368.326L1105.51 378.73L1105.71 373.972L1056.88 363.674L1056.68 368.326Z" fill="#414A5C"/>
<path d="M843.376 322.874L913.303 337.776L913.527 333.428L843.608 318.68L843.376 322.874Z" fill="#414A5C"/>
<path d="M936.614 342.74L1026.56 361.906L1026.77 357.322L936.835 338.347L936.614 342.74Z" fill="#414A5C"/>
<path d="M842.934 330.891L1105.14 387.823L1105.34 383.061L843.166 326.694L842.934 330.891Z" fill="#414A5C"/>
<path d="M842.538 338.103L857.874 341.489L858.106 337.254L842.77 333.901L842.538 338.103Z" fill="#414A5C"/>
<path d="M1010.76 375.239L1104.81 395.998L1105 391.233L1010.97 370.676L1010.76 375.239Z" fill="#414A5C"/>
<path d="M885.588 347.607L990.259 370.711L990.47 366.194L885.814 343.311L885.588 347.607Z" fill="#414A5C"/>
<path d="M1055.6 393.213L1104.47 404.18L1104.67 399.412L1055.8 388.55L1055.6 393.213Z" fill="#414A5C"/>
<path d="M842.139 345.32L912.109 361.02L912.332 356.664L842.371 341.115L842.139 345.32Z" fill="#414A5C"/>
<path d="M935.439 366.256L1025.45 386.452L1025.66 381.854L935.658 361.85L935.439 366.256Z" fill="#414A5C"/>
<path d="M755.726 425.198C755.726 425.198 753.948 418.934 753.255 413.018C752.565 407.105 754.244 394.359 753.584 385.777C752.926 377.195 758.861 374.788 752.069 369.182C745.277 363.573 745.611 371.581 741.743 372.295C741.743 372.295 740.951 374.81 742.592 376.783C742.592 376.783 740.452 373.565 736.334 367.419C732.218 361.271 726.135 365.883 726.135 365.883C726.135 365.883 720.701 360.943 716.211 364.638C711.72 368.333 711.963 355.997 705.359 355.916C698.756 355.835 700.001 361.218 690.201 362.433C680.401 363.649 683.226 405.658 704.923 418.112C726.62 430.567 755.726 425.198 755.726 425.198Z" fill="#F17E59"/>
<path d="M374.217 601.74L561.664 559.809C563.424 558.998 565.157 558.957 566.661 559.69L751.921 615.86C759.493 619.623 767.756 646.673 744.28 655.079L549.387 714.357C547.635 715.217 545.904 715.314 544.395 714.643L372.686 639.104C357.231 632.819 363.191 604.667 374.217 601.74Z" fill="url(#paint27_linear_944_8)"/>
<path d="M379.449 599.702L562.036 539.694C563.798 538.885 565.531 538.85 567.035 539.592L749.428 613.914C757.008 617.69 759.924 636.32 744.763 642.223L549.753 700.894C547.999 701.746 546.268 701.84 544.759 701.161L372.306 624.625C363.495 620.655 363.959 603.384 379.449 599.702Z" fill="url(#paint28_linear_944_8)"/>
<path d="M407.948 491.935C421.328 463.033 426.112 417.07 426.112 417.07L561.515 468.717C562.318 469.254 834.515 522.098 834.515 543.63C834.515 594.154 664.052 661.051 524.625 661.051C509.003 661.051 446.83 659.946 408.326 622.042C371.025 585.324 394.572 520.836 407.948 491.935Z" fill="#5F6CDE"/>
<path d="M407.948 491.935C421.327 463.033 426.111 417.07 426.111 417.07L561.514 468.717C562.318 469.254 834.515 522.098 834.515 543.63C834.515 558.099 820.51 573.906 797.282 589.108C776.049 572.408 616.787 529.235 622.835 559.171C632.058 604.811 557.892 643.852 603.661 654.714C577.101 658.743 550.34 661.053 524.627 661.053C509.005 661.053 446.833 659.948 408.328 622.044C371.025 585.324 394.571 520.836 407.948 491.935Z" fill="url(#paint29_linear_944_8)"/>
<path d="M615.383 108.969C615.383 108.969 623.728 126.022 607.311 137.919C607.311 137.919 613.537 161.395 610.623 176.54C607.707 191.688 599.785 195.264 599.351 203.229C598.915 211.193 603.154 231.219 571.986 261.097C571.986 261.097 557.604 260.574 548.578 257.87C539.551 255.167 549.982 297.227 549.982 297.227L480.066 259.269C480.066 259.269 494.669 229.602 500.744 207.514C508.094 180.812 487.19 143.323 517.086 117.3C546.982 91.2772 587.487 122.451 615.383 108.969Z" fill="#F17E59"/>
<path d="M500.698 207.52C501.758 203.814 502.178 199.844 502.343 195.793C503.485 195.798 504.631 196.227 505.779 197.073C519.946 208.445 543.195 213.566 543.586 233.158C543.758 237.877 532.816 270.25 534.578 288.902L480.052 259.245C480.055 259.243 494.674 229.587 500.698 207.52Z" fill="url(#paint30_linear_944_8)"/>
<path d="M506.49 130.088C495.176 150.553 503.102 175.067 502.345 195.794C502.159 195.761 502.043 195.78 501.855 195.745C501.992 174.876 494.806 150.489 506.49 130.088Z" fill="#F17E59"/>
<path d="M615.383 108.968C615.383 108.968 623.563 125.746 607.666 137.627C600.623 135.873 600.871 152.096 600.486 159.934C599.89 171.973 590.198 177.652 587.018 193.867C586.74 195.288 584.762 195.342 584.414 193.937C581.468 181.959 575.339 180.76 562.768 192.927C556.537 198.956 551.898 205.678 546.09 211.91C534.583 224.254 499.82 215.559 498.609 215.607C499.378 213.211 500.105 210.554 500.747 207.508C506.453 180.41 487.189 143.317 517.088 117.294C546.987 91.2711 587.487 122.45 615.383 108.968Z" fill="black"/>
<path d="M579.404 183.271C580.342 184.74 579.922 186.691 578.469 187.646C578.264 187.788 571.305 192.829 567.739 209.661C567.394 211.289 565.863 212.359 564.243 212.162C564.151 212.151 564.06 212.135 563.965 212.113C562.243 211.75 561.146 210.06 561.51 208.34C565.728 188.416 574.631 182.538 575.008 182.298C576.491 181.352 578.461 181.791 579.404 183.271Z" fill="url(#paint31_linear_944_8)"/>
<path d="M617.504 444.881C602.737 471.403 620.342 507.908 607.99 563.137C607.99 563.137 458.339 555.31 415.46 505.892C415.46 505.892 412.975 403.646 412.975 371.073C412.975 336.272 406.363 235.015 503.79 256.106C585.18 273.725 664.375 360.705 617.504 444.881Z" fill="white"/>
<path d="M629.091 414.779C623.706 412.55 618.501 409.838 613.525 406.857C597.545 397.278 583.495 384.012 569.525 371.794C555.474 359.509 540.281 348.164 528.654 333.445C517.937 319.885 509.369 304.786 498.269 291.536C489.337 280.874 487.731 265.877 495.218 254.527C406.764 241.102 412.977 337.332 412.977 371.077C412.977 403.65 415.462 505.896 415.462 505.896C458.339 555.314 607.992 563.141 607.992 563.141C620.345 507.912 602.739 471.407 617.506 444.885C623.094 434.845 626.881 424.77 629.091 414.779Z" fill="url(#paint32_linear_944_8)"/>
<path opacity="0.5" d="M470.519 354.555C470.519 355.709 470.519 356.905 470.541 358.099C470.541 356.582 470.649 355.089 470.821 353.639C470.821 353.639 470.732 353.959 470.519 354.555Z" fill="url(#paint33_linear_944_8)"/>
<path d="M571.498 288.14C590.654 287.227 624.126 308.053 638.573 324.025C653.014 339.998 663.435 339.615 668.542 352.862C673.652 366.11 689.649 370.864 690.8 376.182C691.948 381.5 710.567 377.57 717.852 398.893C717.852 398.893 734.14 394.823 743.442 406.803C752.743 418.784 763.182 408.434 764.834 443.058C766.077 469.056 749.414 478.603 733.167 479.379C716.917 480.156 687.428 475.886 675.569 464.747C655.699 446.084 565.536 418.202 549.561 371.953C533.586 325.705 529.538 290.143 571.498 288.14Z" fill="white"/>
<path d="M764.834 443.061C763.985 425.247 760.807 419.347 756.656 416.175C755.411 425.905 750.449 434.818 740.245 440.602C726.038 448.656 709.357 444.98 695.115 439.085C692.482 437.996 689.899 436.794 687.312 435.611C685.153 434.627 683.522 433.878 682.269 433.304C681.878 433.139 680.881 432.705 678.884 431.818C668.076 427.029 657.656 421.39 646.842 416.641C626.107 407.534 605.27 400.413 586.176 387.796C569.204 376.581 554.811 363.28 542.216 347.836C544.13 355.429 546.642 363.509 549.558 371.953C565.533 418.205 655.696 446.085 675.566 464.747C687.425 475.884 716.914 480.153 733.164 479.38C749.414 478.606 766.074 469.059 764.834 443.061Z" fill="url(#paint34_linear_944_8)"/>
<path d="M368.737 409.65L574.309 479.913C581.266 482.291 585.939 488.83 585.939 496.185V608.368C585.939 620.381 573.935 628.691 562.693 624.462L357.12 547.121C350.417 544.598 345.978 538.188 345.978 531.027V425.919C345.978 414.127 357.578 405.836 368.737 409.65Z" fill="url(#paint35_linear_944_8)"/>
<path d="M367.411 416.053L563.04 482.918C569.663 485.182 574.11 491.403 574.11 498.402V605.157C574.11 616.588 562.687 624.499 551.987 620.472L356.357 546.872C349.98 544.47 345.754 538.371 345.754 531.554V431.532C345.757 420.314 356.794 412.423 367.411 416.053Z" fill="url(#paint36_linear_944_8)"/>
<path d="M568.623 609.2V502.445C568.623 495.445 564.173 489.224 557.553 486.963L361.923 420.095C357.727 418.662 353.476 419.047 349.857 420.707C354.026 416.007 360.8 413.797 367.414 416.055L563.043 482.92C569.666 485.184 574.113 491.405 574.113 498.402V605.159C574.113 611.96 570.056 617.49 564.526 620.027C567.046 617.186 568.623 613.439 568.623 609.2Z" fill="white"/>
<path d="M450.091 499.126C455.911 500.417 459.935 504.638 459.935 509.446V734.107C459.935 740.201 453.558 745.066 445.911 744.812C438.701 744.572 433.017 739.85 433.017 734.107V509.446C433.017 502.358 441.515 497.22 450.091 499.126Z" fill="url(#paint37_linear_944_8)"/>
<path d="M446.609 504.303C451.24 505.594 454.442 509.815 454.442 514.623V739.284C454.442 745.378 449.367 750.243 443.278 749.989C437.543 749.749 433.014 745.027 433.014 739.284V514.623C433.017 507.534 439.78 502.4 446.609 504.303Z" fill="url(#paint38_linear_944_8)"/>
<path d="M1076.24 482.916H1013.67L1022.75 539.213C1023.08 545.557 1033.02 550.568 1044.95 550.568C1056.89 550.568 1066.82 545.565 1067.16 539.221L1076.24 482.916Z" fill="#0078EF"/>
<path d="M1053.13 522.532C1044.21 528.168 1033.02 534.202 1022.35 536.712L1022.75 539.213C1023.08 545.558 1033.01 550.568 1044.95 550.568C1056.89 550.568 1066.82 545.566 1067.15 539.221L1072.95 503.258C1067.18 511.562 1060.33 517.982 1053.13 522.532Z" fill="url(#paint39_linear_944_8)"/>
<path d="M1044.95 474.74C1062.7 474.74 1076.71 478.395 1076.24 482.783C1075.79 487.044 1061.79 490.411 1044.95 490.411C1028.12 490.411 1014.12 487.044 1013.67 482.783C1013.2 478.395 1027.2 474.74 1044.95 474.74Z" fill="#49A3FE"/>
<path d="M1044.95 476.237C1061.48 476.237 1074.57 479.202 1074.19 482.771C1073.82 486.253 1060.74 489.01 1044.95 489.01C1029.17 489.01 1016.08 486.253 1015.71 482.771C1015.34 479.199 1028.43 476.237 1044.95 476.237Z" fill="#414A5C"/>
<defs>
<linearGradient id="paint0_linear_944_8" x1="479.18" y1="14.2763" x2="479.18" y2="349.412" gradientUnits="userSpaceOnUse">
<stop offset="2.7e-07" stop-color="white"/>
<stop offset="1" stop-color="#D8DCDF"/>
</linearGradient>
<linearGradient id="paint1_linear_944_8" x1="505.383" y1="27.0353" x2="505.383" y2="341.477" gradientUnits="userSpaceOnUse">
<stop offset="2.7e-07" stop-color="white"/>
<stop offset="1" stop-color="#D8DCDF"/>
</linearGradient>
<linearGradient id="paint2_linear_944_8" x1="452.377" y1="27.0338" x2="452.377" y2="341.475" gradientUnits="userSpaceOnUse">
<stop offset="2.7e-07" stop-color="white"/>
<stop offset="1" stop-color="#D8DCDF"/>
</linearGradient>
<linearGradient id="paint3_linear_944_8" x1="478.959" y1="27.0605" x2="478.959" y2="342.137" gradientUnits="userSpaceOnUse">
<stop offset="2.7e-07" stop-color="white"/>
<stop offset="1" stop-color="#D8DCDF"/>
</linearGradient>
<linearGradient id="paint4_linear_944_8" x1="115.587" y1="676.663" x2="180.244" y2="569.881" gradientUnits="userSpaceOnUse">
<stop offset="2.7e-07" stop-color="white"/>
<stop offset="1" stop-color="#D8DCDF"/>
</linearGradient>
<linearGradient id="paint5_linear_944_8" x1="289.822" y1="589.087" x2="282.429" y2="555.817" gradientUnits="userSpaceOnUse">
<stop offset="2.7e-07" stop-color="white"/>
<stop offset="1" stop-color="#D8DCDF"/>
</linearGradient>
<linearGradient id="paint6_linear_944_8" x1="322.368" y1="541.012" x2="263.405" y2="541.012" gradientUnits="userSpaceOnUse">
<stop offset="2.7e-07" stop-color="white"/>
<stop offset="1" stop-color="#D8DCDF"/>
</linearGradient>
<linearGradient id="paint7_linear_944_8" x1="322.369" y1="553.267" x2="263.405" y2="553.267" gradientUnits="userSpaceOnUse">
<stop offset="2.7e-07" stop-color="white"/>
<stop offset="1" stop-color="#D8DCDF"/>
</linearGradient>
<linearGradient id="paint8_linear_944_8" x1="201.167" y1="528.172" x2="247.458" y2="528.172" gradientUnits="userSpaceOnUse">
<stop offset="2.7e-07" stop-color="white"/>
<stop offset="1" stop-color="#D8DCDF"/>
</linearGradient>
<linearGradient id="paint9_linear_944_8" x1="854.363" y1="217.686" x2="873.967" y2="39.5458" gradientUnits="userSpaceOnUse">
<stop offset="2.7e-07" stop-color="white"/>
<stop offset="1" stop-color="#D8DCDF"/>
</linearGradient>
<linearGradient id="paint10_linear_944_8" x1="745.595" y1="218.717" x2="764.936" y2="42.9655" gradientUnits="userSpaceOnUse">
<stop offset="2.7e-07" stop-color="white"/>
<stop offset="1" stop-color="#D8DCDF"/>
</linearGradient>
<linearGradient id="paint11_linear_944_8" x1="1094.22" y1="209.348" x2="1113.82" y2="31.2089" gradientUnits="userSpaceOnUse">
<stop offset="2.7e-07" stop-color="white"/>
<stop offset="1" stop-color="#D8DCDF"/>
</linearGradient>
<linearGradient id="paint12_linear_944_8" x1="985.449" y1="210.382" x2="1004.79" y2="34.6327" gradientUnits="userSpaceOnUse">
<stop offset="2.7e-07" stop-color="white"/>
<stop offset="1" stop-color="#D8DCDF"/>
</linearGradient>
<linearGradient id="paint13_linear_944_8" x1="392.496" y1="616.758" x2="392.496" y2="395.685" gradientUnits="userSpaceOnUse">
<stop offset="2.7e-07" stop-color="white"/>
<stop offset="1" stop-color="#C4C8CD"/>
</linearGradient>
<linearGradient id="paint14_linear_944_8" x1="1042.17" y1="680.708" x2="1042.17" y2="585.649" gradientUnits="userSpaceOnUse">
<stop offset="2.7e-07" stop-color="white"/>
<stop offset="1" stop-color="#C4C8CD"/>
</linearGradient>
<linearGradient id="paint15_linear_944_8" x1="1146.79" y1="653.668" x2="1091" y2="574.865" gradientUnits="userSpaceOnUse">
<stop offset="2.7e-07" stop-color="white"/>
<stop offset="1" stop-color="#C4C8CD"/>
</linearGradient>
<linearGradient id="paint16_linear_944_8" x1="543.83" y1="604.895" x2="492.477" y2="327.589" gradientUnits="userSpaceOnUse">
<stop offset="2.7e-07" stop-color="white"/>
<stop offset="1" stop-color="#C4C8CD"/>
</linearGradient>
<linearGradient id="paint17_linear_944_8" x1="774.964" y1="688.053" x2="759.054" y2="607.867" gradientUnits="userSpaceOnUse">
<stop offset="2.7e-07" stop-color="white"/>
<stop offset="0.949" stop-color="#5F6CDE"/>
</linearGradient>
<linearGradient id="paint18_linear_944_8" x1="1132.28" y1="460.279" x2="682.355" y2="406.415" gradientUnits="userSpaceOnUse">
<stop offset="2.7e-07" stop-color="white"/>
<stop offset="0.9517" stop-color="#D8DCDF"/>
</linearGradient>
<linearGradient id="paint19_linear_944_8" x1="561.092" y1="443.699" x2="895.423" y2="545.452" gradientUnits="userSpaceOnUse">
<stop offset="2.7e-07" stop-color="white"/>
<stop offset="1" stop-color="#C4C8CD"/>
</linearGradient>
<linearGradient id="paint20_linear_944_8" x1="1138.81" y1="520.865" x2="1331.12" y2="456.962" gradientUnits="userSpaceOnUse">
<stop offset="2.7e-07" stop-color="white"/>
<stop offset="1" stop-color="#C4C8CD"/>
</linearGradient>
<linearGradient id="paint21_linear_944_8" x1="892.393" y1="505.588" x2="910.504" y2="446.08" gradientUnits="userSpaceOnUse">
<stop offset="2.7e-07" stop-color="white"/>
<stop offset="0.3075" stop-color="#F9F9FA"/>
<stop offset="0.7306" stop-color="#E7E9EB"/>
<stop offset="1" stop-color="#D8DCDF"/>
</linearGradient>
<linearGradient id="paint22_linear_944_8" x1="599.107" y1="423.496" x2="616.079" y2="367.729" gradientUnits="userSpaceOnUse">
<stop offset="2.7e-07" stop-color="white"/>
<stop offset="0.3075" stop-color="#F9F9FA"/>
<stop offset="0.7306" stop-color="#E7E9EB"/>
<stop offset="1" stop-color="#D8DCDF"/>
</linearGradient>
<linearGradient id="paint23_linear_944_8" x1="676.631" y1="335.832" x2="680.078" y2="322.65" gradientUnits="userSpaceOnUse">
<stop offset="2.7e-07" stop-color="white"/>
<stop offset="1" stop-color="#46495F"/>
</linearGradient>
<linearGradient id="paint24_linear_944_8" x1="667.284" y1="264.564" x2="702.894" y2="151.862" gradientUnits="userSpaceOnUse">
<stop offset="2.7e-07" stop-color="white"/>
<stop offset="1" stop-color="#D8DCDF"/>
</linearGradient>
<linearGradient id="paint25_linear_944_8" x1="949.458" y1="411.386" x2="953.752" y2="395.034" gradientUnits="userSpaceOnUse">
<stop offset="2.7e-07" stop-color="white"/>
<stop offset="1" stop-color="#46495F"/>
</linearGradient>
<linearGradient id="paint26_linear_944_8" x1="939.446" y1="323.325" x2="983.893" y2="183.433" gradientUnits="userSpaceOnUse">
<stop offset="2.7e-07" stop-color="white"/>
<stop offset="1" stop-color="#D8DCDF"/>
</linearGradient>
<linearGradient id="paint27_linear_944_8" x1="759.745" y1="637.125" x2="363.327" y2="637.125" gradientUnits="userSpaceOnUse">
<stop offset="2.7e-07" stop-color="white"/>
<stop offset="1" stop-color="#C4C8CD"/>
</linearGradient>
<linearGradient id="paint28_linear_944_8" x1="561.089" y1="685.538" x2="561.089" y2="613.557" gradientUnits="userSpaceOnUse">
<stop offset="2.7e-07" stop-color="white"/>
<stop offset="1" stop-color="#C4C8CD"/>
</linearGradient>
<linearGradient id="paint29_linear_944_8" x1="635.822" y1="626.822" x2="589.06" y2="507.712" gradientUnits="userSpaceOnUse">
<stop offset="2.7e-07" stop-color="white"/>
<stop offset="1" stop-color="#5F6CDE"/>
</linearGradient>
<linearGradient id="paint30_linear_944_8" x1="544.983" y1="227.705" x2="512" y2="271" gradientUnits="userSpaceOnUse">
<stop offset="0.411458" stop-color="#F17E59"/>
<stop offset="1" stop-color="white"/>
</linearGradient>
<linearGradient id="paint31_linear_944_8" x1="559.695" y1="211.285" x2="573.474" y2="192.575" gradientUnits="userSpaceOnUse">
<stop offset="2.7e-07" stop-color="white"/>
<stop offset="1" stop-color="#BA654B"/>
</linearGradient>
<linearGradient id="paint32_linear_944_8" x1="571.772" y1="275.972" x2="515.389" y2="426.619" gradientUnits="userSpaceOnUse">
<stop offset="2.7e-07" stop-color="white"/>
<stop offset="0.9517" stop-color="#D8DCDF"/>
</linearGradient>
<linearGradient id="paint33_linear_944_8" x1="533.335" y1="152.533" x2="479.92" y2="325.86" gradientUnits="userSpaceOnUse">
<stop stop-color="white"/>
<stop offset="1"/>
</linearGradient>
<linearGradient id="paint34_linear_944_8" x1="684.479" y1="318.158" x2="628.097" y2="468.803" gradientUnits="userSpaceOnUse">
<stop offset="2.7e-07" stop-color="white"/>
<stop offset="0.9517" stop-color="#D8DCDF"/>
</linearGradient>
<linearGradient id="paint35_linear_944_8" x1="448.941" y1="584.078" x2="482.367" y2="452.603" gradientUnits="userSpaceOnUse">
<stop offset="2.7e-07" stop-color="white"/>
<stop offset="1" stop-color="#697182"/>
</linearGradient>
<linearGradient id="paint36_linear_944_8" x1="443.74" y1="582.048" x2="475.549" y2="456.933" gradientUnits="userSpaceOnUse">
<stop offset="2.7e-07" stop-color="white"/>
<stop offset="1" stop-color="#C4C8CD"/>
</linearGradient>
<linearGradient id="paint37_linear_944_8" x1="446.475" y1="658.823" x2="446.475" y2="511.585" gradientUnits="userSpaceOnUse">
<stop offset="2.7e-07" stop-color="white"/>
<stop offset="1" stop-color="#697182"/>
</linearGradient>
<linearGradient id="paint38_linear_944_8" x1="443.73" y1="664" x2="443.73" y2="516.761" gradientUnits="userSpaceOnUse">
<stop offset="2.7e-07" stop-color="white"/>
<stop offset="1" stop-color="#C4C8CD"/>
</linearGradient>
<linearGradient id="paint39_linear_944_8" x1="1064.29" y1="526.912" x2="1027.6" y2="526.912" gradientUnits="userSpaceOnUse">
<stop offset="2.7e-07" stop-color="white"/>
<stop offset="1" stop-color="#0057A8"/>
</linearGradient>
</defs>
</svg>
