<svg width="370" height="216" viewBox="0 0 370 216" fill="none" xmlns="http://www.w3.org/2000/svg">
<path d="M147.116 31.1744L149.135 24.5686L145.081 22.9343C145.244 20.8724 145.035 18.8411 144.498 16.9042L148.167 14.5275L144.927 8.43494L140.905 10.1477C139.599 8.61994 138.032 7.31152 136.232 6.29344L137.143 2.01774L130.539 0L128.905 4.05515C126.85 3.89466 124.811 4.10168 122.875 4.63829L120.498 0.969053L114.405 4.20949L116.118 8.23158C114.59 9.53756 113.282 11.1045 112.264 12.9042L107.988 11.9927L105.969 18.5986L110.024 20.2316C109.864 22.2874 110.071 24.326 110.607 26.2617L106.939 28.6384L110.18 34.7322L114.201 33.0195C115.507 34.5472 117.081 35.8581 118.874 36.8737L117.962 41.1481L124.566 43.1671L126.201 39.112C128.264 39.2749 130.294 39.0654 132.231 38.5288L134.608 42.1968L140.7 38.9564L138.987 34.9356C140.516 33.6296 141.827 32.0541 142.842 30.2617L147.116 31.1744ZM123.909 33.5021C117.326 31.4893 113.621 24.5208 115.633 17.9382C117.646 11.3556 124.614 7.65088 131.197 9.66253C137.779 11.6742 141.485 18.6427 139.472 25.2252C137.46 31.8078 130.491 35.515 123.909 33.5021Z" fill="#EDF1F4"/>
<path d="M342.009 155.339C338.033 175.115 318.777 187.931 298.986 183.955C279.21 179.994 266.394 160.723 270.37 140.949C274.344 121.158 293.6 108.343 313.376 112.317C333.167 116.292 345.983 135.563 342.009 155.339Z" fill="white"/>
<path d="M357.707 147.034C357.586 140.978 356.39 135.112 354.273 129.617L364.287 121.633L353.086 104.788L341.853 110.939C337.601 106.864 332.647 103.49 327.11 101.045L328.535 88.3049L308.688 84.3232L305.083 96.6186C299.041 96.7374 293.162 97.9356 287.654 100.053L279.669 90.0397L262.824 101.24L268.991 112.488C264.903 116.74 261.541 121.678 259.084 127.231L246.357 125.805L242.361 145.653L254.668 149.242C254.787 155.285 255.973 161.179 258.102 166.672L248.075 174.658L259.29 191.502L270.523 185.35C274.774 189.425 279.742 192.798 285.266 195.245L283.84 207.985L303.688 211.966L307.292 199.672C313.348 199.551 319.214 198.354 324.706 196.225L332.705 206.251L349.534 195.039L343.383 183.806C347.471 179.552 350.844 174.585 353.291 169.062L366.017 170.488L370 150.642L357.707 147.034ZM342.008 155.34C338.033 175.116 318.777 187.932 298.986 183.956C279.21 179.995 266.394 160.724 270.369 140.95C274.344 121.159 293.6 108.344 313.376 112.319C333.167 116.293 345.983 135.564 342.008 155.34Z" fill="#EDF1F4"/>
<path d="M331.306 147.002C330.584 147.126 330.05 147.297 329.702 147.519C329.356 147.741 329.074 148.078 328.86 148.53C328.644 148.983 328.519 149.534 328.482 150.184C328.458 150.67 328.513 151.501 328.647 152.674C328.869 154.604 328.938 155.961 328.852 156.746C328.766 157.533 328.516 158.184 328.101 158.701C327.687 159.216 327.043 159.661 326.168 160.034C325.582 160.282 324.638 160.482 323.334 160.631L322.543 160.722L322.131 157.142C323.196 157.018 323.884 156.871 324.197 156.701C324.509 156.528 324.728 156.307 324.853 156.036C324.978 155.763 325.008 155.325 324.944 154.718C324.879 154.11 324.787 152.947 324.67 151.226C324.601 150.186 324.64 149.343 324.787 148.697C324.934 148.051 325.165 147.489 325.477 147.015C325.791 146.54 326.212 146.108 326.741 145.713C325.95 145.321 325.359 144.915 324.968 144.497C324.426 143.894 324.01 143.094 323.725 142.1C323.535 141.417 323.28 139.894 322.958 137.532C322.863 136.788 322.737 136.297 322.586 136.064C322.432 135.83 322.186 135.663 321.847 135.567C321.509 135.47 320.777 135.486 319.653 135.614L319.242 132.049L320.034 131.959C321.376 131.804 322.418 131.79 323.158 131.917C323.898 132.044 324.541 132.33 325.086 132.776C325.632 133.22 326.033 133.801 326.292 134.512C326.55 135.222 326.769 136.364 326.951 137.935C327.16 139.755 327.371 140.935 327.585 141.475C327.895 142.246 328.295 142.778 328.782 143.068C329.269 143.36 329.973 143.477 330.894 143.423L331.306 147.002Z" fill="#3F4261"/>
<path d="M282.538 148.855C283.447 148.7 284.106 148.424 284.514 148.03C284.922 147.635 285.19 147.028 285.318 146.207C285.403 145.633 285.341 144.438 285.132 142.616C284.951 141.045 284.905 139.884 284.995 139.132C285.085 138.381 285.345 137.726 285.775 137.167C286.203 136.609 286.765 136.184 287.457 135.892C288.148 135.602 289.166 135.378 290.508 135.223L291.3 135.133L291.71 138.699C290.587 138.828 289.87 138.978 289.563 139.149C289.255 139.321 289.053 139.538 288.957 139.802C288.862 140.064 288.853 140.569 288.928 141.316C289.151 143.689 289.248 145.229 289.218 145.937C289.167 146.971 288.944 147.843 288.553 148.554C288.268 149.05 287.784 149.579 287.103 150.142C287.707 150.404 288.216 150.731 288.629 151.122C289.042 151.513 289.394 152.008 289.684 152.603C289.973 153.2 290.203 154.012 290.373 155.041C290.649 156.743 290.825 157.896 290.899 158.502C290.974 159.107 291.104 159.529 291.286 159.765C291.47 160 291.734 160.166 292.078 160.264C292.422 160.359 293.125 160.346 294.19 160.225L294.602 163.806L293.81 163.896C292.508 164.046 291.543 164.066 290.915 163.956C289.979 163.792 289.252 163.507 288.731 163.097C288.21 162.688 287.819 162.111 287.557 161.365C287.295 160.62 287.054 159.282 286.831 157.353C286.696 156.18 286.561 155.36 286.426 154.89C286.244 154.267 285.995 153.758 285.684 153.366C285.372 152.974 285.021 152.71 284.633 152.574C284.244 152.436 283.685 152.391 282.954 152.434L282.538 148.855Z" fill="#3F4261"/>
<path d="M299.336 150.522C300.552 150.522 301.538 149.537 301.538 148.321C301.538 147.105 300.552 146.119 299.336 146.119C298.12 146.119 297.135 147.105 297.135 148.321C297.135 149.537 298.12 150.522 299.336 150.522Z" fill="#3F4261"/>
<path d="M306.831 149.694C308.047 149.694 309.033 148.708 309.033 147.493C309.033 146.277 308.047 145.291 306.831 145.291C305.616 145.291 304.63 146.277 304.63 147.493C304.63 148.708 305.616 149.694 306.831 149.694Z" fill="#3F4261"/>
<path d="M314.328 148.864C315.544 148.864 316.53 147.878 316.53 146.662C316.53 145.447 315.544 144.461 314.328 144.461C313.112 144.461 312.126 145.447 312.126 146.662C312.126 147.878 313.112 148.864 314.328 148.864Z" fill="#3F4261"/>
<path d="M56.9461 212.321C69.3322 212.321 79.3732 211.25 79.3732 209.93C79.3732 208.609 69.3322 207.538 56.9461 207.538C44.5599 207.538 34.519 208.609 34.519 209.93C34.519 211.25 44.5599 212.321 56.9461 212.321Z" fill="#BED0E2"/>
<path d="M56.9473 211.248C56.271 211.248 55.7222 210.7 55.7222 210.023V38.148C55.7222 37.4705 56.271 36.9229 56.9473 36.9229C57.6236 36.9229 58.1724 37.4705 58.1724 38.148V210.023C58.1724 210.7 57.6223 211.248 56.9473 211.248Z" fill="#BED0E2"/>
<path d="M76.3704 54.1616C76.3704 54.7742 67.6719 55.2642 56.9521 55.2642C46.2201 55.2642 37.5217 54.7742 37.5217 54.1616C37.5217 53.5625 46.2201 53.0713 56.9521 53.0713C67.6707 53.0713 76.3704 53.5613 76.3704 54.1616Z" fill="#3F4261"/>
<path opacity="0.34" d="M42.5484 51.5762L0 211.246H112.602L71.7198 51.5762H42.5484Z" fill="url(#paint0_linear_944_669)"/>
<path d="M76.3704 54.1596C76.3704 53.5605 67.6719 53.0693 56.9521 53.0693C46.2201 53.0693 37.5217 53.5593 37.5217 54.1596L44.6152 26.2881H69.2769L76.3704 54.1596Z" fill="#BED0E2"/>
<path d="M56.9461 27.1571C63.7589 27.1571 69.2818 26.7682 69.2818 26.2885C69.2818 25.8088 63.7589 25.4199 56.9461 25.4199C50.1332 25.4199 44.6104 25.8088 44.6104 26.2885C44.6104 26.7682 50.1332 27.1571 56.9461 27.1571Z" fill="#E4EAEF"/>
<path d="M220.863 100.213C220.907 100.179 220.955 100.153 220.998 100.114C221.622 99.5482 220.615 98.3378 219.989 98.9063C219.945 98.9455 219.891 98.9651 219.845 98.9994C219.842 98.5583 219.392 97.985 218.615 98.3231C218.391 98.4211 215.222 99.8472 212.259 99.4184C212.842 99.0668 213.821 98.4946 214.593 98.3317C215.41 98.1589 215.219 96.8505 214.398 97.033C214.27 97.0624 213.211 97.3246 213.078 97.4055C209.395 98.5608 205.922 101.01 203.16 103.73C202.676 104.138 202.206 104.566 201.761 105.034C201.602 105.202 201.606 105.493 201.683 105.691C202.081 106.703 203.462 108.674 204.159 109.5C204.229 109.583 204.316 109.635 204.406 109.675C204.144 110.313 205.052 110.933 205.515 110.304C206.751 108.62 209.437 105.913 209.464 105.893C213.149 105.614 216.713 105.282 220.104 103.754C220.787 103.445 220.473 102.29 219.849 102.323C219.843 102.318 219.838 102.312 219.831 102.307C219.842 102.302 219.85 102.296 219.86 102.291C220.068 102.218 220.963 101.718 221.21 101.526C221.687 101.158 221.298 100.358 220.863 100.213Z" fill="#EA3E72"/>
<path d="M212.823 101.125C212.791 101.125 212.758 101.125 212.726 101.125C212.642 101.124 212.573 101.054 212.574 100.971C212.576 100.887 212.644 100.819 212.728 100.819H212.729C212.759 100.819 212.791 100.819 212.823 100.819C216.127 100.819 219.735 98.8859 219.772 98.865C219.847 98.8271 219.94 98.8528 219.979 98.9276C220.018 99.0023 219.991 99.0954 219.918 99.1358C219.881 99.1542 216.206 101.125 212.823 101.125Z" fill="#2A2B3C"/>
<path d="M213.387 102.813C213.29 102.813 213.197 102.81 213.104 102.805C213.019 102.8 212.954 102.728 212.959 102.642C212.964 102.559 213.031 102.492 213.121 102.499C215.886 102.663 220.742 100.103 220.79 100.076C220.865 100.037 220.957 100.064 220.997 100.14C221.037 100.215 221.008 100.308 220.934 100.347C220.74 100.453 216.256 102.813 213.387 102.813Z" fill="#2A2B3C"/>
<path d="M213.568 104.162C213.485 104.162 213.416 104.095 213.415 104.011C213.414 103.928 213.481 103.857 213.566 103.856C215.674 103.82 219.751 102.197 219.793 102.18C219.869 102.149 219.959 102.186 219.993 102.264C220.023 102.343 219.985 102.433 219.907 102.464C219.738 102.531 215.736 104.124 213.572 104.162C213.57 104.162 213.568 104.162 213.568 104.162Z" fill="#2A2B3C"/>
<path d="M145.68 87.9367C159.197 82.8316 172.432 100.566 179.209 109.864C185.987 119.161 181.305 126.001 176.552 124.918C161.632 121.523 137.489 91.0301 145.68 87.9367Z" fill="#2483E2"/>
<path d="M202.772 97.0263C192.512 99.1201 179.664 106.031 172.158 109.918C166.478 112.859 175.874 125.229 177.999 125.004C180.125 124.78 199.841 120.449 209.667 110.791C209.667 110.792 204.781 96.6159 202.772 97.0263Z" fill="#2483E2"/>
<path d="M158.906 90.8486C158.906 90.8486 165.651 104.398 171.545 117.467C173.928 122.751 177.999 125.007 177.999 125.007C177.999 125.007 166.897 123.611 164.53 121.016C159.665 115.679 158.906 90.8486 158.906 90.8486Z" fill="#17171D"/>
<path d="M86.6541 177.215C88.7858 187.948 94.2622 198.348 103.071 205.05C113.509 213.014 126.998 213.541 139.616 213.577C154.33 213.626 162.894 214.827 177.227 211.017C187.457 208.296 193.963 200.173 196.572 191.586C197.197 189.553 197.601 187.507 197.785 185.485C200.1 160.188 184.113 145.217 170.955 139.312C163.763 135.649 157.589 130.577 152.786 123.961C148.192 117.639 144.823 110.387 139.138 104.887C130.697 96.7277 119.463 95.5639 109.919 101.885C109.319 102.276 108.743 102.694 108.167 103.147C98.4521 110.719 94.4459 123.642 90.9421 134.938C86.7142 148.487 83.8364 163.064 86.6541 177.215Z" fill="#EDF1F4"/>
<path d="M86.6541 177.216C88.7858 187.949 94.2622 198.349 103.071 205.052C113.509 213.015 126.998 213.542 139.616 213.579C154.33 213.628 162.894 214.828 177.227 211.018C187.457 208.297 193.963 200.175 196.572 191.588C194.453 191.833 192.113 192.888 190.581 193.438C183.304 196.023 176.541 198.401 168.725 198.719C160.566 199.05 152.309 198.191 144.223 197.272C135.512 196.28 126.03 195.374 117.576 192.851C101.564 188.035 96.1243 165.31 95.8671 150.695C95.573 133.763 101.478 117.591 109.699 103.013C109.919 102.621 109.981 102.241 109.919 101.886C109.319 102.277 108.743 102.694 108.167 103.148C98.4521 110.719 94.4459 123.643 90.9421 134.938C86.7142 148.488 83.8364 163.066 86.6541 177.216Z" fill="#E4EAEF"/>
<path d="M123.045 153.639C123.045 153.639 115.818 141.207 105.711 136.452C105.711 136.452 121.638 143.949 128.376 155.587L123.045 153.639Z" fill="#17171D"/>
<path d="M211.587 212.682C210.848 211.354 210.488 210.239 210.471 207.99C210.461 207.967 210.468 207.951 210.468 207.951C210.462 206.201 209.896 201.778 209.824 200.073C212.057 198.498 215.919 200.669 219.193 200.416C219.507 202.732 219.99 205.068 220.749 206.165C220.868 206.344 221.008 206.511 221.172 206.671C223.305 208.813 228.177 209.172 230.507 210.337C231.147 210.627 231.588 210.989 231.746 211.447C232.58 213.778 213.385 215.863 211.587 212.682Z" fill="#E93E72"/>
<path d="M231.599 211.2C231.668 211.281 231.698 211.354 231.73 211.45C232.679 213.927 213.063 216.14 211.336 213.065L211.322 213.052C211.198 212.9 211.098 212.72 211.009 212.528C210.238 210.921 210.439 208.344 210.473 207.98C210.46 207.969 210.471 207.956 210.471 207.956C216.089 209.54 221.166 206.662 221.166 206.662C223.039 208.545 227.009 209.062 229.525 209.926C230.515 210.201 231.268 210.617 231.599 211.2Z" fill="#FFC32E"/>
<path d="M231.599 211.199C231.668 211.28 231.698 211.354 231.73 211.449C232.679 213.926 213.063 216.139 211.336 213.064L211.322 213.052C211.198 212.9 211.098 212.72 211.009 212.527C212.187 212.984 214.58 213.696 217.954 213.587C222.321 213.452 226.884 213.115 231.599 211.199Z" fill="#2A2B3B"/>
<path d="M209.823 148.917C205.294 139.633 157.673 136.406 151.407 135.763C146.982 135.315 141.351 138.18 137.109 139.812C129.133 142.887 126.438 148.018 130.765 157.831C133.551 164.124 144.392 163.452 152.148 163.798C161.722 164.232 187.378 159.961 188.082 159.939C196.474 159.665 213.855 157.183 209.823 148.917Z" fill="#343751"/>
<path d="M180.056 161.66C181.51 163.36 183.027 165.029 184.564 166.665C189.282 171.733 192.904 167.742 195.814 174.032C200.092 183.279 204.357 202.928 204.393 202.183C207.007 202.639 216.48 202.005 223.174 199.496C223.174 183.723 213.567 151.649 208.367 146.941C202.254 141.402 175.794 156.653 180.056 161.66Z" fill="#343751"/>
<path d="M167.876 139.89C167.876 139.89 195.117 143.08 199.478 151.822C204.445 161.775 199.478 184.782 199.478 184.782L193.699 157.533L167.876 139.89Z" fill="#17171D"/>
<path d="M124.086 155.591C126.5 163.26 137.391 162.807 145.085 163.799C157.496 165.392 167.578 165.906 175.456 165.588C179.29 165.441 182.61 165.098 185.416 164.583C193.502 163.113 197.373 160.271 197.373 156.779C197.373 155.836 197.189 154.941 196.834 154.084C196.808 154.035 196.797 153.999 196.773 153.961C196.663 153.728 196.565 153.508 196.454 153.287C196.442 153.251 196.418 153.226 196.405 153.189C196.405 153.189 196.405 153.176 196.393 153.176C189.594 141.023 149.275 137.445 143.578 136.454C139.18 135.695 135.848 132.62 131.511 134.359C129.489 135.168 127.786 136.148 126.439 137.347C124.748 138.817 123.584 140.632 122.984 142.86C122.103 146.119 122.42 150.26 124.086 155.591Z" fill="#3F4261"/>
<path d="M172.588 155.878C172.668 156.303 172.766 157.403 172.864 158.895C173.29 164.986 175.024 175.199 175.396 178.24C176.514 187.051 173.751 198.165 173.694 201.894C179.838 200.965 186.271 201.083 191.81 201.528C194.391 201.722 196.763 201.989 198.833 202.255C200.074 192.428 199.53 167.32 197.189 155.187C197.177 155.133 183.315 150.394 176.627 152.259C173.96 152.991 172.236 154.143 172.588 155.878Z" fill="#3F4261"/>
<path d="M124.086 155.591C126.5 163.261 137.391 162.807 145.085 163.8C157.496 165.392 164.664 165.996 172.541 165.678C174.465 171.471 174.374 178.852 174.484 184.154C174.67 193.034 172.823 198.267 173.693 201.892C178.857 201.219 183.777 201.19 188.849 201.106C188.31 199.869 181.961 173.62 181.214 168.929C180.055 161.657 178.559 157.837 170.225 157.267C165.194 156.923 160.276 155.563 155.388 154.352C150.463 153.126 145.587 151.718 140.711 150.284C136.068 148.924 127.26 146.119 130.09 139.405C130.273 138.989 129.979 138.609 129.648 138.511C129.612 138.426 129.538 138.352 129.44 138.29C128.485 137.69 127.468 137.384 126.439 137.346C124.748 138.816 123.584 140.63 122.984 142.859C122.103 146.12 122.42 150.261 124.086 155.591Z" fill="#343751"/>
<path d="M188.85 201.329C188.739 201.329 188.644 201.246 188.63 201.133C188.595 200.829 185.096 170.649 183.486 162.425C182.256 156.138 176.834 155.639 164.955 154.548C162.747 154.344 160.246 154.114 157.538 153.824C140.5 151.992 134.694 136.984 134.637 136.834C134.594 136.718 134.653 136.592 134.767 136.549C134.879 136.506 135.008 136.564 135.051 136.678C135.106 136.827 140.825 151.583 157.585 153.384C160.29 153.674 162.789 153.904 164.995 154.108C177.1 155.22 182.625 155.727 183.919 162.342C185.532 170.582 189.034 200.779 189.069 201.083C189.083 201.204 188.995 201.313 188.874 201.326C188.866 201.328 188.857 201.329 188.85 201.329Z" fill="#2A2B3C"/>
<path d="M123.061 139.112C123.061 139.112 123.087 94.2907 135.849 86.9069C144.065 82.1534 156.742 86.3348 159.572 92.5743C165.093 104.743 174.438 137.285 174.438 137.285C174.438 137.285 144.323 145.248 123.061 139.112Z" fill="#4093F6"/>
<path d="M150.043 79.2882C150.043 79.2882 149.895 84.1642 149.731 85.2607C149.68 85.5952 148.994 86.6353 148.412 87.0298C146.365 85.5621 144.671 85.9076 144.026 85.2607C144.524 83.891 144.781 81.8879 144.781 79.2882C144.782 76.827 150.043 79.2882 150.043 79.2882Z" fill="#E93E72"/>
<path d="M144.116 75.3307C144.116 75.3307 145.257 81.9574 149.443 82.0885C153.629 82.2171 151.007 73.0655 150.379 72.8143C149.749 72.5607 145.668 71.6713 144.116 75.3307Z" fill="#E93E72"/>
<path d="M148.412 87.0313L147.541 84.0947L144.28 84.4329L141.536 85.0062L148.412 87.0313Z" fill="#F2F8FF"/>
<path d="M148.412 87.0313L149.502 84.0947L150.85 85.7535L148.412 87.0313Z" fill="#F2F8FF"/>
<path d="M148.206 70.071C146.763 70.316 145.387 70.082 144.061 70.588C142.871 71.04 142.138 71.8964 141.847 73.1534C141.191 75.9736 142.344 79.8536 145.523 80.3449C145.94 80.4098 146.238 80.0422 146.213 79.6551C146.151 78.6444 146.045 77.6471 145.895 76.645C145.88 76.5543 145.849 76.4772 145.809 76.411C145.989 75.6147 146.097 74.7816 145.962 74.0281C148.656 74.5047 151.302 75.3378 152.241 72.1169C153.136 69.0492 150.022 69.7622 148.206 70.071Z" fill="#17171D"/>
<path d="M146.274 76.541C146.274 76.541 145.64 75.3196 144.482 75.4935C143.324 75.6687 143.058 78.4252 145.016 78.6641C146.974 78.9042 146.274 76.541 146.274 76.541Z" fill="#E93E72"/>
<path d="M173.692 201.888C173.269 200.863 197.926 200.715 198.833 202.249C200.064 204.337 174.923 204.878 173.692 201.888Z" fill="#17171D"/>
<path d="M181.505 211.274C181.104 209.809 181.018 208.642 181.535 206.451C181.531 206.425 181.541 206.412 181.541 206.412C181.95 204.711 182.451 202.866 182.786 201.195C186.149 201.036 189.443 201.163 191.79 201.244C191.545 203.567 191.476 205.872 191.953 207.118C192.026 207.32 192.122 207.517 192.244 207.709C193.807 210.297 198.456 211.802 200.443 213.487C200.996 213.921 201.338 214.379 201.383 214.86C201.64 217.32 182.498 214.79 181.505 211.274Z" fill="#E93E72"/>
<path d="M201.299 214.584C201.346 214.68 201.359 214.758 201.367 214.86C201.701 217.49 182.121 214.986 181.171 211.588L181.161 211.573C181.078 211.395 181.022 211.198 180.981 210.99C180.615 209.245 181.42 206.789 181.541 206.444C181.53 206.43 181.545 206.42 181.545 206.42C186.627 209.292 192.241 207.703 192.241 207.703C193.614 209.975 197.346 211.42 199.587 212.857C200.483 213.357 201.115 213.94 201.299 214.584Z" fill="#FFD357"/>
<path d="M201.299 214.584C201.346 214.679 201.359 214.758 201.367 214.859C201.7 217.49 182.121 214.986 181.171 211.587L181.161 211.572C181.078 211.395 181.022 211.198 180.981 210.989C182.018 211.713 184.173 212.972 187.477 213.667C191.75 214.572 196.263 215.326 201.299 214.584Z" fill="#2A2B3B"/>
<path d="M107.702 173.913C111.708 190.016 122.897 188.426 138.125 188.468C152.485 188.509 154.716 172.965 153.797 172.895C144.302 159.875 129.982 152.571 109.233 152.941C103.975 153.035 106.236 168.027 107.702 173.913Z" fill="#EDF1F4"/>
<path d="M153.797 172.894C153.797 172.894 135.944 152.707 109.233 152.94C109.233 152.939 135.072 148.168 153.797 172.894Z" fill="#17171D"/>
<path d="M137.223 87.7441C137.223 87.7441 144.974 92.38 144.116 110.785C143.556 122.796 167.342 138.845 167.342 138.845C167.342 138.845 149.288 145.368 123.06 139.115L124.091 110.503L137.223 87.7441Z" fill="#2483E2"/>
<path d="M139.732 91.4277L131.291 122.213L156.774 131.776C156.774 131.776 139.222 119.115 139.119 117.584C139.016 116.053 147.255 99.7647 139.732 91.4277Z" fill="#17171D"/>
<path d="M211.115 146.735L171.521 148.034L171.578 149.768L211.172 148.469L211.115 146.735Z" fill="#AABFCE"/>
<path d="M171.545 149.705L153.56 147.529L153.502 145.796L171.487 147.972L171.545 149.705Z" fill="#BED0E2"/>
<path d="M153.502 145.796L198.387 143.004L211.079 146.671L171.487 147.972L153.502 145.796Z" fill="#DCE8EF"/>
<path d="M209.964 146.707L170.606 147.581L174.924 123.508L213.796 122.211L215.161 123.097L209.964 146.707Z" fill="#DCE8EF"/>
<path d="M210.923 146.676L171.488 147.973L175.544 124.813L215.161 123.098L210.923 146.676Z" fill="#BED0E2"/>
<path d="M166.043 147.308C164.958 144.688 163.491 142.622 161.519 140.968C161.531 140.903 161.524 140.845 161.53 140.781C163.227 141.39 164.826 142.32 166.306 144.008C167.056 144.863 168.297 143.09 167.554 142.242C164.878 139.192 161.783 137.837 157.857 137.46C152.347 136.927 146.535 134.933 142.208 131.485C142.091 131.391 141.967 131.351 141.841 131.339C141.527 131.203 141.122 131.262 140.777 131.681C138.665 134.251 136.554 136.821 134.442 139.393C133.999 139.932 134.173 140.799 134.648 140.992C139.15 142.806 143.871 144.304 148.662 145.313C149.988 145.592 151.218 145.674 152.624 145.613C154.265 145.542 156.224 145.049 157.725 145.696C159.528 146.474 160.459 148.434 161.373 150.238C161.815 151.11 162.898 150.331 162.995 149.438C163 149.447 163.006 149.456 163.011 149.466C163.41 150.294 164.39 149.667 164.602 148.843C165.144 149.658 166.479 148.361 166.043 147.308Z" fill="#EA3E72"/>
<path d="M163.741 143.517C163.653 143.517 163.568 143.468 163.525 143.384C163.249 142.835 161.87 141.586 161.362 141.153C161.26 141.067 161.249 140.915 161.336 140.813C161.423 140.712 161.575 140.699 161.675 140.788C161.753 140.854 163.58 142.421 163.957 143.169C164.017 143.288 163.969 143.433 163.85 143.493C163.815 143.509 163.778 143.517 163.741 143.517Z" fill="#2A2B3C"/>
<path d="M164.603 149.084C164.507 149.084 164.416 149.026 164.378 148.93C164.363 148.891 162.806 144.945 159.877 142.573C159.774 142.49 159.758 142.338 159.841 142.233C159.923 142.131 160.076 142.115 160.181 142.198C163.211 144.654 164.763 148.591 164.828 148.757C164.875 148.882 164.814 149.022 164.69 149.07C164.662 149.078 164.633 149.084 164.603 149.084Z" fill="#2A2B3C"/>
<path d="M162.996 149.678C162.904 149.678 162.817 149.625 162.777 149.537C162.758 149.498 160.938 145.557 158.859 144.394C158.742 144.329 158.702 144.182 158.766 144.066C158.829 143.949 158.978 143.909 159.094 143.972C161.31 145.212 163.138 149.168 163.215 149.336C163.27 149.457 163.216 149.601 163.096 149.656C163.063 149.672 163.029 149.678 162.996 149.678Z" fill="#2A2B3C"/>
<path d="M137.223 87.7429C146.937 98.4382 138.421 117.39 132.263 127.11C126.104 136.829 114.039 127.901 113.978 124.511C113.917 121.12 131.338 81.2595 137.223 87.7429Z" fill="#4093F6"/>
<path d="M157.679 132.487C149.575 125.855 130.509 117.633 124.14 117.068C117.77 116.504 114.616 129.62 116.132 131.127C117.649 132.634 137.513 146.627 151.209 148.147C151.209 148.146 159.266 133.786 157.679 132.487Z" fill="#4093F6"/>
<path d="M131.446 89.8818C131.446 89.8818 114.718 112.332 113.826 124.556C112.934 136.781 141.816 144.762 144.116 146.512C144.116 146.512 116.66 131.101 117.809 124.809C118.958 118.517 131.446 89.8818 131.446 89.8818Z" fill="#2483E2"/>
<path d="M192.068 14.8262H254.281C259.216 14.8262 263.217 18.8286 263.217 23.7634V57.8635C263.217 62.7995 259.216 66.8007 254.281 66.8007H215.377L205.949 79.493C204.947 80.8443 202.802 80.1325 202.804 78.4504L202.819 66.7995H192.07C187.133 66.7995 183.134 62.7982 183.134 57.8622V23.7622C183.132 18.8287 187.132 14.8262 192.068 14.8262Z" fill="#EDF1F4"/>
<path d="M239.905 28.3781H217.032C216.726 28.3781 216.476 28.1293 216.476 27.8218C216.476 27.5143 216.725 27.2656 217.032 27.2656H239.905C240.212 27.2656 240.462 27.5143 240.462 27.8218C240.462 28.1293 240.212 28.3781 239.905 28.3781Z" fill="#2A2B3C"/>
<path d="M212.87 28.3781H203.608C203.301 28.3781 203.052 28.1293 203.052 27.8218C203.052 27.5143 203.3 27.2656 203.608 27.2656H212.87C213.176 27.2656 213.426 27.5143 213.426 27.8218C213.426 28.1293 213.176 28.3781 212.87 28.3781Z" fill="#2A2B3C"/>
<path d="M239.906 37.4102H227.722C227.415 37.4102 227.166 37.1615 227.166 36.854C227.166 36.5465 227.414 36.2979 227.722 36.2979H239.906C240.212 36.2979 240.462 36.5465 240.462 36.854C240.462 37.1615 240.212 37.4102 239.906 37.4102Z" fill="#2A2B3C"/>
<path d="M224.105 37.4102H203.608C203.301 37.4102 203.052 37.1615 203.052 36.854C203.052 36.5465 203.3 36.2979 203.608 36.2979H224.105C224.412 36.2979 224.661 36.5465 224.661 36.854C224.661 37.1615 224.413 37.4102 224.105 37.4102Z" fill="#2A2B3C"/>
<path d="M243.227 46.0743H224.83C224.524 46.0743 224.274 45.8256 224.274 45.5181C224.274 45.2106 224.523 44.9619 224.83 44.9619H243.227C243.533 44.9619 243.783 45.2106 243.783 45.5181C243.783 45.8256 243.533 46.0743 243.227 46.0743Z" fill="#2A2B3C"/>
<path d="M221.483 46.0743H214.034C213.727 46.0743 213.478 45.8256 213.478 45.5181C213.478 45.2106 213.726 44.9619 214.034 44.9619H221.483C221.789 44.9619 222.039 45.2106 222.039 45.5181C222.039 45.8256 221.79 46.0743 221.483 46.0743Z" fill="#2A2B3C"/>
<path d="M243.227 54.4923H233.428C233.121 54.4923 232.871 54.2436 232.871 53.9361C232.871 53.6286 233.12 53.3799 233.428 53.3799H243.227C243.534 53.3799 243.784 53.6286 243.784 53.9361C243.784 54.2436 243.534 54.4923 243.227 54.4923Z" fill="#2A2B3C"/>
<path d="M230.52 54.4923H214.034C213.727 54.4923 213.478 54.2436 213.478 53.9361C213.478 53.6286 213.726 53.3799 214.034 53.3799H230.52C230.826 53.3799 231.076 53.6286 231.076 53.9361C231.076 54.2436 230.826 54.4923 230.52 54.4923Z" fill="#2A2B3C"/>
<path d="M254.458 49.5959C253.965 49.6228 253.594 49.6975 253.344 49.8188C253.094 49.9413 252.881 50.1459 252.702 50.4314C252.523 50.7181 252.397 51.0782 252.323 51.5107C252.269 51.8341 252.242 52.394 252.242 53.1904C252.242 54.5 252.183 55.414 252.064 55.9334C251.945 56.4541 251.728 56.8706 251.411 57.1843C251.094 57.4979 250.628 57.7466 250.014 57.9279C249.603 58.0492 248.955 58.1092 248.071 58.1092H247.535V55.681C248.256 55.681 248.729 55.6345 248.952 55.545C249.175 55.4531 249.338 55.3208 249.444 55.1506C249.548 54.9766 249.602 54.6862 249.605 54.2746C249.608 53.8617 249.637 53.0752 249.691 51.915C249.725 51.2142 249.817 50.6519 249.964 50.2292C250.112 49.8078 250.31 49.4501 250.556 49.1573C250.802 48.8632 251.118 48.6047 251.503 48.3818C251.003 48.0571 250.639 47.741 250.409 47.4311C250.092 46.9864 249.876 46.4191 249.761 45.7294C249.686 45.2577 249.633 44.2188 249.599 42.6115C249.593 42.1055 249.548 41.7685 249.463 41.5995C249.379 41.4304 249.227 41.3006 249.007 41.2099C248.788 41.1192 248.297 41.0739 247.535 41.0739V38.6543H248.071C248.983 38.6543 249.681 38.7254 250.166 38.8662C250.653 39.0084 251.061 39.2497 251.391 39.5903C251.723 39.9309 251.946 40.3511 252.065 40.846C252.183 41.341 252.243 42.1226 252.243 43.1897C252.243 44.4246 252.293 45.2308 252.395 45.6093C252.543 46.1484 252.77 46.5355 253.074 46.7671C253.377 46.9998 253.839 47.1334 254.46 47.1677V49.5959H254.458Z" fill="#EA3E72"/>
<path d="M191.202 31.454C191.822 31.4197 192.285 31.2862 192.589 31.0534C192.893 30.8219 193.12 30.4335 193.268 29.8945C193.37 29.5171 193.42 28.711 193.42 27.4748C193.42 26.409 193.479 25.6274 193.597 25.1312C193.716 24.6362 193.939 24.2172 194.271 23.8767C194.602 23.5361 195.01 23.2947 195.496 23.1526C195.982 23.0117 196.681 22.9395 197.591 22.9395H198.128V25.3603C197.365 25.3603 196.875 25.4056 196.655 25.4963C196.436 25.5869 196.284 25.718 196.198 25.8859C196.115 26.0549 196.07 26.3918 196.062 26.8978C196.029 28.5052 195.975 29.5429 195.901 30.0158C195.787 30.7043 195.57 31.2703 195.254 31.7162C195.024 32.0274 194.66 32.3447 194.16 32.6682C194.545 32.8911 194.861 33.1496 195.106 33.4424C195.352 33.7352 195.549 34.0942 195.699 34.5156C195.847 34.9371 195.938 35.4994 195.972 36.2014C196.026 37.3616 196.054 38.1481 196.058 38.5598C196.061 38.9714 196.115 39.263 196.219 39.4357C196.323 39.6085 196.488 39.7395 196.709 39.8302C196.932 39.9208 197.404 39.9662 198.127 39.9662V42.3956H197.59C196.706 42.3956 196.059 42.3344 195.646 42.2143C195.032 42.0317 194.567 41.783 194.249 41.4694C193.932 41.1558 193.715 40.7392 193.596 40.2198C193.479 39.7003 193.419 38.7852 193.419 37.4767C193.419 36.6804 193.392 36.1205 193.338 35.7971C193.263 35.3634 193.136 35.0057 192.957 34.7178C192.778 34.4311 192.565 34.2277 192.315 34.1052C192.065 33.9839 191.694 33.9104 191.201 33.8822V31.454H191.202Z" fill="#EA3E72"/>
<defs>
<linearGradient id="paint0_linear_944_669" x1="56.3013" y1="211.246" x2="56.3013" y2="51.5763" gradientUnits="userSpaceOnUse">
<stop stop-color="white" stop-opacity="0"/>
<stop offset="1" stop-color="#F8CB3D"/>
</linearGradient>
</defs>
</svg>
