<svg width="340" height="180" viewBox="0 0 340 180" fill="none" xmlns="http://www.w3.org/2000/svg">
<path d="M169.564 118.639C170.882 120.966 172.584 123.01 174.567 124.705L172.344 129.925L180.252 134.131L183.338 129.369C185.853 130.064 188.489 130.337 191.165 130.126L193.285 135.388L201.859 132.768L200.675 127.218C203.003 125.899 205.045 124.197 206.741 122.214L211.961 124.438L216.167 116.529L211.405 113.445C212.101 110.931 212.37 108.285 212.162 105.618L217.424 103.497L214.803 94.9247L209.254 96.1088C207.933 93.7708 206.234 91.7366 204.251 90.0424L206.474 84.8221L198.566 80.6169L195.481 85.3785C192.967 84.6823 190.321 84.4137 187.654 84.6219L185.532 79.3594L176.96 81.9791L178.143 87.5294C175.806 88.8503 173.773 90.5495 172.076 92.5333L166.856 90.31L162.651 98.2174L167.413 101.303C166.717 103.817 166.446 106.453 166.657 109.13L161.394 111.251L164.015 119.823L169.564 118.639ZM173.937 112.103C171.326 103.558 176.136 94.5132 184.68 91.9006C193.224 89.2889 202.269 94.0997 204.881 102.644C207.493 111.188 202.683 120.232 194.139 122.845C185.594 125.458 176.549 120.647 173.937 112.103Z" fill="#EDF1F4"/>
<path d="M1.29465 53.3887C1.25642 53.3635 1.21416 53.3454 1.17694 53.3182C0.622616 52.9007 1.3369 51.8313 1.89324 52.2508C1.93147 52.279 1.97775 52.2911 2.01799 52.3162C1.98378 51.9541 2.29967 51.45 2.95963 51.6683C3.14977 51.7317 5.84292 52.6613 8.21011 52.0858C7.70709 51.8414 6.86404 51.446 6.2242 51.3716C5.54614 51.2921 5.59141 50.2056 6.27249 50.2931C6.38013 50.3082 7.26041 50.442 7.3761 50.4983C10.4626 51.1673 11.8539 51.4842 14.2211 53.6251C15.8841 55.1301 17.198 59.6079 17.5994 59.959C17.7433 60.0838 12.9676 62.2015 12.5381 61.7196C11.3922 60.4329 11.0501 57.1955 11.027 57.1824C8.01292 57.2317 5.0914 57.2287 2.21114 56.2327C1.62965 56.0315 1.78861 55.0607 2.29666 55.0396C2.30169 55.0355 2.30471 55.0295 2.30974 55.0255C2.30068 55.0224 2.29263 55.0174 2.28458 55.0144C2.10954 54.9701 1.34193 54.6281 1.12463 54.4903C0.707129 54.2237 0.953605 53.5375 1.29465 53.3887Z" fill="#EA3E72"/>
<path d="M6.54131 53.4709C4.12282 53.4709 2.04939 52.5021 1.95181 52.4559C1.87434 52.4196 1.84215 52.3271 1.87837 52.2506C1.91358 52.1732 2.00512 52.1359 2.0846 52.1772C2.10975 52.1893 4.70732 53.3995 7.39141 53.1188C7.4729 53.1249 7.55237 53.1722 7.56143 53.2577C7.57048 53.3422 7.50912 53.4176 7.42361 53.4277C7.12683 53.4569 6.83206 53.4709 6.54131 53.4709Z" fill="#2A2B3C"/>
<path d="M6.44051 54.9784C4.19203 54.9784 1.35804 53.5921 1.22625 53.5277C1.14979 53.4905 1.11861 53.3969 1.15583 53.3205C1.19406 53.245 1.28762 53.2138 1.36307 53.2511C1.39828 53.2682 4.86607 54.9694 7.07934 54.6243C7.17089 54.6112 7.24332 54.6696 7.25539 54.7541C7.26847 54.8386 7.21113 54.9171 7.12662 54.9311C6.9063 54.9633 6.67692 54.9784 6.44051 54.9784Z" fill="#2A2B3C"/>
<path d="M6.69283 56.124C4.91517 56.124 2.35885 55.2276 2.24417 55.1864C2.16368 55.1582 2.12143 55.0697 2.1496 54.9902C2.17877 54.9087 2.2663 54.8624 2.34678 54.8956C2.37595 54.9067 5.30753 55.9318 7.00973 55.8031C7.09323 55.797 7.16869 55.8604 7.17573 55.9459C7.18176 56.0314 7.11839 56.1049 7.03287 56.1119C6.92523 56.1199 6.81054 56.124 6.69283 56.124Z" fill="#2A2B3C"/>
<path d="M9.13243 54.7324C9.09722 54.7324 9.06302 54.7213 9.03384 54.6972C8.12137 53.9447 8.05799 52.166 8.05498 52.0916C8.05296 52.006 8.11936 51.9346 8.20487 51.9326C8.20688 51.9326 8.20789 51.9326 8.2099 51.9326C8.2934 51.9326 8.36181 51.998 8.36483 52.0815C8.36483 52.0996 8.42721 53.7948 9.23002 54.4588C9.29541 54.5131 9.30547 54.6097 9.25114 54.6761C9.21996 54.7133 9.1767 54.7324 9.13243 54.7324Z" fill="#2A2B3C"/>
<path d="M130.395 100.46H127.251L136.054 77.5771H139.198L130.395 100.46Z" fill="#BED0E2"/>
<path d="M130.395 100.461H96.8477V103.224H130.395V100.461Z" fill="#BED0E2"/>
<path d="M55.738 170.89C55.6112 169.648 55.6987 168.691 56.415 166.987C56.415 166.966 56.4251 166.956 56.4251 166.956C56.9864 165.635 57.9925 162.112 58.4895 160.803C60.6856 160.338 62.8959 163.227 65.4492 164.096C64.9371 165.944 64.5448 167.864 64.7621 168.938C64.7932 169.111 64.8456 169.284 64.917 169.457C65.8335 171.765 69.3938 173.613 70.7751 175.247C71.1634 175.674 71.3797 176.09 71.3506 176.486C71.2268 178.513 56.0659 173.871 55.738 170.89Z" fill="#EA3E72"/>
<path d="M71.3204 176.251C71.3455 176.334 71.3445 176.397 71.3385 176.482C71.253 178.658 55.7329 173.978 55.4251 171.097L55.419 171.083C55.3748 170.929 55.3567 170.761 55.3516 170.587C55.2903 169.125 56.2762 167.245 56.42 166.981C56.414 166.968 56.4261 166.962 56.4261 166.962C60.1534 169.976 64.915 169.449 64.915 169.449C65.7188 171.477 68.5477 173.152 70.1664 174.619C70.8264 175.145 71.26 175.702 71.3204 176.251Z" fill="#FFD357"/>
<path d="M71.3203 176.251C71.3454 176.334 71.3444 176.398 71.3384 176.482C71.2529 178.658 55.7328 173.978 55.425 171.097L55.419 171.083C55.3747 170.929 55.3566 170.761 55.3516 170.587C56.093 171.314 57.6685 172.625 60.2499 173.634C63.5889 174.947 67.1422 176.17 71.3203 176.251Z" fill="#2A2B3B"/>
<path d="M89.6363 119.066C88.4442 109.282 56.053 99.3429 51.2542 97.3811C47.8639 96.0018 42.6627 97.5038 38.88 98.1376C31.7674 99.3348 28.3067 103.621 29.202 113.863C29.7855 120.431 38.5481 122.132 44.6044 124.133C52.0792 126.609 73.5096 128.091 74.073 128.221C80.7923 129.771 90.6967 127.775 89.6363 119.066Z" fill="#4093F6"/>
<path d="M68.6293 114.07C68.083 115.809 67.5861 117.581 67.1203 119.354C65.6575 124.81 64.406 130.33 62.3145 135.573C59.3235 143.103 51.4232 158.508 51.9523 158.218C57.9161 163.513 65.0368 166.736 71.0317 166.067C76.5287 158.503 89.2751 127.843 89.7147 120.765C90.1322 114.04 70.246 108.958 68.6293 114.07Z" fill="#4093F6"/>
<path d="M8.44727 93.5992C8.44727 93.5992 22.5729 90.6566 34.5397 98.6918C46.5074 106.726 50.1824 126.63 50.1824 126.63L12.0187 102.081L8.44727 93.5992Z" fill="#343751"/>
<path d="M61.0259 105.493C61.0259 105.493 84.8638 110.046 86.7551 117.843C88.6455 125.64 79.7059 145.632 79.7059 145.632L82.232 119.981L61.0259 105.493Z" fill="#17171D"/>
<path d="M85.2397 119.358C85.2297 119.338 85.2297 119.318 85.2297 119.297C85.0687 117.989 84.3242 116.743 83.1371 115.555C75.4611 107.86 49.4049 102.739 45.25 101.038C41.8597 99.6594 38.248 97.7379 34.4653 98.3717C30.5217 99.0357 27.7048 100.646 26.1354 103.694C24.8578 106.148 24.3849 109.53 24.7873 114.096C25.3708 120.665 34.1334 122.366 40.1897 124.369C40.572 124.499 40.9945 124.62 41.4472 124.74C41.5981 124.78 41.749 124.82 41.8999 124.86C42.1615 124.931 42.4231 124.991 42.6947 125.052C42.8758 125.102 43.0669 125.142 43.2681 125.182C43.4894 125.233 43.7108 125.283 43.9422 125.332C44.1233 125.362 44.3144 125.403 44.4955 125.443C44.576 125.453 44.6564 125.473 44.7369 125.483C45.0689 125.554 45.421 125.614 45.7731 125.684C47.091 125.915 48.5096 126.147 49.9784 126.348C50.8536 126.479 51.749 126.6 52.6544 126.71C52.8053 126.74 52.9663 126.761 53.1272 126.771C53.8616 126.861 54.596 126.952 55.3204 127.043C56.6483 127.204 57.9662 127.344 59.2238 127.476C59.425 127.496 59.6262 127.516 59.8274 127.536C59.9381 127.547 60.0387 127.558 60.1493 127.567C60.6523 127.617 61.1453 127.667 61.6282 127.717C62.9461 127.847 64.1634 127.958 65.2298 128.049C66.0145 128.119 66.7288 128.179 67.3324 128.24C68.7006 128.36 69.5557 128.43 69.6664 128.451C71.1452 128.793 72.775 128.964 74.4148 128.924C79.0627 128.823 83.7407 127.063 84.9782 122.858C85.2095 122.124 85.3202 121.308 85.3102 120.413C85.3001 120.083 85.28 119.721 85.2397 119.358Z" fill="#4093F6"/>
<path d="M86.085 119.469C85.6927 118.523 85.3405 117.768 85.0387 117.234C85.0085 117.174 84.9784 117.113 84.9381 117.053C84.7872 116.802 84.6162 116.571 84.415 116.379C84.0629 116.037 83.6403 115.765 83.1373 115.554C78.6504 113.684 68.7612 117.154 64.9584 120.847C63.731 122.043 63.1374 123.26 63.5801 124.338C64.1032 125.584 64.6465 126.823 65.23 128.049C65.4111 128.483 65.6223 128.914 65.8235 129.347C65.8437 129.398 65.8738 129.437 65.894 129.489C66.9302 131.722 68.0167 133.945 69.0529 136.169C70.3708 139.016 71.6082 141.883 72.5841 144.861C74.8979 151.772 78.2581 166.138 79.0629 168.524C79.1635 168.795 79.2138 168.916 79.2339 168.856C82.4733 167.689 85.7631 166.341 88.8918 165.204C92.5437 163.856 95.9843 162.779 98.8918 162.578C98.2982 154.247 89.9079 128.422 86.085 119.469Z" fill="#4093F6"/>
<path d="M79.237 168.858C78.734 168.1 97.916 161.491 98.8908 162.582C100.216 164.066 80.7078 171.07 79.237 168.858Z" fill="#17171D"/>
<path d="M85.2048 175.232C84.6465 174.116 84.3909 173.188 84.4583 171.341C84.4513 171.322 84.4573 171.31 84.4573 171.31C84.5157 169.874 84.6263 167.781 84.6294 166.381C85.4996 166.167 88.9855 164.588 91.9905 163.928C92.1645 165.837 92.3728 169.289 92.9563 170.216C93.0468 170.367 93.1565 170.511 93.2852 170.647C94.9573 172.482 98.9422 172.952 100.811 173.992C101.325 174.253 101.675 174.567 101.788 174.948C102.388 176.887 86.566 177.905 85.2048 175.232Z" fill="#EA3E72"/>
<path d="M101.676 174.736C101.729 174.806 101.751 174.866 101.774 174.947C102.463 177.013 86.2913 178.122 84.9845 175.536L84.9734 175.526C84.8778 175.396 84.8014 175.246 84.735 175.085C84.1615 173.739 84.4181 171.632 84.4603 171.335C84.4492 171.325 84.4593 171.315 84.4593 171.315C89.0116 172.816 93.2802 170.64 93.2802 170.64C94.748 172.252 97.9864 172.819 100.02 173.619C100.822 173.877 101.425 174.245 101.676 174.736Z" fill="#FFD357"/>
<path d="M101.675 174.736C101.729 174.806 101.751 174.866 101.774 174.948C102.463 177.013 86.2912 178.122 84.9844 175.536L84.9733 175.526C84.8777 175.396 84.8013 175.246 84.7349 175.085C85.6856 175.503 87.6232 176.173 90.3948 176.205C93.9823 176.25 97.7378 176.138 101.675 174.736Z" fill="#2A2B3B"/>
<path d="M195.194 45.0917C197.676 45.9891 199.777 46.9136 201.876 48.2668C201.395 47.7818 200.684 46.7456 200.143 46.2255C199.462 45.5696 200.546 45.1561 201.609 46.0293C203.201 47.3372 205.988 50.3804 207.091 51.8533C209.199 53.8633 210.099 54.1873 212.808 55.8502C213.867 56.5001 209.589 58.7818 208.69 58.9055C207.615 59.0524 207.548 58.2737 206.901 57.5172C205.573 55.9669 203.708 54.9528 201.569 54.1027C199.574 53.309 198.463 52.2195 196.92 51.2164C195.615 50.5917 196.01 50.1933 196.331 49.7496C196.37 49.6953 196.431 49.6641 196.484 49.6219C196.321 49.4086 196.246 49.1822 196.332 48.968C196.467 48.6289 196.848 48.4911 197.312 48.471C197.167 48.0213 197.387 47.6118 198.084 47.5293C197.605 47.2728 195.339 46.2547 194.853 46.0796C193.845 45.7145 194.183 44.7255 195.194 45.0917Z" fill="#4C5072"/>
<path d="M200.52 50.3304C199.508 50.3304 197.633 48.9189 197.215 48.593C197.147 48.5397 197.134 48.4421 197.188 48.3727C197.242 48.3063 197.341 48.2932 197.408 48.3455C198.544 49.2278 200.326 50.3133 200.749 49.9562C200.807 49.9069 200.83 49.8566 200.822 49.7892C200.757 49.2449 199.065 48.1996 198.013 47.6684C197.935 47.6302 197.905 47.5357 197.943 47.4582C197.983 47.3807 198.078 47.3515 198.154 47.3898C198.447 47.5377 201.027 48.8646 201.131 49.7539C201.152 49.926 201.089 50.0789 200.95 50.1966C200.841 50.2902 200.693 50.3304 200.52 50.3304Z" fill="#2A2B3C"/>
<path d="M199.913 51.4352C199.669 51.4352 199.402 51.3778 199.156 51.2591C198.136 50.7682 196.422 49.7672 196.405 49.7571C196.331 49.7128 196.306 49.6173 196.349 49.5418C196.392 49.4674 196.488 49.4412 196.563 49.4855C196.58 49.4955 198.283 50.4905 199.291 50.9754C199.813 51.2279 200.355 51.1112 200.45 50.914C200.528 50.7541 200.298 50.4422 199.611 50.1062C199.534 50.069 199.502 49.9744 199.539 49.8969C199.577 49.8185 199.671 49.7873 199.748 49.8255C200.859 50.3678 200.842 50.8265 200.733 51.0509C200.612 51.3014 200.288 51.4352 199.913 51.4352Z" fill="#2A2B3C"/>
<path d="M198.513 51.9439C197.77 51.9439 196.382 51.0475 196.08 50.8463C196.008 50.798 195.989 50.7004 196.037 50.629C196.086 50.5556 196.182 50.5374 196.254 50.5847C197.047 51.1119 198.307 51.7819 198.636 51.6099C198.744 51.5535 198.804 51.4891 198.814 51.4187C198.833 51.2859 198.688 51.1189 198.649 51.0817C198.585 51.0224 198.583 50.9238 198.643 50.8594C198.703 50.797 198.802 50.795 198.864 50.8533C198.895 50.8825 199.168 51.1501 199.125 51.461C199.108 51.5827 199.034 51.7557 198.781 51.8875C198.706 51.9268 198.616 51.9439 198.513 51.9439Z" fill="#2A2B3C"/>
<path d="M202.292 52.5411C202.245 52.5411 202.199 52.5199 202.168 52.4797C201.48 51.6004 202.644 50.2654 202.943 49.9465C202.8 49.6658 201.96 48.6085 201.169 47.6819C201.113 47.6166 201.121 47.517 201.187 47.4606C201.252 47.4023 201.352 47.4113 201.408 47.4777C202.103 48.2936 203.27 49.702 203.277 49.9857L203.278 50.0532L203.231 50.1004C203.217 50.1155 201.817 51.521 202.414 52.2865C202.468 52.3539 202.456 52.4525 202.387 52.5069C202.359 52.53 202.325 52.5411 202.292 52.5411Z" fill="#2A2B3C"/>
<path d="M246.44 44.0107C243.923 41.5801 226.454 52.234 221.305 60.1555C216.155 68.077 222.272 77.6906 224.825 76.5759C227.377 75.4622 251.612 49.0057 246.44 44.0107Z" fill="#E93E72"/>
<path d="M209.263 50.1742C216.507 54.4106 222.259 61.98 226.085 65.5786C229.911 69.1752 225.871 76.6872 224.119 76.5805C222.367 76.4749 207.917 70.324 202.343 63.5836C202.343 63.5836 207.81 49.3242 209.263 50.1742Z" fill="#E93E72"/>
<path d="M224.552 70.937C221.033 72.0587 208.657 66.5426 204.086 64.4099C203.439 64.1171 202.704 63.762 202.344 63.5829C203.853 65.5618 207.903 68.937 213.883 72.4833C221.356 76.9128 223.997 77.1623 224.826 76.5768C225.654 75.9913 232.901 70.2147 241.375 57.9189C241.374 57.9189 228.892 69.5537 224.552 70.937Z" fill="#D32A6B"/>
<path d="M238.953 45.9287L236.907 64.2717C236.907 64.2717 234.733 67.8129 231.771 70.0161C235.462 58.9226 234.749 49.3653 238.953 45.9287Z" fill="#2A2B3C"/>
<path d="M231.73 80.1973C231.452 80.2466 232.348 110.236 231.896 123.117C231.532 133.428 230.189 154.594 225.19 161.015C224.978 161.287 224.938 161.785 225.341 161.867C230.482 162.981 235.248 163.416 239.422 163.445C239.453 163.449 239.493 163.442 239.525 163.447C249.875 163.509 256.588 161.148 256.449 160.937C249.757 150.586 253.584 122.064 255.887 105.435C256.656 99.9557 257.184 95.0815 257.015 91.4024C256.419 78.5031 244.232 82.6681 231.73 80.1973Z" fill="#3F4261"/>
<path d="M255.885 105.434C253.582 122.063 251.909 150.245 256.447 160.936C256.546 161.168 249.873 163.508 239.523 163.446C239.461 163.447 239.42 163.444 239.42 163.444C243.034 157.646 247.897 139.792 248.242 133.07C248.587 126.349 245.132 89.332 245.132 89.332L255.683 96.4276L255.885 105.434Z" fill="#343751"/>
<path d="M225.038 161.554C224.652 160.642 230.615 159.874 237.454 159.555C237.83 159.539 238.205 159.525 238.59 159.507C240.986 159.421 243.462 159.382 245.776 159.412C246.198 159.431 246.628 159.436 247.038 159.445C251.781 159.577 257.579 160.488 256.445 160.939C243.403 166.141 226.092 164.106 225.038 161.554Z" fill="#2A2B3B"/>
<path d="M253.883 126.916C261.236 126.72 267.803 124.778 274.438 121.822C272.374 114.047 271.704 105.152 270.428 98.9691C269.318 93.5486 268.185 88.779 266.795 85.3686C261.919 73.4109 256.138 80.8133 243.531 82.6674C242.245 89.1452 253.657 126.178 253.883 126.916Z" fill="#3F4261"/>
<path d="M271.103 117.731C266.619 123.429 260.244 123.279 253.883 126.917C259.934 135.822 274.798 152.991 276.024 160.249C276.081 160.591 276.421 160.956 276.753 160.714C281.05 157.678 284.591 154.459 287.433 151.402C287.457 151.382 287.479 151.348 287.503 151.329C294.544 143.742 297.34 137.198 297.091 137.158C289.702 135.902 279.988 127.237 271.103 117.731Z" fill="#3F4261"/>
<path d="M297.091 137.156C290.95 134.98 274.857 122.157 274.438 120.226C273.825 117.404 272.041 106.814 270.749 99.6971C269.176 91.0352 266.222 82.667 266.222 82.667L252.808 84.3108C252.808 84.3108 266.055 119.397 271.006 124.37C275.756 129.141 285.601 144.819 287.433 151.4C287.433 151.4 287.463 151.372 287.503 151.327C294.544 143.74 297.329 137.24 297.091 137.156Z" fill="#343751"/>
<path d="M276.32 160.726C275.387 160.394 278.851 155.48 283.238 150.223C283.48 149.936 283.723 149.65 283.971 149.354C285.527 147.53 287.171 145.68 288.758 143.995C289.056 143.695 289.35 143.382 289.635 143.086C292.939 139.679 297.527 136.022 297.095 137.162C292.112 150.289 278.913 161.674 276.32 160.726Z" fill="#2A2B3B"/>
<path d="M269.738 84.8722C269.738 84.8722 260.594 46.3985 251.516 43.4669C244.099 41.0716 237.638 43.7185 236.993 51.3925C236.398 58.4779 233.559 69.0322 232.479 72.6318C231.4 76.2324 228.106 82.8913 228.106 82.8913C228.106 82.8913 252.279 89.9104 269.738 84.8722Z" fill="#E93E72"/>
<path d="M240.444 38.9273C240.444 38.9273 241.659 42.5721 241.794 43.4725C241.835 43.7472 242.398 44.6013 242.875 44.9242C244.556 43.719 245.948 44.0027 246.477 43.4725C246.068 42.3468 245.169 40.9071 244.764 38.9273C244.358 36.9464 240.444 38.9273 240.444 38.9273Z" fill="#4C5072"/>
<path d="M246.203 35.5971C246.203 35.5971 244.538 40.8617 241.117 40.5025C237.698 40.1423 240.848 32.9875 241.388 32.8526C241.928 32.7178 245.348 32.4472 246.203 35.5971Z" fill="#4C5072"/>
<path d="M242.707 31.1787C241.746 31.0549 240.848 31.067 240.128 31.6344C239.337 32.2581 239.016 33.733 239.208 34.91C239.367 34.9271 239.532 34.9412 239.695 34.9573C239.829 34.5619 239.892 34.1454 239.957 33.733C240.058 33.0941 240.146 34.6444 240.056 34.9754C240.486 34.9845 241.581 35.0126 241.99 34.9392C242.694 34.8145 243.336 34.3768 244.008 34.0791C244.019 34.4624 244.053 34.8467 244.124 35.236C244.249 35.9231 244.35 37.0629 244.925 37.5569C246.082 38.5488 247.182 36.8466 247.381 35.8678C247.959 33.0257 245.298 30.7078 242.707 31.1787Z" fill="#2A2B3C"/>
<path d="M244.361 38.4091L244.352 38.1576C245.434 38.1173 246.269 37.7501 246.833 37.064C247.989 35.6596 247.646 33.3729 247.642 33.3508L247.891 33.3115C247.906 33.4101 248.255 35.734 247.028 37.225C246.416 37.9674 245.519 38.3658 244.361 38.4091Z" fill="#2A2B3C"/>
<path d="M244.313 36.3393C244.313 36.3393 244.966 35.4168 245.889 35.6874C246.811 35.958 246.721 38.2296 245.101 38.2075C243.48 38.1844 244.313 36.3393 244.313 36.3393Z" fill="#4C5072"/>
<path d="M244.723 37.7691C244.898 37.6222 245.151 37.8737 244.974 38.0206C244.7 38.25 244.309 38.9441 244.795 39.1675C245.231 39.3667 245.969 38.8446 245.59 38.3778C245.447 38.2007 245.698 37.9472 245.842 38.1252C246.401 38.8154 245.656 39.6584 244.878 39.5548C243.915 39.426 244.172 38.2268 244.723 37.7691Z" fill="#FFD357"/>
<path d="M250.801 45.9287C250.801 45.9287 245.201 57.9538 244.464 69.3642C243.729 80.7756 233.236 84.1518 233.236 84.1518C233.236 84.1518 252.501 89.5663 269.738 84.8732C269.738 84.8732 261.158 52.9297 250.801 45.9287Z" fill="#D32A6B"/>
<path d="M245.245 95.7461L253.883 126.916L253.477 137.222L245.245 95.7461Z" fill="#2A2B3B"/>
<path d="M247.063 41.4618C247.063 41.1077 246.626 40.7998 246.307 41.0272C244.51 42.3139 242.481 42.8884 240.274 42.7254C239.909 42.6992 239.626 43.1791 239.84 43.4829C240.467 44.3712 241.094 45.2596 241.721 46.1469C242.092 46.671 242.965 46.169 242.59 45.6389C242.542 45.5714 242.494 45.503 242.446 45.4346C242.527 45.4205 242.615 45.3994 242.721 45.3702C243.703 45.1046 244.604 44.6358 245.616 44.4145C246.052 44.3179 246.547 44.3089 246.823 43.8964C247.218 43.3059 247.063 42.1057 247.063 41.4618Z" fill="#E93E72"/>
<path d="M249.53 45.9287C249.53 45.9287 255.121 69.2606 257.804 72.8652C260.487 76.4698 242.8 78.7012 242.8 78.7012L252.103 71.6077C252.103 71.6077 247.123 55.6279 249.53 45.9287Z" fill="#2A2B3C"/>
<path d="M231.191 89.3072L266.704 102.085L267.643 101.986L274.493 78.9803L238.33 65.9502L236.791 66.3647L231.191 89.3072Z" fill="#BED0E2"/>
<path d="M230.306 88.9879L266.704 102.084L273.232 79.9054L236.792 66.3643L230.306 88.9879Z" fill="#EDF1F4"/>
<path d="M249.564 86.692C251.245 86.692 252.607 85.3294 252.607 83.6487C252.607 81.968 251.245 80.6055 249.564 80.6055C247.883 80.6055 246.521 81.968 246.521 83.6487C246.521 85.3294 247.883 86.692 249.564 86.692Z" fill="#BED0E2"/>
<path d="M261.5 45.0295C260.507 44.3766 260.452 43.4933 260.382 42.3746C260.365 42.101 260.346 41.8082 260.313 41.4994C260.23 40.7207 259.579 40.4451 258.949 40.1785C258.392 39.943 257.866 39.7197 257.882 39.1533C257.914 38.0366 257.173 36.6262 255.995 35.5618C255.235 34.8737 255.2 34.759 255.143 34.259C255.105 33.922 255.048 33.4109 254.661 32.3244C253.785 29.8546 251.224 30.3023 251.199 30.3103L251.152 30.0628C251.181 30.0588 253.951 29.5709 254.899 32.2399C255.294 33.3535 255.357 33.9028 255.394 34.2308C255.443 34.6634 255.45 34.7288 256.165 35.3747C257.396 36.4863 258.169 37.9732 258.135 39.1614C258.124 39.5356 258.475 39.7036 259.049 39.9461C259.68 40.2137 260.466 40.5457 260.566 41.4712C260.599 41.7861 260.618 42.0799 260.635 42.3585C260.704 43.4471 260.754 44.2338 261.641 44.8183L261.5 45.0295Z" fill="#2A2B3C"/>
<path d="M246.329 97.5053C246.565 97.8202 247.152 97.8272 247.222 97.3363C247.222 97.3303 247.224 97.3242 247.225 97.3182C247.414 97.6985 248.077 97.7457 248.159 97.2226C248.331 96.1411 248.488 94.9832 249.266 94.117C249.913 93.3957 250.967 93.0647 251.797 92.6301C252.507 92.2578 253.109 91.8715 253.726 91.3675C255.957 89.5466 258.077 87.5255 260.038 85.4188C260.245 85.1955 260.195 84.7518 259.89 84.6321C258.432 84.0607 256.974 83.4883 255.517 82.9168C255.279 82.8243 255.068 82.9118 254.932 83.0637C254.872 83.105 254.816 83.1593 254.772 83.2347C253.155 86.0355 250.57 88.5939 247.905 90.4017C246.006 91.6884 244.675 93.1854 243.819 95.3343C243.582 95.9329 244.479 96.3876 244.72 95.785C245.193 94.5948 245.846 93.7166 246.596 92.957C246.609 92.9842 246.615 93.0134 246.631 93.0395C245.907 94.3534 245.499 95.7105 245.371 97.2125C245.319 97.8182 246.189 98.0304 246.329 97.5053Z" fill="#4C5072"/>
<path d="M245.886 94.8488C245.88 94.8488 245.873 94.8488 245.866 94.8468C245.797 94.8367 245.75 94.7724 245.761 94.703C245.83 94.2603 246.493 93.0329 246.52 92.9806C246.554 92.9193 246.629 92.8981 246.69 92.9293C246.752 92.9625 246.774 93.039 246.741 93.1003C246.555 93.4444 246.061 94.4092 246.008 94.7422C245.999 94.8046 245.946 94.8488 245.886 94.8488Z" fill="#2A2B3C"/>
<path d="M246.329 97.6307C246.327 97.6307 246.324 97.6307 246.321 97.6307C246.252 97.6257 246.199 97.5663 246.204 97.4969C246.205 97.4738 246.365 95.172 247.486 93.2012C247.521 93.1388 247.597 93.1167 247.658 93.1539C247.719 93.1881 247.74 93.2646 247.705 93.3249C246.611 95.2464 246.455 97.4899 246.454 97.512C246.451 97.5794 246.396 97.6307 246.329 97.6307Z" fill="#2A2B3C"/>
<path d="M247.226 97.4452C247.221 97.4452 247.216 97.4453 247.211 97.4443C247.142 97.4362 247.093 97.3738 247.101 97.3044C247.113 97.2058 247.402 94.893 248.305 93.7078C248.347 93.6515 248.427 93.6445 248.481 93.6847C248.537 93.727 248.547 93.8054 248.505 93.8618C247.643 94.9915 247.353 97.3125 247.35 97.3346C247.342 97.398 247.288 97.4452 247.226 97.4452Z" fill="#2A2B3C"/>
<path d="M250.775 43.2599C247.531 44.5697 250.153 64.8624 255.293 72.7899C260.433 80.7184 271.704 79.0424 271.725 76.2577C271.746 73.474 257.443 40.5687 250.775 43.2599Z" fill="#E93E72"/>
<path d="M243.867 88.4326C248.096 81.1861 255.661 75.4256 259.254 71.5966C262.848 67.7657 270.363 71.7988 270.258 73.5503C270.153 75.3029 264.017 89.7585 257.282 95.34C257.282 95.34 243.017 89.8873 243.867 88.4326Z" fill="#E93E72"/>
<path d="M261.418 53.5479C261.418 53.5479 266.966 69.6856 266.463 74.2127C265.96 78.7399 261.481 89.6201 257.282 95.3394C264.371 90.3163 271.922 77.254 271.725 76.258C271.528 75.263 269.2 66.2922 261.418 53.5479Z" fill="#D32A6B"/>
<path d="M259.957 44.2293C259.883 44.0502 259.824 43.8601 259.806 43.6358C259.893 42.843 259.893 42.0362 259.409 41.3511C259.188 41.0372 258.893 40.8943 258.631 40.6499C257.909 39.9728 256.979 40.168 257.174 38.4064C257.155 37.8652 257.093 37.4849 256.607 36.9758C255.54 35.8622 254.602 35.7837 254.449 33.9356C254.41 33.4567 254.461 32.9447 254.358 32.4678C254.125 31.3904 253.619 30.6449 252.612 30.163C250.373 29.0896 247.34 29.8692 245.753 31.659C245.699 31.7203 245.663 31.7847 245.642 31.8501C245.513 32.0684 245.519 32.3773 245.789 32.5563C246.761 33.1992 248.005 33.8863 248.796 34.7354C249.904 35.9225 249.68 37.2384 249.285 38.6398C248.979 39.7263 248.947 40.7233 249.596 41.6921C249.848 42.0664 250.223 42.2645 250.49 42.6106C251.568 44.005 251.177 44.3702 250.641 45.8048C250.327 46.6448 250.143 47.6076 250.482 48.4758C250.634 48.8641 250.862 49.1468 251.134 49.3611C251.384 49.676 251.722 49.9476 252.2 50.1438C254.176 50.9597 257.195 50.9748 259.237 50.4939C260.661 50.1579 262.292 49.3249 262.28 47.6388C262.269 46.2726 260.94 45.2887 259.957 44.2293Z" fill="#2A2B3C"/>
<path d="M244.93 173.363C245.362 172.192 245.515 171.244 245.244 169.415C245.249 169.394 245.242 169.383 245.242 169.383C245.027 167.963 244.722 160.795 244.566 159.404C242.279 159.342 238.339 159.498 236.895 159.583C236.932 161.5 237.151 168.246 236.675 169.233C236.601 169.391 236.508 169.547 236.396 169.696C234.935 171.704 231.027 172.61 229.283 173.849C228.801 174.165 228.488 174.515 228.418 174.908C228.033 176.9 243.872 176.171 244.93 173.363Z" fill="#E93E72"/>
<path d="M228.504 174.684C228.459 174.759 228.444 174.822 228.43 174.905C227.973 177.034 244.168 176.354 245.182 173.641L245.191 173.63C245.273 173.49 245.332 173.332 245.381 173.165C245.802 171.764 245.315 169.699 245.241 169.408C245.25 169.397 245.24 169.388 245.24 169.388C240.881 171.381 236.399 169.689 236.399 169.689C235.116 171.453 231.96 172.373 230.027 173.392C229.258 173.738 228.7 174.168 228.504 174.684Z" fill="#4093F6"/>
<path d="M228.504 174.686C228.459 174.761 228.444 174.824 228.43 174.906C227.973 177.035 244.168 176.356 245.182 173.643L245.191 173.632C245.273 173.492 245.332 173.334 245.381 173.167C244.481 173.687 242.63 174.566 239.879 174.903C236.317 175.343 232.573 175.646 228.504 174.686Z" fill="#2A2B3B"/>
<path d="M298.879 153.657C298.291 152.557 297.683 151.812 296.137 150.798C296.126 150.781 296.112 150.778 296.112 150.778C294.908 149.995 289.352 145.456 288.209 144.648C286.642 146.315 284.138 149.364 283.242 150.497C284.7 151.744 289.885 156.065 290.303 157.077C290.374 157.238 290.428 157.41 290.464 157.594C290.993 160.02 289.072 163.542 288.837 165.667C288.753 166.238 288.807 166.705 289.053 167.018C290.288 168.631 300.272 156.314 298.879 153.657Z" fill="#E93E72"/>
<path d="M288.946 166.806C288.972 166.89 289.008 166.943 289.061 167.009C290.347 168.765 300.608 156.216 299.255 153.654L299.253 153.639C299.203 153.487 299.124 153.338 299.032 153.191C298.265 151.944 296.398 150.935 296.132 150.796C296.13 150.782 296.116 150.784 296.116 150.784C294.708 155.366 290.463 157.588 290.463 157.588C290.928 159.719 289.517 162.688 288.993 164.809C288.74 165.613 288.691 166.318 288.946 166.806Z" fill="#4093F6"/>
<path d="M288.946 166.806C288.972 166.89 289.008 166.943 289.061 167.008C290.347 168.765 300.608 156.216 299.255 153.654L299.253 153.639C299.203 153.487 299.124 153.337 299.031 153.19C298.822 154.208 298.248 156.175 296.67 158.454C294.632 161.408 292.368 164.405 288.946 166.806Z" fill="#2A2B3B"/>
<path d="M91.9892 163.926C88.8604 165.062 82.4731 167.688 79.2337 168.855C79.2136 168.915 79.1633 168.794 79.0627 168.523C78.2579 166.139 74.8977 151.773 72.5839 144.86C71.608 141.882 70.3706 139.015 69.0527 136.168C68.0165 133.945 65.4109 128.482 65.2298 128.05C64.1634 127.959 62.9461 127.848 61.6282 127.718C61.1453 127.667 60.6523 127.617 60.1493 127.568C60.0387 127.558 59.9381 127.547 59.8274 127.537C59.8073 127.548 59.7771 127.559 59.757 127.559C59.5055 127.559 59.3545 127.537 59.2238 127.478C57.9662 127.346 56.6483 127.205 55.3204 127.044C54.596 126.954 53.8616 126.863 53.1272 126.773C52.9663 126.763 52.8053 126.743 52.6544 126.712C51.749 126.602 50.8536 126.481 49.9784 126.35C48.5096 126.149 47.091 125.917 45.7731 125.686C45.421 125.616 45.0689 125.556 44.7369 125.485C44.6564 125.475 44.576 125.455 44.4955 125.445C44.3043 125.405 44.1233 125.364 43.9422 125.334C43.7108 125.284 43.4894 125.234 43.2681 125.184C43.0669 125.144 42.8758 125.104 42.6947 125.054C42.4231 124.992 42.1615 124.933 41.8999 124.862C41.749 124.822 41.5981 124.782 41.4472 124.742C40.9945 124.622 40.572 124.501 40.1897 124.37C34.1334 122.368 25.3708 120.667 24.7873 114.098C24.3849 109.532 24.8578 106.151 26.1354 103.696L29.063 101.854C29.063 101.854 36.0851 115.749 48.5699 118.264C54.2942 119.42 63.3455 118.545 68.9622 122.67C77.0154 128.585 80.1291 144.944 81.9198 150.195C83.7106 155.415 86.5405 160.293 91.9892 163.926Z" fill="#2483E2"/>
<path d="M20.7447 122.733L19.7546 122.555L9.70588 178.205L10.6959 178.383L20.7447 122.733Z" fill="#2A2B3B"/>
<path d="M54.1108 178.189L44.0508 122.545L43.0608 122.724L53.1209 178.368L54.1108 178.189Z" fill="#2A2B3B"/>
<path d="M45.2627 178.189L35.2026 122.545L34.2127 122.724L44.2728 178.368L45.2627 178.189Z" fill="#2A2B3B"/>
<path d="M8.44736 93.5986C8.44736 93.5986 32.1052 107.325 50.1815 126.629C50.1815 126.629 28.5328 130.647 17.8205 121.496C7.10833 112.345 8.44736 93.5986 8.44736 93.5986Z" fill="#92CEFF"/>
<path d="M47.5797 143.693H16.3616V144.699H47.5797V143.693Z" fill="#2A2B3B"/>
<path d="M105.694 92.5326C102.667 89.3555 99.2076 89.2941 95.1744 88.2318C94.5808 88.0758 94.3193 88.93 94.8263 89.1624C94.3072 90.8384 93.8555 92.5366 93.3625 94.2217C93.8485 94.3977 94.3314 94.5849 94.8223 94.7478C95.8766 95.1 96.8736 95.28 98.0265 95.3625C98.3917 95.3887 98.779 95.3917 99.1714 95.3947C99.9048 95.8957 101.011 96.9863 101.594 97.4953C102.373 98.1744 102.822 97.275 102.55 96.8766C102.534 96.8545 102.082 96.2016 101.529 95.6402C101.756 95.7086 101.976 95.7911 102.178 95.9078C103.295 96.5496 103.886 97.7539 104.374 99.0044C104.482 99.4058 104.623 99.783 104.783 100.041C105.261 100.725 106.128 100.093 106.14 99.4762C106.16 98.3605 105.791 97.7911 105.459 96.7519C106.023 96.6835 106.453 96.3112 106.502 95.783C106.837 95.7197 107.12 95.5004 107.239 95.0899C107.507 94.1523 106.223 93.0869 105.694 92.5326Z" fill="#EA3E72"/>
<path d="M51.2522 60.5643C63.0942 59.8238 69.1967 76.9394 72.2692 85.874C75.3416 94.8086 70.0156 99.046 66.5458 97.047C55.6566 90.7774 44.0751 61.013 51.2522 60.5643Z" fill="#E4EAEF"/>
<path d="M96.8473 87.8589C86.3313 85.0923 71.3283 81.696 66.7207 84.2141C62.1121 86.7321 65.938 97.1275 67.6604 97.4655C69.3827 97.8035 79.6673 101.842 92.62 102.918C92.619 102.918 98.4761 88.2885 96.8473 87.8589Z" fill="#E4EAEF"/>
<path d="M55.6455 62.7939C59.8869 64.4529 66.4261 81.9327 65.9614 96.6891C61.6475 94.2736 59.7702 90.4105 59.7702 90.4105L58.3196 88.495C58.3196 88.495 49.6385 65.1702 55.6455 62.7939Z" fill="#17171D"/>
<path d="M23.8962 102.766C23.8962 102.766 28.4556 67.4188 38.9344 61.3554C45.6808 57.452 56.0912 60.8856 58.4152 66.0094C62.9483 76.0033 65.5912 102.724 65.5912 102.724C65.5912 102.724 41.3559 107.806 23.8962 102.766Z" fill="#EDF1F4"/>
<path d="M50.5912 55.0994C50.5912 55.0994 50.4695 59.1034 50.3347 60.0038C50.2935 60.2795 49.7301 61.1326 49.2522 61.4566C47.5711 60.2513 46.1798 60.535 45.6506 60.0038C46.0591 58.8791 46.2703 57.2342 46.2703 55.0994C46.2714 53.0783 50.5912 55.0994 50.5912 55.0994Z" fill="#EA3E72"/>
<path d="M45.7241 51.8485C45.7241 51.8485 46.6607 57.2901 50.0983 57.3967C53.5359 57.5033 51.383 49.9883 50.8659 49.7821C50.3488 49.5748 46.9978 48.8444 45.7241 51.8485Z" fill="#EA3E72"/>
<path d="M49.2521 61.4564L48.5368 59.0459L45.8577 59.3226L43.6052 59.7944L49.2521 61.4564Z" fill="#F2F8FF"/>
<path d="M49.252 61.4564L50.1453 59.0459L51.2539 60.4071L49.252 61.4564Z" fill="#F2F8FF"/>
<path d="M43.6053 64.8223C43.6053 64.8223 44.3256 71.9369 36.4907 82.3322C33.705 86.0284 25.4243 93.5978 25.4243 93.5978C25.4243 93.5978 26.5138 88.0264 26.1788 86.0978C24.6235 77.1562 43.6053 64.8223 43.6053 64.8223Z" fill="#17171D"/>
<path d="M43.3819 63.3364C41.6777 56.2037 22.205 70.7619 16.538 78.3223C10.8721 85.8836 21.2412 92.5445 23.8619 91.6029C26.4826 90.6622 45.724 73.1432 43.3819 63.3364Z" fill="#E4EAEF"/>
<path d="M19.7039 57.6981C24.1757 65.0421 28.6948 81.4827 28.4302 86.7271C28.1657 91.9715 17.1406 93.045 16.0872 91.6406C15.0339 90.2361 5.91124 72.4908 6.23317 61.18C6.23418 61.18 18.8277 56.2595 19.7039 57.6981Z" fill="#E4EAEF"/>
<path d="M52.2631 47.1213C51.7541 46.8929 51.414 46.9915 51.2068 47.247C50.5991 46.9734 49.8275 47.0448 49.4161 47.404C48.9553 47.1806 48.4261 47.081 47.9412 47.2762C47.8185 47.3255 47.7249 47.3949 47.6444 47.4724C46.6917 46.9452 45.5036 47.2138 44.9362 48.24C44.904 48.2983 44.8919 48.3546 44.8829 48.411C44.5449 48.6776 44.2752 49.0035 44.0891 49.407C43.7471 49.7279 43.4543 50.1011 43.3939 50.585C43.3477 50.9633 43.4503 51.3184 43.6746 51.5961C43.5137 51.8798 43.4292 52.1776 43.4925 52.5075C43.5459 52.7802 43.7159 52.922 43.8527 53.1001C43.6314 53.7973 44.0177 54.3375 44.6545 54.7118C44.8346 55.3214 45.3758 55.8124 45.9392 55.7077C46.1696 56.0649 46.5378 56.2741 46.9684 55.9562C47.2601 55.9462 47.4633 55.6866 47.4462 55.3989C47.4422 55.3274 47.4281 55.257 47.4241 55.1856C47.4895 54.8184 47.4301 54.414 47.3054 54.0679C47.2631 53.6886 47.242 53.3073 47.1847 52.9271C47.1736 52.8526 47.1475 52.7892 47.1143 52.7349C47.236 52.1997 47.3104 51.6454 47.2752 51.1212C47.5438 51.1534 47.8145 51.1323 48.0811 51.0538C48.4251 51.4985 49.1444 51.4371 49.6756 51.2027C49.9694 51.4915 50.3647 51.6735 50.7893 51.6333C51.3849 51.577 51.6494 51.1263 51.6897 50.6102C51.9261 50.5065 52.1494 50.3707 52.3195 50.1575C52.5508 49.8667 52.582 49.5729 52.4845 49.3234C53.0187 48.587 53.2561 47.5659 52.2631 47.1213Z" fill="#17171D"/>
<path d="M47.4955 52.8409C47.4955 52.8409 46.9734 51.8389 46.0237 51.9817C45.073 52.1246 44.8547 54.3881 46.4634 54.5843C48.071 54.7815 47.4955 52.8409 47.4955 52.8409Z" fill="#EA3E72"/>
<path d="M197.105 103.167H75.0398V105.85H197.105V103.167Z" fill="#2A2B3B"/>
<path d="M75.2087 179.46C75.1865 179.46 75.1634 179.459 75.1413 179.455C74.8656 179.418 74.6724 179.165 74.7097 178.888L84.77 104.442C84.8072 104.167 85.0597 103.958 85.3364 104.011C85.612 104.047 85.8052 104.301 85.768 104.578L75.7077 179.024C75.6724 179.277 75.4561 179.46 75.2087 179.46Z" fill="#2A2B3C"/>
<path d="M118.614 179.459C118.366 179.459 118.15 179.276 118.116 179.024L108.056 104.577C108.019 104.302 108.212 104.048 108.487 104.011C108.762 103.956 109.016 104.166 109.054 104.441L119.114 178.888C119.151 179.163 118.958 179.417 118.683 179.454C118.659 179.458 118.636 179.459 118.614 179.459Z" fill="#2A2B3C"/>
<path d="M147.094 179.46C147.072 179.46 147.049 179.459 147.027 179.455C146.751 179.418 146.558 179.165 146.595 178.888L156.655 104.442C156.692 104.167 156.944 103.958 157.222 104.011C157.497 104.047 157.69 104.301 157.653 104.578L147.593 179.024C147.558 179.277 147.341 179.46 147.094 179.46Z" fill="#2A2B3C"/>
<path d="M190.499 179.459C190.25 179.459 190.035 179.276 190.001 179.024L179.941 104.577C179.903 104.302 180.097 104.048 180.372 104.011C180.646 103.956 180.9 104.166 180.939 104.441L190.999 178.888C191.036 179.163 190.843 179.417 190.567 179.454C190.544 179.458 190.521 179.459 190.499 179.459Z" fill="#2A2B3C"/>
<path d="M259.588 45.9567C259.358 45.171 259.223 43.0312 257.982 43.329C257.134 43.5312 256.309 44.2415 255.435 44.499C254.222 44.8562 252.974 44.9779 251.715 45.0211C251.361 44.8793 250.87 45.1378 251.032 45.5906C251.294 46.324 251.466 47.0704 251.531 47.8461C251.583 48.4869 252.59 48.492 252.537 47.8461C252.484 47.2153 252.359 46.6046 252.194 46C252.404 45.989 252.614 45.9708 252.825 45.9537C252.986 46.5443 253.147 47.1348 253.308 47.7254C253.478 48.3491 254.449 48.0835 254.278 47.4578C254.131 46.9205 253.985 46.3843 253.838 45.8461C254.118 45.8089 254.395 45.7535 254.672 45.7002C254.821 46.171 255.018 46.6177 255.29 47.0332C255.643 47.5734 256.514 47.0694 256.159 46.5252C255.939 46.1881 255.779 45.837 255.654 45.4608C255.823 45.4135 255.994 45.3743 256.161 45.3179C256.267 45.8572 256.456 46.3662 256.749 46.836C257.09 47.3843 257.961 46.8793 257.617 46.328C257.34 45.8843 257.176 45.4216 257.093 44.9065C257.353 44.7757 257.612 44.6459 257.882 44.5503C258.032 44.497 258.114 44.4538 258.16 44.4236C258.135 44.4688 258.118 44.5473 258.163 44.6761C258.342 45.1751 258.468 45.7133 258.617 46.2213C258.799 46.8441 259.77 46.5805 259.588 45.9567Z" fill="#D32A6B"/>
<path d="M330.565 146.921C330.509 146.774 330.462 146.626 330.413 146.479C330.659 146.459 330.808 146.094 330.533 145.961C330.424 145.908 330.313 145.852 330.202 145.796C329.197 142.139 330.028 138.303 332.457 135.313C334.527 132.763 337.662 130.456 337.926 126.919C338.172 123.598 335.841 120.637 335.246 117.447C334.881 115.503 334.887 113.337 335.965 111.605C336.776 110.304 338.631 109.477 339.012 107.915C339.724 104.997 335.656 105.659 334.238 106.329C331.504 107.621 329.413 110.196 328.8 113.167C328.185 116.149 329.047 118.901 330.731 121.345C331.499 122.458 331.893 123.436 331.222 124.736C330.75 125.652 330.038 126.476 329.338 127.225C327.96 128.704 326.32 129.898 324.51 130.791C322.907 131.583 321.168 132.227 320.485 134.033C320.004 135.303 320.151 136.722 320.66 137.956C322.175 141.634 326.238 144.421 329.731 146.189C329.822 146.489 329.915 146.788 330.027 147.082C330.157 147.417 330.695 147.259 330.565 146.921Z" fill="#343751"/>
<path d="M331.813 123.725C331.609 120.652 330.332 117.501 327.574 115.894C325.655 114.773 323.855 114.139 322.839 111.99C321.98 110.173 321.793 108.092 321.641 106.115C321.413 103.152 321.142 99.9591 319.169 97.5648C317.293 95.2861 314.185 95.0376 311.875 96.8465C308.705 99.3283 308.736 103.667 309.436 107.27C310.18 111.108 311.66 114.806 313.734 118.118C314.897 119.974 316.248 121.718 317.766 123.297C319.404 125.002 321.446 126.394 322.828 128.332C325.706 132.367 324.445 137.644 323.149 142.064C323.035 141.813 322.588 141.957 322.633 142.281C322.716 142.901 322.801 143.521 322.885 144.142C322.906 144.301 323.093 144.364 323.227 144.342C327.166 143.702 328.31 139.575 329.18 136.269C330.257 132.174 332.098 128.043 331.813 123.725Z" fill="#92CEFF"/>
<path d="M321.806 132.093C320.176 129.949 318.089 128.482 315.87 127.003C313.259 125.263 311.541 123.118 309.744 120.59C308.705 119.129 307.135 116.684 304.98 117.323C303.06 117.894 302.342 120.366 302.363 122.135C302.425 127.305 307.045 130.644 311.219 132.695C312.67 133.409 314.154 134.055 315.596 134.787C317.232 135.619 319.099 136.505 319.99 138.199C320.632 139.42 320.972 140.751 321.725 141.923C322.531 143.175 323.587 144.208 324.8 145.061C324.788 145.16 324.781 145.258 324.768 145.356C324.719 145.714 325.274 145.796 325.322 145.438C325.962 140.726 324.688 135.883 321.806 132.093Z" fill="#92CEFF"/>
<path d="M332.714 176.036H318.845L314.859 141.537H336.701L332.714 176.036Z" fill="#BED0E2"/>
<path d="M80.5035 0H131.591C135.643 0 138.929 3.2857 138.929 7.33799V35.3409C138.929 39.3931 135.643 42.6788 131.591 42.6788H99.6442L91.9018 53.1013C91.0789 54.211 89.3173 53.6265 89.3193 52.2452L89.3314 42.6778H80.5045C76.4512 42.6778 73.1665 39.3921 73.1665 35.3398V7.33799C73.1655 3.2857 76.4512 0 80.5035 0Z" fill="#EDF1F4"/>
<path d="M120.159 11.1283H101.376C101.125 11.1283 100.92 10.9241 100.92 10.6716C100.92 10.4191 101.124 10.2148 101.376 10.2148H120.159C120.411 10.2148 120.616 10.4191 120.616 10.6716C120.616 10.9241 120.411 11.1283 120.159 11.1283Z" fill="#2A2B3C"/>
<path d="M97.9581 11.1283H90.3525C90.101 11.1283 89.8958 10.9241 89.8958 10.6716C89.8958 10.4191 90.1 10.2148 90.3525 10.2148H97.9581C98.2096 10.2148 98.4148 10.4191 98.4148 10.6716C98.4148 10.9241 98.2096 11.1283 97.9581 11.1283Z" fill="#2A2B3C"/>
<path d="M120.159 18.5443H110.154C109.903 18.5443 109.698 18.3401 109.698 18.0876C109.698 17.8351 109.902 17.6309 110.154 17.6309H120.159C120.411 17.6309 120.616 17.8351 120.616 18.0876C120.616 18.3401 120.411 18.5443 120.159 18.5443Z" fill="#2A2B3C"/>
<path d="M107.184 18.5443H90.3525C90.101 18.5443 89.8958 18.3401 89.8958 18.0876C89.8958 17.8351 90.1 17.6309 90.3525 17.6309H107.184C107.436 17.6309 107.641 17.8351 107.641 18.0876C107.641 18.3401 107.437 18.5443 107.184 18.5443Z" fill="#2A2B3C"/>
<path d="M122.886 25.6596H107.78C107.528 25.6596 107.323 25.4553 107.323 25.2028C107.323 24.9503 107.527 24.7461 107.78 24.7461H122.886C123.138 24.7461 123.343 24.9503 123.343 25.2028C123.343 25.4553 123.138 25.6596 122.886 25.6596Z" fill="#2A2B3C"/>
<path d="M105.03 25.6596H98.9138C98.6623 25.6596 98.457 25.4553 98.457 25.2028C98.457 24.9503 98.6613 24.7461 98.9138 24.7461H105.03C105.282 24.7461 105.487 24.9503 105.487 25.2028C105.487 25.4553 105.283 25.6596 105.03 25.6596Z" fill="#2A2B3C"/>
<path d="M122.886 32.5717H114.839C114.588 32.5717 114.382 32.3674 114.382 32.1149C114.382 31.8624 114.587 31.6582 114.839 31.6582H122.886C123.138 31.6582 123.343 31.8624 123.343 32.1149C123.343 32.3674 123.138 32.5717 122.886 32.5717Z" fill="#2A2B3C"/>
<path d="M112.452 32.5717H98.9138C98.6623 32.5717 98.457 32.3674 98.457 32.1149C98.457 31.8624 98.6613 31.6582 98.9138 31.6582H112.452C112.703 31.6582 112.909 31.8624 112.909 32.1149C112.909 32.3674 112.703 32.5717 112.452 32.5717Z" fill="#2A2B3C"/>
<path d="M132.109 28.5503C131.704 28.5715 131.399 28.6328 131.194 28.7334C130.989 28.834 130.813 29.001 130.667 29.2365C130.52 29.4709 130.416 29.7666 130.355 30.1218C130.311 30.3884 130.289 30.8481 130.289 31.502C130.289 32.5765 130.24 33.327 130.143 33.7535C130.046 34.1811 129.867 34.5232 129.607 34.7807C129.346 35.0382 128.964 35.2415 128.46 35.3904C128.122 35.491 127.59 35.5402 126.864 35.5402H126.424V33.5453C127.016 33.5453 127.404 33.5081 127.588 33.4336C127.771 33.3582 127.905 33.2495 127.991 33.1097C128.076 32.9678 128.121 32.7284 128.124 32.3904C128.126 32.0523 128.15 31.4065 128.194 30.4528C128.221 29.8773 128.297 29.4155 128.419 29.0695C128.54 28.7224 128.702 28.4286 128.904 28.1882C129.107 27.9467 129.366 27.7355 129.682 27.5514C129.272 27.2858 128.973 27.0262 128.784 26.7707C128.523 26.4055 128.346 25.9397 128.252 25.3743C128.19 24.986 128.147 24.1329 128.119 22.813C128.114 22.3975 128.076 22.1208 128.007 21.983C127.938 21.8441 127.813 21.7375 127.633 21.6631C127.453 21.5886 127.049 21.5504 126.424 21.5504V19.5635H126.864C127.613 19.5635 128.186 19.6228 128.585 19.7385C128.984 19.8542 129.319 20.0534 129.591 20.3331C129.863 20.6118 130.047 20.9568 130.144 21.3633C130.241 21.7707 130.29 22.4126 130.29 23.2878C130.29 24.3019 130.332 24.9639 130.415 25.2747C130.536 25.7184 130.722 26.0353 130.972 26.2264C131.221 26.4166 131.601 26.5272 132.111 26.5554V28.5503H132.109Z" fill="#EA3E72"/>
<path d="M80.1653 13.654C80.6754 13.6268 81.0547 13.5162 81.3042 13.325C81.5536 13.1349 81.7397 12.817 81.8615 12.3743C81.945 12.0635 81.9862 11.4015 81.9862 10.3874C81.9862 9.51216 82.0345 8.87032 82.1321 8.46288C82.2297 8.05543 82.4128 7.71238 82.6854 7.43169C82.957 7.15302 83.2921 6.95382 83.6914 6.83813C84.0898 6.72143 84.6633 6.66309 85.4118 6.66309H85.8524V8.65C85.2257 8.65 84.8232 8.68722 84.6432 8.76166C84.4631 8.83611 84.3383 8.94376 84.2689 9.08158C84.1995 9.21941 84.1623 9.49707 84.1562 9.91256C84.1291 11.2325 84.0848 12.0856 84.0234 12.4729C83.9289 13.0393 83.7518 13.5041 83.4913 13.8703C83.3021 14.1248 83.0033 14.3854 82.5939 14.651C82.9088 14.8341 83.1683 15.0463 83.3705 15.2868C83.5727 15.5282 83.7347 15.822 83.8564 16.1681C83.9782 16.5151 84.0526 16.9769 84.0808 17.5524C84.1251 18.5051 84.1482 19.1509 84.1512 19.49C84.1542 19.828 84.1985 20.0664 84.284 20.2093C84.3695 20.3501 84.5043 20.4578 84.6864 20.5332C84.8695 20.6077 85.2568 20.6449 85.8504 20.6449V22.6389H85.4098C84.6844 22.6389 84.1522 22.5896 83.8142 22.49C83.3102 22.3411 82.9279 22.1368 82.6673 21.8793C82.4068 21.6218 82.2277 21.2797 82.1311 20.8521C82.0345 20.4256 81.9852 19.6751 81.9852 18.5996C81.9852 17.9457 81.9631 17.487 81.9188 17.2204C81.8575 16.8652 81.7528 16.5705 81.607 16.3341C81.4601 16.0997 81.284 15.9316 81.0788 15.832C80.8736 15.7314 80.5697 15.6711 80.1643 15.6479V13.654H80.1653Z" fill="#EA3E72"/>
<path d="M149.402 41.2754H152.979V52.5248C152.979 53.9966 152.849 55.1264 152.591 55.9202C152.242 56.9534 151.613 57.7854 150.699 58.4101C149.786 59.0369 148.582 59.3497 147.087 59.3497C145.333 59.3497 143.984 58.8608 143.038 57.8779C142.093 56.895 141.616 55.4554 141.608 53.555L144.99 53.1677C145.03 54.1858 145.179 54.9051 145.439 55.3256C145.827 55.9644 146.416 56.2844 147.208 56.2844C148.008 56.2844 148.573 56.054 148.905 55.5983C149.236 55.1425 149.402 54.1938 149.402 52.7552V41.2754Z" fill="#2A2B3B"/>
<path d="M155.888 53.2633L159.379 52.9253C159.589 54.0963 160.016 54.9575 160.658 55.5068C161.3 56.0561 162.167 56.3297 163.257 56.3297C164.413 56.3297 165.285 56.0863 165.87 55.5963C166.456 55.1074 166.749 54.535 166.749 53.881C166.749 53.4605 166.626 53.1034 166.379 52.8086C166.133 52.5138 165.702 52.2563 165.088 52.038C164.668 51.8921 163.71 51.6356 162.215 51.2623C160.292 50.7865 158.942 50.201 158.167 49.5058C157.076 48.5269 156.53 47.3348 156.53 45.9294C156.53 45.0239 156.787 44.1769 157.3 43.3892C157.813 42.6014 158.552 42.0018 159.518 41.5894C160.484 41.1769 161.65 40.9727 163.016 40.9727C165.246 40.9727 166.925 41.4596 168.053 42.4384C169.181 43.4173 169.772 44.7221 169.829 46.3549L166.24 46.5119C166.087 45.5984 165.757 44.9414 165.252 44.541C164.747 44.1427 163.99 43.9415 162.98 43.9415C161.937 43.9415 161.121 44.1557 160.531 44.5843C160.151 44.8589 159.962 45.2272 159.962 45.6869C159.962 46.1074 160.14 46.4666 160.495 46.7674C160.948 47.1467 162.046 47.542 163.792 47.9545C165.537 48.367 166.829 48.7935 167.665 49.2332C168.501 49.6728 169.156 50.2764 169.629 51.039C170.101 51.8036 170.338 52.7462 170.338 53.87C170.338 54.8881 170.055 55.8408 169.49 56.7311C168.923 57.6194 168.124 58.2814 167.089 58.714C166.055 59.1466 164.765 59.3629 163.222 59.3629C160.976 59.3629 159.25 58.8418 158.046 57.8046C156.841 56.7643 156.122 55.2512 155.888 53.2633Z" fill="#2A2B3B"/>
<path d="M174.167 68.6338H138.223C134.764 68.6338 131.951 65.82 131.951 62.3622V39.964C131.951 36.5052 134.764 33.6924 138.223 33.6924H174.167C177.626 33.6924 180.439 36.5063 180.439 39.964V47.137L189.487 47.1782C189.653 47.1792 189.802 47.2829 189.861 47.4368C189.92 47.5917 189.879 47.7678 189.755 47.8784L180.44 56.3261V62.3613C180.439 65.82 177.625 68.6338 174.167 68.6338ZM138.222 34.4972C135.207 34.4972 132.755 36.9499 132.755 39.964V62.3622C132.755 65.3763 135.207 67.829 138.222 67.829H174.166C177.181 67.829 179.634 65.3763 179.634 62.3622V56.148C179.634 56.0343 179.681 55.9257 179.766 55.8502L188.447 47.979L180.034 47.9408C179.813 47.9398 179.634 47.7587 179.634 47.5384V39.965C179.634 36.9509 177.181 34.4982 174.166 34.4982H138.222V34.4972Z" fill="#BED0E2"/>
</svg>
