<svg width="340" height="188" viewBox="0 0 340 188" fill="none" xmlns="http://www.w3.org/2000/svg">
<path d="M302.647 130.932C301.209 131.55 299.913 133.082 298.814 134.48C298.621 131.853 298.328 129.236 297.896 126.648C297.973 126.513 298.007 126.366 298 126.215C300.85 123.095 303.914 120.058 306.513 116.728C307.628 115.299 308.797 112.793 306.975 111.339C303.125 108.267 298.915 118.879 297.286 123.387C296.707 120.703 295.963 118.056 295.01 115.465C294.679 114.566 294.309 113.687 293.935 112.81C297.058 111.113 299.971 109.052 302.572 106.577C303.744 105.462 307.163 102.669 305.403 100.669C303.879 98.9382 300.569 99.8101 299.175 101.194C296.618 103.733 295.001 107.877 293.635 111.176C293.603 111.253 293.595 111.328 293.588 111.404C293.517 111.444 293.449 111.488 293.378 111.527C291.932 108.347 290.22 105.318 288.255 102.475C292.242 98.9493 299.232 90.2566 293.76 86.2353C288.107 82.0796 286.54 94.9621 286.162 99.6355C284.148 97.0681 281.935 94.6611 279.52 92.4579C279.461 92.4037 279.397 92.3766 279.335 92.3475C279.427 92.2381 279.493 92.0957 279.488 91.905C279.414 89.1911 278.262 86.6467 276.175 84.9691C274.319 83.4772 271.266 82.517 269.196 84.1494C266.908 85.9534 270.089 89.0275 271.37 90.4442C273.336 92.6184 275.875 94.008 278.767 93.6458C281.274 95.9554 283.55 98.4988 285.613 101.211C282.956 100.741 267.326 97.1323 269.814 103.757C270.997 106.908 276.229 106.848 278.773 106.877C282.03 106.916 285.004 106.175 286.968 103.458C287.036 103.437 287.104 103.411 287.174 103.359C287.178 103.357 287.182 103.353 287.186 103.35C288.967 105.925 290.519 108.665 291.863 111.522C291.277 111.294 290.627 111.182 289.992 111.106C289.913 111.004 289.808 110.918 289.646 110.882C286.329 110.128 280.923 108.652 277.701 110.246C275.956 111.108 275.162 113.04 276.287 114.776C277.703 116.961 280.854 117.827 283.249 117.599C285.182 117.415 286.876 116.491 288.57 115.579C289.777 114.93 291.637 114.257 292.641 113.178C293.164 114.392 293.646 115.626 294.082 116.886C294.938 119.365 295.581 121.891 296.095 124.445C294.072 122.503 291.579 121.213 288.789 120.841C286.906 120.59 283.246 120.397 282.601 122.936C281.06 129.006 292.481 128.314 296.606 127.257C296.937 129.305 297.157 131.373 297.335 133.445C297.049 133.221 296.738 133.027 296.404 132.866C295.242 132.307 293.358 131.759 292.09 132.252C291.123 132.627 290.489 133.799 291.062 134.794C291.799 136.071 296.019 136.952 296.122 136.638C296.548 136.747 296.982 136.827 297.423 136.894C297.458 137.023 297.514 137.143 297.616 137.227C297.801 140.882 297.813 144.55 297.736 148.195C297.717 149.097 299.068 149.097 299.087 148.195C299.165 144.56 299.16 140.897 298.983 137.246C300.801 137.012 302.558 136.474 304.167 135.529C305.17 134.939 307.229 133.855 306.385 132.344C305.683 131.083 303.923 130.383 302.647 130.932Z" fill="#92CEFF"/>
<path d="M302.685 135.062C303.657 135.507 304.533 136.608 305.277 137.614C305.407 135.724 305.606 133.843 305.897 131.982C305.846 131.885 305.823 131.779 305.828 131.67C303.901 129.426 301.829 127.241 300.074 124.845C299.32 123.819 298.529 122.015 299.761 120.97C302.363 118.761 305.208 126.392 306.309 129.636C306.7 127.706 307.204 125.803 307.848 123.937C308.072 123.289 308.322 122.658 308.575 122.027C306.465 120.807 304.496 119.324 302.737 117.544C301.945 116.742 299.634 114.732 300.824 113.295C301.853 112.05 304.091 112.676 305.034 113.672C306.763 115.498 307.855 118.479 308.778 120.852C308.799 120.908 308.804 120.963 308.809 121.017C308.858 121.045 308.904 121.077 308.953 121.104C309.93 118.818 311.087 116.639 312.415 114.593C309.72 112.058 304.996 105.806 308.694 102.912C312.515 99.9231 313.574 109.19 313.829 112.551C315.189 110.705 316.686 108.974 318.319 107.388C318.359 107.349 318.402 107.329 318.444 107.307C318.382 107.229 318.338 107.127 318.341 106.989C318.39 105.038 319.17 103.207 320.579 102C321.833 100.927 323.898 100.236 325.296 101.41C326.843 102.708 324.693 104.92 323.827 105.939C322.498 107.503 320.783 108.502 318.827 108.242C317.134 109.903 315.595 111.732 314.201 113.684C315.997 113.346 326.561 110.75 324.879 115.516C324.08 117.782 320.543 117.739 318.823 117.76C316.622 117.787 314.613 117.254 313.284 115.3C313.239 115.285 313.193 115.267 313.146 115.23C313.144 115.228 313.141 115.225 313.138 115.223C311.934 117.077 310.884 119.046 309.977 121.1C310.374 120.936 310.813 120.856 311.241 120.801C311.295 120.729 311.367 120.666 311.475 120.639C313.718 120.098 317.371 119.036 319.549 120.183C320.729 120.803 321.264 122.193 320.504 123.441C319.547 125.012 317.417 125.636 315.798 125.471C314.492 125.339 313.347 124.674 312.203 124.019C311.387 123.552 310.13 123.067 309.451 122.292C309.097 123.166 308.771 124.054 308.477 124.959C307.899 126.742 307.464 128.56 307.117 130.397C308.484 128.999 310.17 128.072 312.055 127.804C313.328 127.624 315.801 127.485 316.237 129.311C317.279 133.677 309.56 133.18 306.771 132.419C306.547 133.893 306.398 135.38 306.278 136.871C306.471 136.711 306.68 136.57 306.906 136.455C307.693 136.053 308.965 135.658 309.822 136.013C310.475 136.284 310.904 137.126 310.517 137.841C310.018 138.76 307.166 139.394 307.097 139.167C306.809 139.246 306.515 139.304 306.218 139.351C306.194 139.445 306.156 139.532 306.086 139.591C305.962 142.22 305.953 144.858 306.005 147.48C306.018 148.128 305.104 148.128 305.091 147.48C305.039 144.865 305.043 142.231 305.161 139.603C303.932 139.436 302.744 139.048 301.657 138.369C300.979 137.946 299.587 137.165 300.157 136.078C300.633 135.171 301.822 134.667 302.685 135.062Z" fill="#343751"/>
<path d="M291.055 136.89C290.069 137.616 289.362 138.948 288.782 140.146C288.141 138.362 287.427 136.606 286.611 134.897C286.644 134.789 286.642 134.679 286.609 134.576C288.208 131.82 289.987 129.078 291.355 126.228C291.941 125.005 292.368 123.022 290.699 122.39C287.172 121.054 285.936 129.293 285.532 132.76C284.586 131.017 283.52 129.333 282.304 127.729C281.881 127.172 281.433 126.639 280.982 126.107C283.056 124.283 284.902 122.25 286.431 119.993C287.121 118.976 289.218 116.329 287.494 115.305C286.003 114.418 283.628 115.706 282.819 116.957C281.336 119.249 280.874 122.46 280.446 125.034C280.436 125.096 280.445 125.149 280.453 125.202C280.406 125.245 280.361 125.29 280.313 125.332C278.61 123.424 276.73 121.674 274.691 120.105C277.086 116.832 280.813 109.35 275.866 107.689C270.756 105.972 271.969 115.242 272.556 118.567C270.532 117.2 268.384 115.987 266.12 114.955C266.065 114.93 266.012 114.923 265.958 114.916C266.008 114.82 266.031 114.709 265.992 114.576C265.427 112.708 264.068 111.178 262.153 110.446C260.452 109.794 257.931 109.757 256.652 111.319C255.236 113.045 258.25 114.522 259.498 115.241C261.413 116.345 263.617 116.785 265.765 115.935C268.119 117.02 270.34 118.316 272.429 119.772C270.305 119.996 257.652 120.721 260.801 124.808C262.298 126.753 266.296 125.628 268.251 125.122C270.754 124.475 272.894 123.345 273.89 121.052C273.938 121.024 273.985 120.992 274.029 120.941C274.032 120.939 274.034 120.935 274.036 120.933C275.885 122.353 277.587 123.934 279.152 125.64C278.66 125.603 278.141 125.66 277.641 125.739C277.561 125.684 277.465 125.646 277.333 125.654C274.651 125.816 270.231 125.911 268.061 127.683C266.885 128.644 266.639 130.148 267.827 131.121C269.321 132.346 271.898 132.295 273.691 131.643C275.138 131.116 276.263 130.123 277.39 129.14C278.192 128.44 279.492 127.586 280.059 126.631C280.686 127.367 281.289 128.123 281.857 128.909C282.977 130.453 283.944 132.074 284.817 133.742C282.903 132.812 280.75 132.43 278.543 132.75C277.053 132.965 274.213 133.588 274.195 135.485C274.152 140.019 282.773 137.178 285.736 135.59C286.373 136.944 286.929 138.334 287.454 139.736C287.193 139.64 286.918 139.569 286.633 139.527C285.637 139.38 284.092 139.387 283.212 139.992C282.542 140.453 282.275 141.398 282.9 141.971C283.704 142.705 287.104 142.444 287.123 142.204C287.47 142.191 287.818 142.158 288.168 142.112C288.219 142.194 288.286 142.267 288.379 142.304C289.205 144.803 289.903 147.348 290.526 149.895C290.68 150.526 291.717 150.246 291.561 149.616C290.939 147.076 290.248 144.532 289.429 142.033C290.779 141.494 292.024 140.758 293.08 139.768C293.739 139.151 295.113 137.973 294.184 137.098C293.409 136.368 291.93 136.245 291.055 136.89Z" fill="#343751"/>
<path d="M305.537 187.454H286.955L281.615 144.868H310.879L305.537 187.454Z" fill="#BED0E2"/>
<path d="M97.6828 155.559H53.9495V183.601H97.6828V155.559Z" fill="#BED0E2"/>
<path d="M102.267 155.559H58.5325V183.601H102.267V155.559Z" fill="#D3E0EA"/>
<path d="M3.26907 160.449H148.365C150.105 160.449 151.515 159.039 151.515 157.299V64.9678C151.515 63.2281 150.105 61.8164 148.365 61.8164H3.26907C1.52932 61.8164 0.118653 63.2271 0.118653 64.9678V157.299C0.11765 159.039 1.52832 160.449 3.26907 160.449Z" fill="#D3E0EA"/>
<path d="M7.8511 160.449H152.947C154.687 160.449 156.097 159.039 156.097 157.299V64.9678C156.097 63.2281 154.687 61.8164 152.947 61.8164H7.8511C6.11135 61.8164 4.70068 63.2271 4.70068 64.9678V157.299C4.70068 159.039 6.11135 160.449 7.8511 160.449Z" fill="#EDF1F4"/>
<path d="M11.5002 69.9017V148.219C11.5002 149.479 12.5216 150.501 13.7818 150.501H147.017C148.277 150.501 149.298 149.478 149.298 148.219V69.9107C149.298 68.6445 148.273 67.6191 147.007 67.6191H13.7818C12.5216 67.6181 11.5002 68.6405 11.5002 69.9017Z" fill="#4093F6"/>
<path d="M42.2156 187.085H109.417C109.417 183.237 106.298 180.118 102.45 180.118H49.1816C45.3349 180.117 42.2156 183.237 42.2156 187.085Z" fill="#D3E0EA"/>
<path d="M46.7988 187.085H114.001C114.001 183.237 110.881 180.118 107.034 180.118H53.7648C49.9171 180.117 46.7988 183.237 46.7988 187.085Z" fill="#EDF1F4"/>
<path d="M89.1685 153.713H71.6306V157.403H89.1685V153.713Z" fill="#BED0E2"/>
<path d="M112.52 79.9686H65.2397C64.9888 79.9686 64.7842 79.765 64.7842 79.5131C64.7842 79.2613 64.9878 79.0576 65.2397 79.0576H112.52C112.771 79.0576 112.975 79.2613 112.975 79.5131C112.975 79.765 112.772 79.9686 112.52 79.9686Z" fill="#2A2B3C"/>
<path d="M56.6343 79.9686H37.4902C37.2393 79.9686 37.0347 79.765 37.0347 79.5131C37.0347 79.2613 37.2383 79.0576 37.4902 79.0576H56.6343C56.8852 79.0576 57.0899 79.2613 57.0899 79.5131C57.0899 79.765 56.8852 79.9686 56.6343 79.9686Z" fill="#2A2B3C"/>
<path d="M112.52 87.3651H87.3337C87.0828 87.3651 86.8782 87.1614 86.8782 86.9096C86.8782 86.6578 87.0818 86.4541 87.3337 86.4541H112.52C112.771 86.4541 112.975 86.6578 112.975 86.9096C112.975 87.1614 112.772 87.3651 112.52 87.3651Z" fill="#2A2B3C"/>
<path d="M79.861 87.3651H37.4902C37.2393 87.3651 37.0347 87.1614 37.0347 86.9096C37.0347 86.6578 37.2383 86.4541 37.4902 86.4541H79.861C80.1119 86.4541 80.3165 86.6578 80.3165 86.9096C80.3165 87.1614 80.1129 87.3651 79.861 87.3651Z" fill="#2A2B3C"/>
<path d="M115.767 116.564H73.3823C73.1315 116.564 72.9268 116.361 72.9268 116.109C72.9268 115.857 73.1305 115.653 73.3823 115.653H115.767C116.018 115.653 116.223 115.857 116.223 116.109C116.223 116.361 116.018 116.564 115.767 116.564Z" fill="#2A2B3C"/>
<path d="M65.667 116.564H48.5053C48.2545 116.564 48.0498 116.361 48.0498 116.109C48.0498 115.857 48.2535 115.653 48.5053 115.653H65.667C65.9178 115.653 66.1225 115.857 66.1225 116.109C66.1225 116.361 65.9188 116.564 65.667 116.564Z" fill="#2A2B3C"/>
<path d="M115.767 123.962H93.1886C92.9378 123.962 92.7332 123.758 92.7332 123.506C92.7332 123.254 92.9368 123.051 93.1886 123.051H115.767C116.018 123.051 116.223 123.254 116.223 123.506C116.223 123.758 116.018 123.962 115.767 123.962Z" fill="#2A2B3C"/>
<path d="M86.4897 123.962H48.5063C48.2555 123.962 48.0508 123.758 48.0508 123.506C48.0508 123.254 48.2545 123.051 48.5063 123.051H86.4897C86.7405 123.051 86.9452 123.254 86.9452 123.506C86.9452 123.758 86.7405 123.962 86.4897 123.962Z" fill="#2A2B3C"/>
<path d="M128.205 131.05H85.8205C85.5696 131.05 85.365 130.846 85.365 130.594C85.365 130.342 85.5686 130.139 85.8205 130.139H128.205C128.456 130.139 128.661 130.342 128.661 130.594C128.661 130.846 128.456 131.05 128.205 131.05Z" fill="#2A2B3C"/>
<path d="M78.1061 131.05H60.9445C60.6937 131.05 60.489 130.846 60.489 130.594C60.489 130.342 60.6927 130.139 60.9445 130.139H78.1061C78.357 130.139 78.5617 130.342 78.5617 130.594C78.5617 130.846 78.357 131.05 78.1061 131.05Z" fill="#2A2B3C"/>
<path d="M128.205 138.446H105.628C105.377 138.446 105.172 138.243 105.172 137.991C105.172 137.739 105.376 137.535 105.628 137.535H128.205C128.456 137.535 128.661 137.739 128.661 137.991C128.661 138.243 128.456 138.446 128.205 138.446Z" fill="#2A2B3C"/>
<path d="M98.9279 138.446H60.9445C60.6937 138.446 60.489 138.243 60.489 137.991C60.489 137.739 60.6927 137.535 60.9445 137.535H98.9279C99.1787 137.535 99.3834 137.739 99.3834 137.991C99.3834 138.243 99.1797 138.446 98.9279 138.446Z" fill="#2A2B3C"/>
<path d="M119.385 94.4579H81.3598C81.109 94.4579 80.9043 94.2542 80.9043 94.0024C80.9043 93.7506 81.108 93.5469 81.3598 93.5469H119.385C119.636 93.5469 119.841 93.7506 119.841 94.0024C119.841 94.2542 119.637 94.4579 119.385 94.4579Z" fill="#2A2B3C"/>
<path d="M74.4392 94.4579H59.0424C58.7916 94.4579 58.5869 94.2542 58.5869 94.0024C58.5869 93.7506 58.7906 93.5469 59.0424 93.5469H74.4392C74.6901 93.5469 74.8947 93.7506 74.8947 94.0024C74.8947 94.2542 74.6901 94.4579 74.4392 94.4579Z" fill="#2A2B3C"/>
<path d="M119.385 101.352H99.1296C98.8788 101.352 98.6741 101.149 98.6741 100.897C98.6741 100.645 98.8778 100.441 99.1296 100.441H119.385C119.636 100.441 119.841 100.645 119.841 100.897C119.841 101.149 119.637 101.352 119.385 101.352Z" fill="#2A2B3C"/>
<path d="M93.1199 101.352H59.0424C58.7916 101.352 58.5869 101.149 58.5869 100.897C58.5869 100.645 58.7906 100.441 59.0424 100.441H93.1199C93.3707 100.441 93.5754 100.645 93.5754 100.897C93.5754 101.149 93.3707 101.352 93.1199 101.352Z" fill="#2A2B3C"/>
<path d="M130.637 98.446C130.233 98.4671 129.928 98.5282 129.725 98.6286C129.521 98.7289 129.345 98.8955 129.199 99.1302C129.052 99.364 128.948 99.659 128.888 100.013C128.844 100.279 128.822 100.738 128.822 101.39C128.822 102.461 128.773 103.21 128.677 103.635C128.58 104.062 128.402 104.403 128.141 104.66C127.881 104.916 127.5 105.119 126.998 105.267C126.66 105.367 126.13 105.416 125.406 105.416H124.967V103.427C125.559 103.427 125.946 103.39 126.128 103.316C126.31 103.241 126.444 103.132 126.53 102.993C126.615 102.852 126.659 102.613 126.662 102.276C126.664 101.939 126.687 101.294 126.733 100.343C126.76 99.7694 126.835 99.3088 126.956 98.9637C127.078 98.6176 127.239 98.3246 127.441 98.0848C127.643 97.844 127.901 97.6333 128.216 97.4497C127.807 97.1848 127.508 96.926 127.321 96.6711C127.061 96.3069 126.883 95.8424 126.79 95.2785C126.729 94.8913 126.685 94.0405 126.657 92.7241C126.652 92.3097 126.614 92.0338 126.546 91.8964C126.477 91.7579 126.352 91.6516 126.173 91.5773C125.993 91.5031 125.591 91.4649 124.966 91.4649V89.4834H125.405C126.152 89.4834 126.724 89.5416 127.121 89.658C127.519 89.7734 127.853 89.972 128.124 90.2509C128.395 90.5289 128.579 90.873 128.676 91.2783C128.772 91.6847 128.821 92.3248 128.821 93.1977C128.821 94.209 128.863 94.8692 128.945 95.1792C129.066 95.6217 129.252 95.9377 129.501 96.1283C129.75 96.3179 130.128 96.4283 130.637 96.4554V98.446Z" fill="white"/>
<path d="M22.6672 83.1976C23.1749 83.1705 23.5542 83.0611 23.803 82.8705C24.0518 82.6799 24.2375 82.3628 24.3589 81.9214C24.4421 81.6114 24.4832 80.9512 24.4832 79.9398C24.4832 79.067 24.5314 78.4269 24.6287 78.0205C24.726 77.6142 24.9086 77.272 25.1805 76.9931C25.4514 76.7142 25.7855 76.5155 26.1838 76.4001C26.5812 76.2838 27.1541 76.2256 27.8995 76.2256H28.339V78.2081C27.7149 78.2081 27.3126 78.2452 27.133 78.3195C26.9534 78.3937 26.829 78.5001 26.7597 78.6385C26.6915 78.776 26.6544 79.0519 26.6484 79.4673C26.6213 80.7826 26.5771 81.6334 26.5159 82.0207C26.4226 82.5846 26.245 83.0481 25.9862 83.4133C25.7976 83.6672 25.4996 83.928 25.0902 84.1919C25.4053 84.3745 25.6641 84.5862 25.8648 84.827C26.0665 85.0668 26.228 85.3597 26.3504 85.7059C26.4718 86.051 26.546 86.5115 26.5741 87.0864C26.6183 88.0366 26.6413 88.6807 26.6444 89.0178C26.6474 89.3549 26.6915 89.5937 26.7768 89.7352C26.8631 89.8756 26.9965 89.983 27.1791 90.0582C27.3617 90.1325 27.748 90.1696 28.34 90.1696V92.1592H27.9005C27.1761 92.1592 26.6464 92.109 26.3083 92.0097C25.8056 91.8612 25.4244 91.6575 25.1645 91.4007C24.9046 91.1438 24.726 90.8027 24.6297 90.3763C24.5324 89.9509 24.4843 89.2024 24.4843 88.1299C24.4843 87.4787 24.4622 87.0202 24.418 86.7543C24.3568 86.4002 24.2525 86.1062 24.107 85.8714C23.9605 85.6366 23.785 85.4701 23.5803 85.3698C23.3756 85.2694 23.0716 85.2092 22.6683 85.1871V83.1976H22.6672Z" fill="white"/>
<path d="M138.131 134.92C137.727 134.942 137.423 135.002 137.219 135.102C137.015 135.202 136.839 135.369 136.693 135.604C136.546 135.839 136.443 136.133 136.381 136.487C136.337 136.753 136.315 137.211 136.315 137.862C136.315 138.935 136.267 139.683 136.17 140.11C136.073 140.535 135.895 140.876 135.635 141.133C135.375 141.391 134.994 141.594 134.49 141.742C134.153 141.842 133.623 141.892 132.899 141.892H132.46V139.902C133.05 139.902 133.438 139.865 133.62 139.791C133.803 139.716 133.936 139.608 134.023 139.468C134.109 139.327 134.152 139.087 134.155 138.75C134.157 138.413 134.181 137.768 134.225 136.818C134.253 136.244 134.328 135.783 134.45 135.437C134.572 135.092 134.733 134.799 134.935 134.559C135.136 134.319 135.394 134.107 135.709 133.924C135.3 133.658 135.001 133.401 134.813 133.146C134.553 132.782 134.377 132.317 134.283 131.753C134.221 131.366 134.178 130.515 134.15 129.199C134.144 128.785 134.107 128.508 134.038 128.37C133.969 128.232 133.844 128.126 133.665 128.052C133.485 127.977 133.083 127.94 132.458 127.94V125.958H132.897C133.642 125.958 134.214 126.017 134.613 126.133C135.011 126.248 135.345 126.447 135.616 126.726C135.887 127.004 136.07 127.348 136.167 127.753C136.263 128.159 136.312 128.799 136.312 129.672C136.312 130.684 136.354 131.344 136.437 131.654C136.558 132.095 136.743 132.412 136.993 132.603C137.241 132.794 137.62 132.903 138.128 132.93V134.92H138.131Z" fill="white"/>
<path d="M38.3267 118.813C38.8344 118.786 39.2136 118.675 39.4624 118.485C39.7113 118.295 39.8969 117.978 40.0173 117.536C40.1006 117.227 40.1427 116.566 40.1427 115.554C40.1427 114.681 40.1909 114.041 40.2872 113.636C40.3845 113.229 40.5681 112.886 40.839 112.607C41.1099 112.329 41.444 112.131 41.8423 112.014C42.2406 111.899 42.8125 111.841 43.559 111.841H43.9984V113.822C43.3733 113.822 42.972 113.859 42.7914 113.934C42.6108 114.008 42.4875 114.115 42.4182 114.253C42.349 114.391 42.3129 114.667 42.3068 115.082C42.2798 116.397 42.2356 117.248 42.1744 117.635C42.0801 118.2 41.9035 118.662 41.6436 119.029C41.456 119.282 41.1571 119.542 40.7487 119.807C41.0638 119.99 41.3226 120.201 41.5232 120.441C41.7249 120.681 41.8864 120.975 42.0078 121.32C42.1292 121.666 42.2035 122.126 42.2316 122.701C42.2757 123.651 42.2988 124.295 42.3018 124.632C42.3038 124.969 42.348 125.208 42.4343 125.349C42.5196 125.491 42.654 125.598 42.8356 125.672C43.0172 125.747 43.4045 125.785 43.9964 125.785V127.773H43.5569C42.8325 127.773 42.3028 127.723 41.9647 127.625C41.4621 127.475 41.0808 127.272 40.8209 127.016C40.5611 126.76 40.3825 126.418 40.2862 125.992C40.1899 125.566 40.1417 124.817 40.1417 123.745C40.1417 123.093 40.1196 122.634 40.0755 122.369C40.0143 122.014 39.9099 121.72 39.7645 121.486C39.618 121.251 39.4424 121.084 39.2377 120.984C39.033 120.885 38.729 120.824 38.3257 120.801V118.813H38.3267Z" fill="white"/>
<path d="M334.028 53.0207H217.968C214.827 53.0207 212.273 50.4662 212.273 47.3259V15.8901C212.273 12.7497 214.827 10.1953 217.968 10.1953H334.029C337.169 10.1953 339.724 12.7497 339.724 15.8901V47.3259C339.723 50.4662 337.168 53.0207 334.028 53.0207ZM217.968 11.622C215.614 11.622 213.7 13.5363 213.7 15.8901V47.3259C213.7 49.6796 215.614 51.594 217.968 51.594H334.029C336.383 51.594 338.297 49.6796 338.297 47.3259V15.8901C338.297 13.5363 336.383 11.622 334.029 11.622H217.968Z" fill="#EDF1F4"/>
<path d="M275.88 51.8247H277.125C277.616 51.8247 278.013 51.4274 278.013 50.9358L277.155 48.1055H274.134L274.991 50.9358C274.992 51.4274 275.389 51.8247 275.88 51.8247Z" fill="#BED0E2"/>
<path d="M276.419 51.8247H277.664C278.155 51.8247 278.552 51.4274 278.552 50.9358L277.695 48.1055H274.674L275.531 50.9358C275.531 51.4274 275.928 51.8247 276.419 51.8247Z" fill="#D3E0EA"/>
<path d="M265.848 51.8247H267.093C267.583 51.8247 267.981 51.4274 267.981 50.9358L268.838 48.1055H265.817L264.96 50.9358C264.96 51.4274 265.357 51.8247 265.848 51.8247Z" fill="#BED0E2"/>
<path d="M271.238 49.5139C278.664 49.5139 284.684 43.4937 284.684 36.0675C284.684 28.6413 278.664 22.6211 271.238 22.6211C263.811 22.6211 257.791 28.6413 257.791 36.0675C257.791 43.4937 263.811 49.5139 271.238 49.5139Z" fill="#BED0E2"/>
<path d="M276.251 25.6609L281.672 28.4355L283.955 23.9743L278.534 21.1996L276.251 25.6609Z" fill="#BED0E2"/>
<path d="M276.29 22.0939L284.718 26.4071L284.738 26.369C285.93 24.0423 285.009 21.1889 282.681 19.9979C280.354 18.806 277.501 19.7271 276.31 22.0547L276.29 22.0939Z" fill="#D3E0EA"/>
<path d="M263.343 28.7431L268.216 25.0908L265.211 21.0806L260.337 24.7328L263.343 28.7431Z" fill="#BED0E2"/>
<path d="M260.133 27.1797L267.709 21.5009L267.683 21.4668C266.115 19.3739 263.148 18.9495 261.056 20.5177C258.964 22.0858 258.539 25.0537 260.107 27.1446L260.133 27.1797Z" fill="#D3E0EA"/>
<path d="M272.396 49.549C279.822 49.549 285.842 43.5288 285.842 36.1026C285.842 28.6764 279.822 22.6562 272.396 22.6562C264.969 22.6562 258.949 28.6764 258.949 36.1026C258.949 43.5288 264.969 49.549 272.396 49.549Z" fill="#D3E0EA"/>
<path d="M266.386 51.8247H267.632C268.122 51.8247 268.52 51.4274 268.52 50.9358L269.376 48.1055H266.355L265.498 50.9358C265.499 51.4274 265.896 51.8247 266.386 51.8247Z" fill="#D3E0EA"/>
<path d="M272.246 47.7809C278.716 47.7809 283.961 42.5361 283.961 36.0662C283.961 29.5964 278.716 24.3516 272.246 24.3516C265.776 24.3516 260.531 29.5964 260.531 36.0662C260.531 42.5361 265.776 47.7809 272.246 47.7809Z" fill="white"/>
<path d="M272.488 25.2188H272.006V27.2304H272.488V25.2188Z" fill="#BED0E2"/>
<path d="M276.785 27.794L277.203 28.0352L277.896 26.835L277.478 26.5938L276.785 27.794Z" fill="#BED0E2"/>
<path d="M280.307 31.1035L280.547 31.5205L281.748 30.8271L281.507 30.41L280.307 31.1035Z" fill="#BED0E2"/>
<path d="M283.095 35.8262H281.085V36.3088H283.095V35.8262Z" fill="#BED0E2"/>
<path d="M280.589 40.5869L280.349 41.0039L281.549 41.6973L281.79 41.2803L280.589 40.5869Z" fill="#BED0E2"/>
<path d="M277.145 44.1544L276.727 44.3955L277.419 45.5966L277.837 45.3554L277.145 44.1544Z" fill="#BED0E2"/>
<path d="M272.488 44.8623H272.006V46.9161H272.488V44.8623Z" fill="#BED0E2"/>
<path d="M267.71 44.3388L267.292 44.0977L266.599 45.2979L267.017 45.539L267.71 44.3388Z" fill="#BED0E2"/>
<path d="M264.161 40.9587L263.92 40.541L262.72 41.2354L262.961 41.6531L264.161 40.9587Z" fill="#BED0E2"/>
<path d="M263.451 35.8262H261.398V36.3088H263.451V35.8262Z" fill="#BED0E2"/>
<path d="M263.976 31.526L264.218 31.1084L263.017 30.4135L262.775 30.8311L263.976 31.526Z" fill="#BED0E2"/>
<path d="M267.349 27.9804L267.767 27.7393L267.074 26.5382L266.656 26.7793L267.349 27.9804Z" fill="#BED0E2"/>
<path d="M279.128 29.8498L278.516 29.2383L271.628 36.127L272.239 36.7385L279.128 29.8498Z" fill="#4C5072"/>
<path d="M277.884 41.2977L278.215 40.8545L272.92 36.9068L272.589 37.35L277.884 41.2977Z" fill="#4C5072"/>
<path d="M272.246 37.8193C273.126 37.8193 273.84 37.106 273.84 36.2261C273.84 35.3462 273.126 34.6328 272.246 34.6328C271.366 34.6328 270.653 35.3462 270.653 36.2261C270.653 37.106 271.366 37.8193 272.246 37.8193Z" fill="#4093F5"/>
<path d="M272.246 37.0704C272.713 37.0704 273.091 36.6922 273.091 36.2257C273.091 35.7591 272.713 35.3809 272.246 35.3809C271.78 35.3809 271.402 35.7591 271.402 36.2257C271.402 36.6922 271.78 37.0704 272.246 37.0704Z" fill="white"/>
<path d="M318.005 22.5732H310.346V51.8579H318.005V22.5732Z" fill="#92CEFF"/>
<path d="M319.678 22.5732H318.005V51.8579H319.678V22.5732Z" fill="#EDF1F4"/>
<path d="M309.067 24.0943L301.736 21.877L293.258 49.9083L300.589 52.1256L309.067 24.0943Z" fill="#92CEFF"/>
<path d="M300.604 52.0921L302.205 52.5762L310.68 24.5449L309.079 24.0609L300.604 52.0921Z" fill="#EDF1F4"/>
<path d="M327.696 30.8496H320.723V51.857H327.696V30.8496Z" fill="#FFD357"/>
<path d="M329.219 30.8496H327.696V51.857H329.219V30.8496Z" fill="#EDF1F4"/>
<path d="M256.323 43.8857H221.606V51.8049H256.323V43.8857Z" fill="#4093F5"/>
<path d="M252.28 46.6426H241.818V49.0465H252.28V46.6426Z" fill="#4C5072"/>
<path d="M251.329 35.9238H216.612V43.843H251.329V35.9238Z" fill="#E93E72"/>
<path d="M247.286 38.6816H236.824V41.0856H247.286V38.6816Z" fill="#4C5072"/>
<path d="M249.499 79.2498C249.543 79.2388 249.588 79.2378 249.633 79.2258C250.296 79.0351 249.992 77.781 249.327 77.9726C249.281 77.9867 249.234 77.9807 249.188 77.9907C249.344 77.6646 249.22 77.0817 248.527 77.0496C248.326 77.0405 245.482 76.9462 243.459 75.5627C244.014 75.5145 244.941 75.4473 245.567 75.6058C246.23 75.7734 246.561 74.743 245.892 74.5814C245.787 74.5564 244.914 74.3677 244.786 74.3788C241.661 73.9012 238.225 74.45 235.214 75.4533C234.711 75.5787 234.21 75.7242 233.714 75.9088C233.536 75.974 233.433 76.1897 233.42 76.3633C233.348 77.2513 233.653 79.1977 233.867 80.0585C233.888 80.1448 233.933 80.214 233.986 80.2762C233.562 80.6505 234.007 81.4331 234.575 81.1371C236.091 80.3445 239.041 79.3211 239.068 79.3181C241.879 80.4408 244.62 81.4822 247.664 81.5815C248.278 81.6016 248.462 80.6384 247.993 80.4368C247.99 80.4307 247.989 80.4247 247.985 80.4187C247.994 80.4187 248.004 80.4177 248.012 80.4177C248.192 80.4388 249.029 80.3946 249.28 80.3425C249.765 80.2401 249.768 79.5117 249.499 79.2498Z" fill="#EA3E72"/>
<path d="M248.896 78.1183C247.997 78.1183 245.254 78.027 243.189 76.9835C243.127 76.9524 243.103 76.8772 243.133 76.815C243.165 76.7538 243.239 76.7257 243.302 76.7598C245.737 77.9889 249.149 77.8625 249.184 77.8635C249.252 77.8695 249.311 77.9146 249.314 77.9839C249.317 78.0521 249.263 78.1113 249.194 78.1143C249.188 78.1143 249.081 78.1183 248.896 78.1183Z" fill="#2A2B3C"/>
<path d="M248.955 79.3823C247.674 79.3823 244.492 79.284 242.859 78.3579C242.799 78.3248 242.778 78.2475 242.812 78.1873C242.846 78.1251 242.921 78.103 242.982 78.1402C244.953 79.2559 249.45 79.1234 249.495 79.1234C249.554 79.1224 249.621 79.1756 249.624 79.2448C249.626 79.3141 249.572 79.3722 249.503 79.3743C249.467 79.3763 249.267 79.3823 248.955 79.3823Z" fill="#2A2B3C"/>
<path d="M247.993 80.5616C247.99 80.5616 247.987 80.5616 247.984 80.5616C247.835 80.5495 244.318 80.2786 242.712 79.5251C242.649 79.4961 242.623 79.4208 242.652 79.3586C242.682 79.2954 242.759 79.2693 242.82 79.2974C244.384 80.0308 247.967 80.3087 248.003 80.3107C248.072 80.3167 248.124 80.376 248.118 80.4462C248.113 80.5114 248.058 80.5616 247.993 80.5616Z" fill="#2A2B3C"/>
<path d="M157.256 174.882C157.689 173.714 158.188 172.897 159.578 171.686C159.587 171.668 159.6 171.664 159.6 171.664C160.683 170.726 162.083 169.581 163.827 167.91C166.407 168.798 169.559 169.022 170.135 171.664C168.863 173.092 166.468 176.046 166.191 177.104C166.142 177.272 166.112 177.45 166.101 177.635C165.907 180.104 168.281 183.325 168.799 185.394C168.96 185.946 168.97 186.414 168.769 186.756C167.768 188.516 156.239 177.694 157.256 174.882Z" fill="#E93E72"/>
<path d="M168.847 186.532C168.832 186.617 168.803 186.675 168.76 186.747C167.727 188.657 155.894 177.643 156.884 174.929V174.914C156.913 174.756 156.97 174.599 157.043 174.44C157.631 173.105 159.34 171.855 159.584 171.683C159.584 171.668 159.599 171.668 159.599 171.668C161.61 176.004 166.103 177.627 166.103 177.627C165.932 179.796 167.727 182.539 168.53 184.564C168.89 185.325 169.033 186.014 168.847 186.532Z" fill="#FFD357"/>
<path d="M204.306 87.5068C204.366 87.2771 204.302 87.0413 204.076 86.8778C204.006 86.6902 203.943 86.5025 203.871 86.3159C203.626 85.6838 202.802 85.726 202.527 86.1413C197.395 83.8859 191.725 82.391 186.883 86.2326C181.987 90.1165 180.657 96.6049 181.1 102.535C181.688 110.396 183.585 118.685 185.604 126.296C187.393 133.037 190.261 139.418 195.319 144.335C195.544 144.553 195.916 144.615 196.189 144.447C204.284 139.463 205.818 128.016 207.003 119.42C208.484 108.678 208.001 97.7396 204.306 87.5068Z" fill="#3F4261"/>
<path d="M202.153 94.3252C202.153 94.3252 207.06 116.302 206.846 120.554C206.633 124.806 204.241 133.124 204.241 133.124L195.304 122.213L192.965 95.9465L202.153 94.3252Z" fill="#343751"/>
<path d="M189.688 99.7461C189.361 100.357 189.041 100.973 188.731 101.594C185.232 108.62 181.925 115.797 178.96 123.065C176.148 129.957 174.258 137.251 170.952 143.931C167.367 151.171 158.274 165.853 158.827 165.607C157.924 168.255 175.372 176.799 177.156 174.938C183.226 167.871 187.003 159.425 190.449 150.854C194.253 141.396 198.286 132.21 203.273 123.302C203.298 123.257 203.325 123.212 203.351 123.166C200.262 114.538 195.852 106.648 189.688 99.7461Z" fill="#3F4261"/>
<path d="M168.847 186.532C168.832 186.618 168.803 186.676 168.76 186.747C167.727 188.657 155.894 177.643 156.884 174.929V174.914C156.913 174.756 156.97 174.599 157.043 174.44C157.388 175.417 158.22 177.284 160.087 179.323C162.5 181.965 165.141 184.622 168.847 186.532Z" fill="#2A2B3B"/>
<path d="M181.019 116.436C181.019 116.436 181.508 136.008 181.759 146.167C182.01 156.325 172.802 174.441 172.802 174.441C172.802 174.441 176.333 175.924 177.156 174.94C177.979 173.955 183.169 167.254 185.878 161.309C188.587 155.364 191.668 147.546 191.668 147.546L181.019 116.436Z" fill="#343751"/>
<path d="M199.174 99.7461L206.155 125.106L204.633 133.122L199.174 99.7461Z" fill="#2A2B3B"/>
<path d="M180.088 120.298L191.667 147.545L188.929 154.347C188.929 154.347 188.114 147.712 185.877 141.692C183.64 135.673 180.088 120.298 180.088 120.298Z" fill="#2A2B3B"/>
<path d="M217.851 174.194C217.674 164.88 214.867 156.064 211.73 147.376C208.269 137.786 205.161 128.249 202.95 118.282C201.832 113.239 200.842 108.169 199.82 103.107C199.097 99.5269 198.699 95.4635 196.084 92.6733C191.159 87.4199 183.573 88.8838 178.527 92.9853C178.222 92.8669 174.483 90.9285 174.305 91.3148C171.556 97.2875 175.969 105.633 177.646 111.77C179.715 119.342 182.026 126.898 184.654 134.295C187.145 141.309 190.594 148.009 192.574 155.195C194.72 162.983 197.714 179.992 197.963 179.441C203.926 171.617 213.679 173.217 217.851 174.194Z" fill="#3F4261"/>
<path d="M217.851 174.194C217.76 176.769 199.053 182.014 197.964 179.439C197.169 177.559 200.66 174.281 206.42 172.846C213.326 171.124 217.893 172.978 217.851 174.194Z" fill="#17171D"/>
<path d="M206.84 186.357C206.062 185.386 205.785 184.197 205.463 182.382C205.452 182.365 205.455 182.352 205.455 182.352C205.212 180.94 203.884 176.218 203.349 173.862C206.951 172.462 208.989 172.347 210.598 172.187C211.168 174.013 212.749 178.722 213.513 179.504C213.633 179.632 213.77 179.748 213.923 179.855C215.939 181.294 219.922 180.916 221.963 181.538C222.519 181.685 222.925 181.918 223.116 182.267C224.108 184.032 208.728 188.679 206.84 186.357Z" fill="#E93E72"/>
<path d="M221.964 181.538L216.703 184.213C216.703 184.213 208.04 187.491 206.841 186.358C205.714 185.297 205.484 182.709 205.464 182.382C205.453 182.365 205.456 182.352 205.456 182.352C207.909 179.568 213.924 179.855 213.924 179.855C215.939 181.293 219.922 180.916 221.964 181.538Z" fill="#FFD357"/>
<path d="M223.112 182.268C224.213 184.147 208.595 188.637 206.838 186.353C205.71 184.886 221.218 179.038 223.112 182.268Z" fill="#2A2B3B"/>
<path d="M189.494 52.6855C201.045 50.121 209.71 66.0385 214.12 74.364C218.532 82.6905 213.942 87.689 210.212 86.2583C198.515 81.7695 182.493 54.2396 189.494 52.6855Z" fill="#4093F6"/>
<path d="M236.954 71.5845C228.409 70.8551 216.386 71.6688 208.945 71.4089C203.711 71.2263 209.005 86.2509 210.727 86.567C212.448 86.882 228.938 88.0418 238.894 82.7283C238.893 82.7283 238.628 71.727 236.954 71.5845Z" fill="#4093F6"/>
<path d="M238.893 82.7284C238.893 82.7284 224.19 90.0375 209.609 86.1637C207.798 85.6831 200.004 76.7115 200.004 76.7115L204.372 69.2539C204.372 69.2539 207.634 81.2706 210.786 83.1849C213.938 85.0992 238.893 82.7284 238.893 82.7284Z" fill="#2483E2"/>
<path d="M206.003 94.047C206.003 94.047 187.152 99.0806 167.257 95.5349L167.872 90.8203L206.003 94.047Z" fill="#2A2B3B"/>
<path d="M198.576 54.2969C198.576 54.2969 202.699 56.5925 205.205 66.8985C206.518 72.2993 206.823 78.275 206.823 78.275L203.005 75.9173L198.576 54.2969Z" fill="#17171D"/>
<path d="M166.361 93.7227C166.361 93.7227 170.908 58.4723 181.36 52.4253C188.088 48.5325 198.47 51.9558 200.788 57.0656C205.309 67.0325 207.946 93.6825 207.946 93.6825C207.946 93.6825 183.774 98.7493 166.361 93.7227Z" fill="#4093F6"/>
<path d="M192.983 46.1859C192.983 46.1859 192.862 50.1801 192.727 51.078C192.686 51.3519 192.124 52.2037 191.648 52.5258C189.971 51.3248 188.584 51.6068 188.056 51.078C188.463 49.9563 188.674 48.3159 188.674 46.1859C188.675 44.1702 192.983 46.1859 192.983 46.1859Z" fill="#EA3E72"/>
<path d="M188.129 42.946C188.129 42.946 189.063 48.3729 192.492 48.4793C195.92 48.5856 193.773 41.0909 193.258 40.8842C192.743 40.6775 189.4 39.9481 188.129 42.946Z" fill="#EA3E72"/>
<path d="M184.575 53.4502C184.575 53.4502 188.932 58.1326 188.832 63.0659C188.734 67.9982 182.881 76.3598 183.801 83.6338C184.721 90.9078 191.263 95.7528 191.263 95.7528C191.263 95.7528 177.865 96.4632 170.674 94.897C163.484 93.3308 170.317 73.9057 170.317 73.9057L184.575 53.4502Z" fill="#2483E2"/>
<path d="M192.313 38.2341C191.851 38.0034 191.345 37.905 190.824 38.0044C190.197 38.1238 189.803 38.6043 189.195 38.6685C187.838 38.813 187.178 39.6889 187.323 40.8427C187.288 40.8758 187.253 40.9059 187.225 40.9521C186.728 41.7949 186.409 42.6858 186.906 43.4935C186.362 44.4677 187.189 45.7459 187.816 46.5415C187.869 46.6088 187.93 46.6469 187.994 46.674C188.168 47.0041 188.778 47.0582 188.938 46.5877C189.34 45.4008 188.99 43.972 189.435 42.8724C189.649 42.3457 190.119 41.9584 190.472 41.4608C191 41.6273 191.497 41.5521 191.973 41.2551C193.102 41.8531 194.963 41.5892 195.277 40.1876C195.696 38.3234 193.689 37.7535 192.313 38.2341Z" fill="#17171D"/>
<path d="M189.897 43.9342C189.897 43.9342 189.377 42.9349 188.429 43.0774C187.481 43.2199 187.263 45.4773 188.868 45.674C190.471 45.8696 189.897 43.9342 189.897 43.9342Z" fill="#EA3E72"/>
<path d="M191.648 52.5258L190.494 54.8776L187.411 50.761L188.217 50.5674L191.648 52.5258Z" fill="#F2F8FF"/>
<path d="M191.648 52.5249L193.385 53.7791V51.5607L192.727 51.0771L191.648 52.5249Z" fill="#F2F8FF"/>
<path d="M184.576 53.4498C190.144 63.8903 179.582 77.2313 172.745 83.7137C165.906 90.1961 158.114 80.6887 158.746 77.9848C159.378 75.2809 181.2 47.123 184.576 53.4498Z" fill="#4093F6"/>
<path d="M205.656 105.667L170.239 118.409L169.302 118.312L162.472 95.368L198.537 82.3721L200.071 82.7864L205.656 105.667Z" fill="#BED0E2"/>
<path d="M206.539 105.351L170.24 118.41L163.73 96.2917L200.071 82.7871L206.539 105.351Z" fill="#EDF1F4"/>
<path d="M186.631 103.633C188.308 103.633 189.666 102.274 189.666 100.598C189.666 98.9213 188.308 97.5625 186.631 97.5625C184.955 97.5625 183.596 98.9213 183.596 100.598C183.596 102.274 184.955 103.633 186.631 103.633Z" fill="#BED0E2"/>
<path d="M188.379 113.853C188.618 111.542 188.366 109.483 187.587 107.523C187.622 107.481 187.64 107.435 187.669 107.392C188.654 108.492 189.446 109.784 189.854 111.577C190.062 112.485 191.646 111.691 191.44 110.791C190.702 107.551 188.998 105.371 186.317 103.569C182.555 101.039 179.145 97.341 177.371 93.1712C177.323 93.0579 177.249 92.9806 177.163 92.9224C176.99 92.7017 176.675 92.5873 176.264 92.7549C173.741 93.7843 171.218 94.8147 168.696 95.8441C168.167 96.0608 167.955 96.7521 168.223 97.0761C170.759 100.138 173.577 103.054 176.635 105.647C177.481 106.364 178.337 106.903 179.373 107.406C180.582 107.995 182.187 108.402 183.014 109.452C184.011 110.716 183.918 112.49 183.874 114.145C183.853 114.946 184.937 114.806 185.355 114.201C185.355 114.21 185.355 114.219 185.355 114.227C185.32 114.979 186.271 114.909 186.744 114.399C186.816 115.196 188.283 114.781 188.379 113.853Z" fill="#EA3E72"/>
<path d="M188.291 110.25C188.289 110.25 188.287 110.25 188.285 110.249C188.175 110.246 188.09 110.155 188.093 110.046C188.108 109.543 187.6 108.106 187.403 107.596C187.364 107.494 187.414 107.379 187.516 107.34C187.617 107.301 187.732 107.352 187.771 107.453C187.801 107.531 188.507 109.372 188.487 110.058C188.485 110.165 188.397 110.25 188.291 110.25Z" fill="#2A2B3C"/>
<path d="M186.745 114.597C186.737 114.597 186.728 114.596 186.72 114.595C186.611 114.581 186.534 114.483 186.548 114.375C186.552 114.341 186.968 110.89 185.782 108.041C185.739 107.94 185.788 107.825 185.888 107.783C185.989 107.739 186.105 107.788 186.146 107.889C187.374 110.837 186.959 114.278 186.94 114.424C186.927 114.523 186.843 114.597 186.745 114.597Z" fill="#2A2B3C"/>
<path d="M185.355 114.397C185.351 114.397 185.346 114.396 185.342 114.396C185.234 114.389 185.151 114.295 185.158 114.186C185.16 114.15 185.383 110.604 184.339 108.955C184.279 108.863 184.308 108.74 184.4 108.683C184.492 108.626 184.614 108.653 184.672 108.744C185.785 110.501 185.563 114.063 185.553 114.213C185.546 114.317 185.458 114.397 185.355 114.397Z" fill="#2A2B3C"/>
<path d="M188.125 99.9188C184.869 91.9846 174.336 78.6375 169.966 75.749C165.597 72.8615 158.218 81.0826 158.723 82.7581C159.229 84.4347 168.09 102.252 177.366 108.68C177.366 108.68 188.763 101.473 188.125 99.9188Z" fill="#4093F6"/>
<path d="M179.558 53.9902C179.558 53.9902 161.774 68.463 158.616 77.9905C155.457 87.5169 175.89 106.829 177.366 108.68C177.366 108.68 159.554 83.7545 161.728 78.9888C163.902 74.223 179.558 53.9902 179.558 53.9902Z" fill="#2483E2"/>
<path d="M92.2786 0.50293H143.228C147.269 0.50293 150.546 3.77976 150.546 7.8221V35.7483C150.546 39.7896 147.269 43.0664 143.228 43.0664H111.368L103.646 53.4617C102.825 54.5674 101.069 53.9845 101.071 52.6079L101.083 43.0654H92.2796C88.2372 43.0654 84.9614 39.7886 84.9614 35.7473V7.82109C84.9594 3.77875 88.2363 0.50293 92.2786 0.50293Z" fill="#EDF1F4"/>
<path d="M102.515 54.544C102.308 54.544 102.098 54.5109 101.892 54.4417C101.087 54.1748 100.568 53.4554 100.569 52.6076L100.58 43.5678H92.2788C87.9666 43.5678 84.459 40.0602 84.459 35.748V7.82079C84.459 3.50856 87.9676 0.000976562 92.2788 0.000976562H143.228C147.54 0.000976562 151.048 3.50856 151.048 7.82079V35.748C151.048 40.0602 147.539 43.5678 143.228 43.5678H111.62L104.049 53.7604C103.673 54.2671 103.11 54.544 102.515 54.544ZM92.2788 1.0053C88.5194 1.0053 85.4623 4.0634 85.4623 7.82181V35.749C85.4623 39.5074 88.5204 42.5655 92.2788 42.5655H101.584L101.572 52.6106C101.572 53.1043 101.901 53.3882 102.208 53.4906C102.519 53.5949 102.95 53.5598 103.244 53.1645L111.116 42.5665H143.229C146.988 42.5665 150.045 39.5084 150.045 35.75V7.82282C150.045 4.06441 146.987 1.00631 143.229 1.00631H92.2788V1.0053Z" fill="#BED0E2"/>
<path d="M98.6416 28.6244V13.1162H103.666C105.57 13.1162 106.812 13.1945 107.389 13.349C108.278 13.5817 109.022 14.0874 109.622 14.868C110.222 15.6456 110.521 16.6529 110.521 17.888C110.521 18.8401 110.348 19.6397 110.002 20.2889C109.656 20.939 109.218 21.4467 108.685 21.8169C108.152 22.1872 107.611 22.432 107.061 22.5534C106.314 22.6999 105.231 22.7751 103.814 22.7751H101.772V28.6244H98.6416ZM101.773 15.7399V20.1414H103.487C104.721 20.1414 105.545 20.0591 105.962 19.8986C106.378 19.7361 106.704 19.4812 106.94 19.1361C107.177 18.7909 107.295 18.3896 107.295 17.9311C107.295 17.3663 107.129 16.9007 106.798 16.5335C106.465 16.1673 106.046 15.9375 105.538 15.8452C105.164 15.775 104.414 15.7399 103.285 15.7399H101.773Z" fill="#2A2B3B"/>
<path d="M113.103 28.6244V13.1162H116.235V19.2203H122.37V13.1162H125.501V28.6244H122.37V21.844H116.235V28.6244H113.103Z" fill="#2A2B3B"/>
<path d="M128.738 28.6244V13.1162H133.762C135.667 13.1162 136.908 13.1945 137.486 13.349C138.375 13.5817 139.118 14.0874 139.718 14.868C140.318 15.6456 140.617 16.6529 140.617 17.888C140.617 18.8401 140.444 19.6397 140.098 20.2889C139.752 20.939 139.314 21.4467 138.781 21.8169C138.248 22.1872 137.707 22.432 137.158 22.5534C136.41 22.6999 135.328 22.7751 133.91 22.7751H131.868V28.6244H128.738ZM131.869 15.7399V20.1414H133.583C134.817 20.1414 135.642 20.0591 136.058 19.8986C136.474 19.7361 136.8 19.4812 137.036 19.1361C137.273 18.7909 137.391 18.3896 137.391 17.9311C137.391 17.3663 137.225 16.9007 136.894 16.5335C136.562 16.1673 136.142 15.9375 135.635 15.8452C135.26 15.775 134.51 15.7399 133.381 15.7399H131.869Z" fill="#2A2B3B"/>
<path d="M89.8979 47.7476L72.977 55.4821C71.8523 55.9958 70.524 55.5012 70.0103 54.3765L65.2074 43.8698C64.6937 42.7451 65.1883 41.4167 66.3131 40.902L83.2339 33.1685C84.3586 32.6538 85.687 33.1484 86.2007 34.2741L91.0025 44.7808C91.5182 45.9055 91.0226 47.2329 89.8979 47.7476Z" fill="#FFD357"/>
<path d="M79.5679 47.5253L79.4445 47.4952L65.1694 44.0277C65.0831 44.0066 65.0299 43.9194 65.051 43.8331C65.0721 43.7478 65.1573 43.6956 65.2456 43.7147L79.3974 47.152L86.0573 34.2023C86.0995 34.122 86.1958 34.0909 86.275 34.1331C86.3543 34.1732 86.3854 34.2705 86.3442 34.3498L79.5679 47.5253Z" fill="#2A2B3C"/>
<path d="M91.0034 44.9419C90.9894 44.9419 90.9753 44.9399 90.9613 44.9359L82.0117 42.4938C81.9264 42.4707 81.8753 42.3814 81.8984 42.2962C81.9214 42.2089 82.0107 42.1587 82.097 42.1828L91.0465 44.6249C91.1318 44.6479 91.183 44.7372 91.16 44.8225C91.1399 44.8947 91.0747 44.9419 91.0034 44.9419Z" fill="#2A2B3C"/>
<path d="M70.0102 54.5361C69.9872 54.5361 69.963 54.53 69.941 54.519C69.8607 54.4809 69.8266 54.3845 69.8647 54.3043L73.875 45.9397C73.9141 45.8594 74.0104 45.8263 74.0897 45.8644C74.1699 45.9026 74.204 45.9989 74.1659 46.0791L70.1557 54.4437C70.1276 54.5019 70.0704 54.5361 70.0102 54.5361Z" fill="#2A2B3C"/>
<path d="M69.9983 26.2822H54.3577V10.6416H69.9983V26.2822ZM54.8914 25.7495H69.4645V11.1754H54.8914V25.7495Z" fill="#2A2B3C"/>
<path d="M62.1761 23.382C61.8942 23.382 61.6102 23.3017 61.3603 23.1372L55.1629 19.0377C54.4817 18.5872 54.2941 17.6682 54.7456 16.9869C55.197 16.3037 56.1141 16.119 56.7963 16.5685L61.9594 19.9838L71.557 9.88746C72.1199 9.29551 73.058 9.27245 73.649 9.83431C74.2409 10.3982 74.265 11.3343 73.7021 11.9272L63.2496 22.9215C62.9617 23.2245 62.5704 23.382 62.1761 23.382Z" fill="#4093F6"/>
</svg>
