<svg width="330" height="210" viewBox="0 0 330 210" fill="none" xmlns="http://www.w3.org/2000/svg">
<path d="M148.023 168.775C145.151 183.056 131.245 192.312 116.952 189.443C102.671 186.582 93.4152 172.664 96.2854 158.383C99.1556 144.09 113.062 134.835 127.345 137.706C141.636 140.576 150.893 154.492 148.023 168.775Z" fill="white"/>
<path d="M159.36 162.777C159.273 158.404 158.408 154.167 156.881 150.199L164.112 144.434L156.022 132.269L147.91 136.711C144.839 133.768 141.262 131.331 137.263 129.566L138.292 120.364L123.958 117.489L121.356 126.368C116.993 126.455 112.746 127.32 108.768 128.849L103.003 121.618L90.8367 129.706L95.2904 137.828C92.3367 140.9 89.9102 144.467 88.1345 148.476L78.9434 147.447L76.0571 161.781L84.9454 164.372C85.0309 168.736 85.8881 172.993 87.4253 176.96L80.1839 182.726L88.2824 194.891L96.3951 190.449C99.4655 193.392 103.053 195.828 107.042 197.594L106.013 206.796L120.347 209.672L122.949 200.793C127.323 200.705 131.559 199.841 135.526 198.303L141.302 205.543L153.457 197.445L149.014 189.332C151.968 186.261 154.403 182.673 156.17 178.685L165.361 179.714L168.237 165.38L159.36 162.777ZM148.023 168.775C145.151 183.056 131.245 192.312 116.952 189.443C102.671 186.581 93.4152 172.664 96.2854 158.382C99.1556 144.09 113.062 134.835 127.345 137.705C141.636 140.576 150.893 154.492 148.023 168.775Z" fill="#EDF1F4"/>
<path d="M114.163 168.352L102.637 157.34L103.853 154.036L119.758 153.146L118.324 157.036L107.411 157.173L115.581 164.488L114.163 168.352Z" fill="#3F4261"/>
<path d="M114.466 171.439L127.04 152.569L129.919 153.628L117.291 172.48L114.466 171.439Z" fill="#3F4261"/>
<path d="M124.531 172.182L125.952 168.317L136.921 168.08L128.71 160.824L130.122 156.988L141.669 167.98L140.463 171.257L124.531 172.182Z" fill="#3F4261"/>
<path opacity="0.34" d="M167.454 33.8164L142.575 114.001H214.919L191.408 33.8164H167.454Z" fill="url(#paint0_linear_955_903)"/>
<path d="M179.121 41.6951C181.586 41.6951 183.584 39.6966 183.584 37.2313C183.584 34.7661 181.586 32.7676 179.121 32.7676C176.655 32.7676 174.657 34.7661 174.657 37.2313C174.657 39.6966 176.655 41.6951 179.121 41.6951Z" fill="#FFD357"/>
<path d="M179.223 19.876C179.223 19.876 173.69 28.0087 161.45 37.23H196.996C184.756 28.0087 179.223 19.876 179.223 19.876Z" fill="#4093F5"/>
<path d="M180.367 0H178.08V21.5552H180.367V0Z" fill="url(#paint1_linear_955_903)"/>
<path d="M329.694 122.846C329.694 122.846 315.569 119.904 303.602 127.939C291.634 135.973 287.959 155.877 287.959 155.877L326.123 131.327L329.694 122.846Z" fill="#BED0E2"/>
<path d="M295.303 94.0062C294.59 91.2326 293.56 87.1994 291.909 83.8936C289.978 84.1239 289.251 83.7125 287.359 84.1632C287.579 91.2104 284.999 98.2023 283.973 105.166C283.938 105.406 284.031 105.744 284.325 105.785C286.333 106.062 288.341 106.341 290.349 106.619C290.663 106.663 290.987 106.495 290.985 106.135C290.964 102.878 290.888 99.6228 290.785 96.3683C291.42 99.5333 291.654 102.763 291.806 106.018C291.822 106.362 292.113 106.568 292.443 106.503C294.518 106.095 296.62 106.431 296.921 104.079C297.342 100.789 296.109 97.141 295.303 94.0062Z" fill="#2A2B3C"/>
<path d="M240.945 148.952C235.228 156.827 230.497 184.722 230.473 193.077C235.877 193.083 243.32 195.957 250.509 198.001C250.533 198.06 250.578 197.936 250.66 197.66C251.3 195.221 253.683 180.667 255.514 173.616C256.29 170.575 257.331 167.636 258.449 164.703C259.33 162.409 260.266 160.122 261.152 157.819C261.167 157.771 261.193 157.726 261.208 157.677C261.877 155.979 262.525 154.257 263.11 152.523C264.747 147.661 242.417 146.926 240.945 148.952Z" fill="#2483E2"/>
<path d="M250.51 198.005C250.961 197.215 231.374 191.922 230.475 193.078C229.254 194.649 249.194 200.312 250.51 198.005Z" fill="#17171D"/>
<path d="M255.342 160.93C255.905 160.8 277.335 159.318 284.81 156.843C290.867 154.841 299.629 153.141 300.213 146.571C301.108 136.33 297.647 132.044 290.535 130.847C286.752 130.213 281.551 128.711 278.16 130.089C273.362 132.051 240.97 141.992 239.779 151.775C238.717 160.486 248.622 162.481 255.342 160.93Z" fill="#2483E2"/>
<path d="M268.389 138.203C268.389 138.203 244.551 142.756 242.66 150.553C240.769 158.35 260.585 191.428 260.585 191.428L247.183 152.691L268.389 138.203Z" fill="#17171D"/>
<path d="M244.1 153.128C244.09 154.024 244.201 154.838 244.432 155.573C246.102 161.256 254.06 162.475 259.744 161.167C259.855 161.147 260.71 161.076 262.078 160.956C263.507 160.825 265.498 160.654 267.782 160.432C274.834 159.738 284.643 158.602 289.221 157.082C295.277 155.08 304.04 153.379 304.623 146.811C305.025 142.243 304.553 138.863 303.275 136.408C301.706 133.36 298.889 131.75 294.945 131.087C291.162 130.453 287.551 132.373 284.16 133.752C279.362 135.713 245.378 142.233 244.181 152.011C244.181 152.031 244.181 152.051 244.171 152.071C244.129 152.434 244.109 152.797 244.1 153.128Z" fill="#4093F6"/>
<path d="M244.167 154.421C244.179 154.49 244.2 154.559 244.211 154.628C244.35 155.217 244.593 156.013 244.938 156.985C248.095 166.191 259.177 190.981 264.326 197.562C268.576 194.228 276.203 191.882 283.115 189.045C283.172 189.076 283.13 188.95 283.025 188.682C282.02 186.371 274.894 173.458 271.973 166.783C270.703 163.914 269.704 160.959 268.768 157.962C268.043 155.615 267.364 153.24 266.636 150.882C266.618 150.834 266.61 150.784 266.592 150.736C266.068 148.987 265.512 147.234 264.9 145.51C263.182 140.676 244.452 147.225 244.107 153.575C244.083 153.854 244.109 154.135 244.167 154.421Z" fill="#4093F6"/>
<path d="M261.142 156.951C261.313 157.695 261.645 159.104 262.078 160.954C264.211 170.119 273.729 187.857 273.155 192.585C273.155 192.585 282.03 188.892 283.116 189.043C283.116 189.043 277.152 177.318 273.197 169.441C271.788 166.637 270.276 163.331 269.844 160.222C276.895 159.528 284.642 158.6 289.22 157.08C295.276 155.078 304.039 153.377 304.622 146.809C305.025 142.241 304.552 138.861 303.274 136.406L300.346 134.565C300.346 134.565 293.324 148.459 280.84 150.974C275.115 152.131 270.286 152.553 266.836 153.097C262.761 153.741 260.598 154.557 261.142 156.951Z" fill="#2483E2"/>
<path d="M283.12 189.047C282.986 188.147 264.319 196.099 264.328 197.562C264.339 199.551 283.511 191.674 283.12 189.047Z" fill="#17171D"/>
<path d="M241.214 104.502C241.192 104.472 241.165 104.448 241.144 104.416C240.836 103.949 241.697 103.343 242.006 103.81C242.027 103.843 242.059 103.865 242.083 103.894C242.162 103.612 242.552 103.321 242.999 103.667C243.127 103.766 244.94 105.208 246.936 105.427C246.618 105.105 246.08 104.575 245.608 104.343C245.106 104.096 245.456 103.29 245.957 103.544C246.037 103.584 246.679 103.929 246.751 104.003C248.944 105.357 250.777 107.504 252.104 109.706C252.348 110.047 252.58 110.399 252.788 110.774C252.863 110.909 252.811 111.094 252.727 111.209C252.294 111.789 251.06 112.821 250.464 113.235C250.405 113.276 250.339 113.295 250.274 113.305C250.335 113.757 249.639 114.003 249.446 113.523C248.933 112.239 247.654 110.057 247.64 110.04C245.295 109.247 243.039 108.439 241.1 106.896C240.709 106.584 241.112 105.897 241.511 106.022C241.516 106.021 241.52 106.017 241.525 106.016C241.519 106.011 241.514 106.005 241.509 106C241.386 105.919 240.891 105.449 240.763 105.285C240.518 104.969 240.907 104.521 241.214 104.502Z" fill="#EA3E72"/>
<path d="M246.366 106.47C246.356 106.47 246.346 106.469 246.336 106.466C244.11 105.921 242.083 104.065 241.998 103.987C241.946 103.94 241.943 103.86 241.991 103.809C242.038 103.758 242.116 103.754 242.169 103.802C242.189 103.821 244.234 105.692 246.396 106.221C246.463 106.237 246.505 106.306 246.489 106.372C246.473 106.432 246.422 106.47 246.366 106.47Z" fill="#2A2B3C"/>
<path d="M245.827 107.482C245.819 107.482 245.811 107.481 245.802 107.48C243.919 107.111 241.242 104.696 241.128 104.594C241.077 104.547 241.073 104.468 241.119 104.416C241.167 104.365 241.245 104.361 241.297 104.407C241.325 104.431 244.036 106.878 245.85 107.232C245.918 107.246 245.962 107.312 245.949 107.38C245.938 107.44 245.886 107.482 245.827 107.482Z" fill="#2A2B3C"/>
<path d="M245.298 108.276C245.287 108.276 245.276 108.275 245.265 108.271C243.862 107.886 241.535 106.195 241.436 106.123C241.38 106.083 241.368 106.004 241.409 105.948C241.45 105.891 241.53 105.881 241.585 105.921C241.608 105.938 243.974 107.655 245.333 108.029C245.399 108.048 245.438 108.117 245.42 108.183C245.404 108.24 245.354 108.276 245.298 108.276Z" fill="#2A2B3C"/>
<path d="M287.844 95.0634C285.053 92.9537 272.952 108.641 262.389 116.586C254.839 122.266 267.919 131.413 270.317 130C272.716 128.586 293.582 99.3963 287.844 95.0634Z" fill="#EDF1F4"/>
<path d="M251.683 105.668C259.384 108.998 266.009 115.819 270.241 118.929C274.473 122.038 271.37 129.981 269.617 130.088C267.865 130.193 252.778 125.832 246.431 119.813C246.431 119.812 250.137 104.998 251.683 105.668Z" fill="#EDF1F4"/>
<path d="M283.966 98.4834C283.966 98.4834 271.056 122.877 266.914 124.774C262.772 126.67 246.431 119.812 246.431 119.812C246.431 119.812 250.13 123.374 258.96 127.254C266.913 130.751 269.638 130.753 270.317 129.998C286.064 112.489 282.168 114.443 283.966 98.4834Z" fill="#E4EAEF"/>
<path d="M311.471 138.304C311.471 138.304 306.882 99.248 298.109 95.4985C290.942 92.4361 284.261 94.4814 282.923 102.065C281.695 109.025 279.396 118.099 277.96 121.699C276.568 125.189 272.185 132.064 272.185 132.064C272.185 132.064 293.624 141.729 311.471 138.304Z" fill="#EDF1F4"/>
<path d="M297.171 97.8848C297.171 97.8848 289.494 109.257 287.719 120.553C285.943 131.848 277.959 134.29 277.959 134.29C277.959 134.29 293.875 141.403 311.47 138.304C311.471 138.304 306.847 105.803 297.171 97.8848Z" fill="#E4EAEF"/>
<path d="M283.402 143.46C283.549 143.823 284.115 143.981 284.307 143.523C284.309 143.517 284.312 143.512 284.315 143.507C284.401 143.921 285.029 144.137 285.244 143.653C285.685 142.651 286.131 141.571 287.104 140.931C287.913 140.398 289.016 140.346 289.93 140.138C290.712 139.959 291.393 139.738 292.117 139.407C294.738 138.214 297.303 136.798 299.735 135.26C299.991 135.098 300.057 134.655 299.791 134.462C298.526 133.537 297.263 132.614 295.998 131.69C295.792 131.54 295.566 131.57 295.397 131.682C295.327 131.706 295.26 131.746 295.198 131.807C292.922 134.104 289.77 135.921 286.734 136.99C284.57 137.752 282.901 138.859 281.527 140.721C281.145 141.239 281.898 141.908 282.283 141.386C283.044 140.356 283.897 139.673 284.816 139.13C284.822 139.159 284.82 139.189 284.83 139.218C283.795 140.304 283.056 141.514 282.549 142.934C282.343 143.504 283.13 143.931 283.402 143.46Z" fill="#EA3E72"/>
<path d="M283.678 140.781C283.661 140.781 283.644 140.778 283.628 140.77C283.565 140.743 283.535 140.669 283.563 140.605C283.743 140.193 284.695 139.175 284.737 139.131C284.785 139.082 284.864 139.077 284.915 139.126C284.965 139.174 284.968 139.253 284.921 139.304C284.653 139.589 283.929 140.397 283.794 140.706C283.774 140.753 283.728 140.781 283.678 140.781Z" fill="#2A2B3C"/>
<path d="M283.402 143.585C283.389 143.585 283.376 143.583 283.362 143.578C283.296 143.557 283.26 143.486 283.282 143.42C283.289 143.398 284.03 141.213 285.616 139.59C285.664 139.542 285.744 139.539 285.794 139.589C285.844 139.638 285.844 139.717 285.796 139.767C284.25 141.348 283.529 143.478 283.522 143.499C283.503 143.552 283.454 143.585 283.402 143.585Z" fill="#2A2B3C"/>
<path d="M284.314 143.633C284.298 143.633 284.283 143.63 284.268 143.624C284.204 143.598 284.171 143.524 284.198 143.461C284.234 143.368 285.102 141.205 286.277 140.29C286.33 140.246 286.41 140.256 286.453 140.311C286.495 140.366 286.486 140.446 286.431 140.488C285.31 141.361 284.44 143.531 284.431 143.553C284.411 143.603 284.365 143.633 284.314 143.633Z" fill="#2A2B3C"/>
<path d="M297.921 98.3526C294.676 99.6625 297.298 119.955 302.439 127.883C307.579 135.811 318.849 134.135 318.87 131.35C318.89 128.567 304.589 95.6615 297.921 98.3526Z" fill="white"/>
<path d="M288.419 134.818C295.237 129.927 304.493 127.754 309.336 125.723C314.179 123.691 319.397 130.439 318.586 131.995C317.775 133.552 306.276 144.249 297.85 146.598C297.85 146.598 287.051 135.801 288.419 134.818Z" fill="white"/>
<path d="M308.563 108.64C308.563 108.64 314.111 124.777 313.608 129.305C313.105 133.832 297.85 146.597 297.85 146.597C297.85 146.597 302.806 145.255 310.676 139.679C317.765 134.657 319.067 132.346 318.869 131.35C318.673 130.355 316.345 121.384 308.563 108.64Z" fill="#EDF1F4"/>
<path d="M287.359 89.8286C287.359 89.8286 288.686 94.0489 288.82 94.9493C288.863 95.225 292.864 94.9041 293.392 94.3729C292.983 93.2491 292.083 91.8085 291.679 89.8286C291.273 87.8478 287.359 89.8286 287.359 89.8286Z" fill="#E93E72"/>
<path d="M293.118 86.4985C293.118 86.4985 291.453 91.763 288.034 91.4039C284.614 91.0437 287.763 83.8888 288.303 83.754C288.843 83.6192 292.263 83.3486 293.118 86.4985Z" fill="#E93E72"/>
<path d="M290.477 82.0356C288.332 81.6091 285.745 82.0618 285.421 84.4159C285.384 84.6825 285.481 84.9581 285.772 85.0336C287.488 85.4843 289.198 85.5396 290.934 85.2459C290.953 85.5406 290.984 85.8374 291.039 86.1372C291.164 86.8243 291.264 87.9642 291.839 88.4581C292.996 89.4501 294.097 87.7479 294.295 86.769C294.81 84.2409 292.76 82.1382 290.477 82.0356Z" fill="#2A2B3C"/>
<path d="M300.593 97.8933C299.195 92.4617 296.589 82.1942 290.477 82.0352C290.148 82.0272 291.847 82.9094 291.749 83.2344C291.305 84.7012 291.877 85.8611 291.936 87.349C291.829 87.4295 291.448 88.4496 291.454 88.6277C291.696 95.7253 290.295 102.048 289.263 109.053C289.228 109.293 289.32 109.631 289.614 109.672C291.622 109.95 293.63 110.228 295.638 110.506C295.953 110.55 296.277 110.382 296.275 110.022C296.254 106.765 296.177 103.51 296.075 100.255C296.711 103.42 296.944 106.65 297.096 109.906C297.112 110.249 297.404 110.456 297.733 110.39C299.807 109.982 301.91 110.318 302.211 107.966C302.632 104.677 301.4 101.029 300.593 97.8933Z" fill="#2A2B3C"/>
<path d="M291.229 87.2407C291.229 87.2407 291.881 86.3181 292.803 86.5888C293.726 86.8594 293.635 89.131 292.016 89.1089C290.396 89.0857 291.229 87.2407 291.229 87.2407Z" fill="#E93E72"/>
<path d="M291.638 88.67C291.813 88.5241 292.067 88.7756 291.89 88.9225C291.615 89.1519 291.225 89.847 291.712 90.0694C292.146 90.2686 292.885 89.7464 292.506 89.2796C292.363 89.1026 292.614 88.849 292.759 89.0271C293.318 89.7172 292.573 90.5603 291.795 90.4567C290.83 90.3279 291.087 89.1297 291.638 88.67Z" fill="#FFD357"/>
<path d="M303.32 108.547C302.752 99.2563 298.795 87.9032 295.899 84.699C293.031 81.525 290.147 82.368 290.118 82.3761L290.045 82.1367C290.074 82.1246 293.11 81.2393 296.085 84.53C299.008 87.7644 303 99.1919 303.572 108.531L303.32 108.547Z" fill="#2A2B3C"/>
<path d="M281.949 196.827C281.619 195.624 281.191 194.763 279.907 193.434C279.9 193.415 279.886 193.41 279.886 193.41C278.884 192.381 278.317 191.893 277.381 190.853C275.042 191.794 271.999 192.881 270.376 193.922C271.523 195.459 272.644 197.193 272.83 198.272C272.863 198.445 272.878 198.624 272.873 198.811C272.854 201.294 270.202 204.305 269.505 206.328C269.296 206.866 269.246 207.332 269.417 207.692C270.265 209.537 282.722 199.727 281.949 196.827Z" fill="#E93E72"/>
<path d="M269.36 207.46C269.367 207.548 269.391 207.607 269.427 207.683C270.294 209.681 283.071 199.705 282.316 196.907L282.317 196.893C282.302 196.733 282.259 196.57 282.201 196.406C281.728 195.021 280.129 193.624 279.901 193.431C279.902 193.416 279.888 193.415 279.888 193.415C277.503 197.573 272.873 198.803 272.873 198.803C272.857 200.984 270.824 203.568 269.846 205.522C269.422 206.251 269.218 206.928 269.36 207.46Z" fill="#4093F6"/>
<path d="M269.36 207.46C269.367 207.547 269.391 207.606 269.427 207.682C270.294 209.68 283.071 199.704 282.317 196.906L282.318 196.892C282.302 196.732 282.259 196.569 282.201 196.405C281.771 197.351 280.777 199.144 278.736 201.019C276.097 203.448 273.227 205.873 269.36 207.46Z" fill="#2A2B3B"/>
<path d="M241.073 205.413C241.861 204.445 242.312 203.596 242.649 201.78C242.66 201.762 242.657 201.749 242.657 201.749C242.913 200.337 243.795 197.018 244.098 195.651C241.955 194.852 238.227 194.199 236.834 193.812C236.247 195.637 235.373 198.051 234.601 198.829C234.479 198.956 234.342 199.072 234.187 199.178C232.155 200.604 228.163 200.195 226.112 200.801C225.553 200.944 225.144 201.174 224.95 201.522C223.941 203.284 239.162 207.726 241.073 205.413Z" fill="#E93E72"/>
<path d="M225.105 201.341C225.039 201.397 225.002 201.452 224.963 201.526C223.84 203.391 239.383 207.998 241.222 205.759L241.234 205.751C241.355 205.647 241.463 205.517 241.563 205.374C242.416 204.184 242.624 202.072 242.648 201.773C242.66 201.766 242.653 201.753 242.653 201.753C237.884 202.227 234.192 199.173 234.192 199.173C232.407 200.426 229.123 200.274 226.964 200.611C226.125 200.69 225.456 200.917 225.105 201.341Z" fill="#4093F6"/>
<path d="M225.105 201.341C225.039 201.397 225.002 201.451 224.963 201.526C223.84 203.391 239.383 207.998 241.222 205.759L241.234 205.751C241.355 205.647 241.463 205.517 241.563 205.374C240.544 205.573 238.506 205.806 235.795 205.232C232.283 204.496 228.642 203.567 225.105 201.341Z" fill="#2A2B3B"/>
<path d="M328.461 207.422L318.401 151.777L317.411 151.956L327.471 207.601L328.461 207.422Z" fill="#2A2B3B"/>
<path d="M295.082 151.989L294.092 151.811L284.043 207.46L285.033 207.639L295.082 151.989Z" fill="#2A2B3B"/>
<path d="M303.93 151.989L302.94 151.811L292.891 207.46L293.881 207.639L303.93 151.989Z" fill="#2A2B3B"/>
<path d="M329.694 122.847C329.694 122.847 306.378 138.059 288.3 157.365C288.3 157.365 309.609 159.896 320.321 150.745C331.033 141.594 329.694 122.847 329.694 122.847Z" fill="#E93E72"/>
<path d="M321.781 172.942H290.562V173.948H321.781V172.942Z" fill="#2A2B3B"/>
<path d="M276 131.746H165.994V134.429H276V131.746Z" fill="#2A2B3B"/>
<path d="M275.831 208.038C275.583 208.038 275.368 207.855 275.333 207.602L265.273 133.156C265.236 132.88 265.429 132.627 265.705 132.589C265.981 132.536 266.233 132.744 266.271 133.02L276.331 207.466C276.369 207.742 276.175 207.995 275.9 208.033C275.877 208.037 275.854 208.038 275.831 208.038Z" fill="#2A2B3C"/>
<path d="M232.426 208.037C232.404 208.037 232.381 208.036 232.359 208.032C232.083 207.996 231.89 207.742 231.927 207.466L241.988 133.019C242.025 132.745 242.279 132.538 242.554 132.589C242.83 132.625 243.023 132.879 242.986 133.155L232.925 207.602C232.89 207.854 232.674 208.037 232.426 208.037Z" fill="#2A2B3C"/>
<path d="M216.006 208.038C215.757 208.038 215.542 207.855 215.508 207.602L205.447 133.156C205.41 132.88 205.603 132.627 205.879 132.589C206.152 132.536 206.407 132.744 206.445 133.02L216.506 207.466C216.543 207.742 216.35 207.995 216.074 208.033C216.051 208.037 216.028 208.038 216.006 208.038Z" fill="#2A2B3C"/>
<path d="M172.601 208.037C172.579 208.037 172.555 208.036 172.533 208.032C172.258 207.996 172.065 207.742 172.102 207.466L182.162 133.019C182.199 132.745 182.45 132.538 182.728 132.589C183.004 132.625 183.197 132.879 183.16 133.155L173.1 207.602C173.065 207.854 172.849 208.037 172.601 208.037Z" fill="#2A2B3C"/>
<path d="M213.003 128.398H216.812L209.767 109.988H205.958L213.003 128.398Z" fill="#BED0E2"/>
<path d="M253.644 128.397H213.003V131.745H253.644V128.397Z" fill="#BED0E2"/>
<path d="M71.1664 203.187C69.1352 202.389 65.4923 202.101 63.8062 200.475C63.6694 200.347 63.5517 200.211 63.4511 200.066C62.8093 199.179 62.6332 198.724 62.3374 196.829C60.1654 196.547 57.1503 197.108 54.9602 198.257C55.0477 199.656 55.0055 200.268 55.0407 201.705C55.0407 201.705 55.0357 201.719 55.0437 201.736C55.085 203.197 55.768 204.8 56.1634 205.634C61.2187 205.214 66.1996 204.488 71.1664 203.187Z" fill="#4C5072"/>
<path d="M73.0356 204.952C73.0657 205.847 57.3113 207.839 56.3153 206.622L56.3053 206.612C56.2449 206.55 56.2047 206.481 56.1544 206.41C56.1141 206.34 56.0739 206.269 56.0336 206.188C55.3797 204.88 55.0256 202.027 55.0457 201.725C55.0357 201.715 55.0457 201.705 55.0457 201.705C59.6835 202.911 63.7982 200.468 63.7982 200.468C65.3676 201.987 68.6372 202.339 70.7197 203.004C72.7519 203.454 73.0245 204.911 73.0356 204.952Z" fill="#4093F6"/>
<path d="M73.1082 205.257C73.1384 206.154 57.4745 208.222 56.4785 207.005C56.4785 207.005 56.2039 206.481 56.1536 206.41C61.403 206.817 68.9945 205.635 72.9845 204.84C73.0046 204.881 73.0981 205.218 73.1082 205.257Z" fill="#2A2B3B"/>
<path d="M68.9643 196.603C69.3979 197.026 65.1323 157.045 64.8969 149.585C64.6474 141.718 64.0468 133.817 63.2108 125.991C62.5337 119.648 63.4844 111.699 58.735 107.125C58.4281 106.829 41.6958 108.193 39.0178 114.897C37.5942 118.458 38.7079 122.398 39.3407 126.004C40.2361 131.105 44.1224 161.475 44.394 171.693C44.6405 180.953 45.2401 190.21 48.4775 198.973C52.9976 200.625 62.8335 198.758 68.9643 196.603Z" fill="#3F4261"/>
<path d="M47.4796 121.857C47.4796 121.857 50.5148 158.907 52.0238 165.467C53.5329 172.026 55.1324 193.886 59.6978 198.969C59.6978 198.969 52.6435 200.432 48.4775 198.973C48.4775 198.973 45.2824 190.282 44.546 176.04C43.8086 161.799 38.3257 130.684 38.3257 130.684L47.4796 121.857Z" fill="#343751"/>
<path d="M47.1606 126.772L40.8779 146.2L43.726 165.909L47.1606 126.772Z" fill="#2A2B3B"/>
<path d="M62.8569 126.127C62.202 126.127 60.8268 126.032 60.0873 125.293C59.1195 124.324 59.0028 116.304 58.9988 115.964C58.9978 115.894 59.0531 115.837 59.1235 115.836H59.1245C59.193 115.836 59.2493 115.891 59.2503 115.96C59.2805 118.253 59.5209 124.37 60.2654 125.115C61.1567 126.008 63.1788 125.869 63.2 125.865C63.2634 125.855 63.3287 125.911 63.3348 125.981C63.3408 126.05 63.2885 126.111 63.2191 126.117C63.198 126.117 63.0631 126.127 62.8569 126.127Z" fill="#2A2B3C"/>
<path d="M47.7232 196.682C47.6548 196.682 47.5974 196.626 47.5974 196.557C47.5974 196.488 47.6528 196.431 47.7222 196.43C47.8892 196.428 64.4082 196.219 68.7241 193.257C68.7814 193.219 68.8599 193.232 68.8991 193.29C68.9383 193.348 68.9233 193.426 68.8669 193.465C64.4877 196.469 48.4083 196.675 47.7252 196.682H47.7232Z" fill="#2A2B3C"/>
<path d="M40.896 161.282C33.5611 161.829 26.8317 160.559 19.9324 158.288C21.201 150.344 20.9706 141.426 21.6155 135.146C22.1718 129.642 22.8177 124.782 23.8579 121.25C27.5028 108.862 34.8699 114.561 47.6012 115.134C49.5338 121.448 41.047 160.526 40.896 161.282Z" fill="#3F4261"/>
<path d="M22.8367 153.882C27.8719 159.098 34.1998 158.304 40.896 161.282C35.7743 170.752 24.0077 190.56 16.878 195.838C14.4585 197.629 10.0158 194.079 6.88005 191.324C6.85389 191.307 6.82875 191.275 6.80259 191.259C-0.966985 184.421 0.464598 183.399 0.708057 183.333C7.93438 181.338 14.9565 164.237 22.8367 153.882Z" fill="#3F4261"/>
<path d="M0.708196 183.332C6.98784 177.789 19.5491 158.664 19.7715 156.701C20.0964 153.832 20.8026 143.115 21.3701 135.904C22.0602 127.127 24.3731 114.149 24.3731 114.149L38.9605 115.96C38.9605 115.96 28.028 155.029 23.6034 160.478C19.36 165.702 8.03813 184.591 6.88019 191.323C6.88019 191.323 6.848 191.298 6.80172 191.258C-0.967852 184.42 0.519062 183.499 0.708196 183.332Z" fill="#343751"/>
<path d="M15.5936 196.3C16.4306 195.801 1.77673 182.879 0.423622 183.704C-1.39226 184.811 13.2676 197.705 15.5936 196.3Z" fill="#2A2B3B"/>
<path d="M0.683911 192.944C1.03703 191.747 1.48069 190.894 2.78853 189.589C2.79658 189.569 2.80965 189.564 2.80965 189.564C3.82977 188.554 4.67282 187.894 5.62855 186.871C7.17784 188.029 9.89613 190.193 11.2492 191.672C10.0752 193.189 9.97863 193.481 9.7744 194.556C9.73718 194.729 9.72008 194.908 9.72109 195.095C9.69493 197.578 12.2895 200.638 12.9484 202.673C13.1466 203.214 13.1889 203.682 13.0108 204.038C12.1295 205.867 -0.14204 195.828 0.683911 192.944Z" fill="#4C5072"/>
<path d="M13.0732 203.81C13.0652 203.896 13.04 203.957 13.0018 204.031C12.0984 206.013 -0.491111 195.8 0.315726 193.017L0.314713 193.003C0.332821 192.843 0.379099 192.681 0.440467 192.518C0.938452 191.143 2.56219 189.776 2.79559 189.586C2.79458 189.572 2.80867 189.571 2.80867 189.571C5.1155 193.772 9.72211 195.089 9.72211 195.089C9.69797 197.27 11.6808 199.891 12.6235 201.862C13.034 202.598 13.2241 203.278 13.0732 203.81Z" fill="#4093F6"/>
<path d="M13.0732 203.81C13.0652 203.897 13.04 203.957 13.0018 204.032C12.0984 206.013 -0.491111 195.8 0.315726 193.018L0.314713 193.003C0.332821 192.843 0.379099 192.682 0.440467 192.519C0.851933 193.472 1.81269 195.283 3.81872 197.196C6.41227 199.673 9.23721 202.151 13.0732 203.81Z" fill="#2A2B3B"/>
<path d="M19.0933 194.02C19.0531 194.02 19.0139 194.001 18.9897 193.965C13.4354 185.89 3.30971 180.904 3.20811 180.855C3.14573 180.825 3.11957 180.75 3.14975 180.687C3.17993 180.623 3.25438 180.597 3.31776 180.628C3.42037 180.678 13.6054 185.693 19.197 193.821C19.2362 193.88 19.2221 193.957 19.1648 193.996C19.1426 194.013 19.1175 194.02 19.0933 194.02Z" fill="#2A2B3C"/>
<path d="M106.778 90.9795C106.819 90.9574 106.862 90.9443 106.902 90.9192C107.492 90.559 106.866 89.4272 106.273 89.7894C106.232 89.8135 106.186 89.8216 106.143 89.8437C106.208 89.4866 105.933 88.9554 105.254 89.1093C105.058 89.1546 102.282 89.8186 99.9592 89.0178C100.483 88.8236 101.362 88.5117 102.009 88.4987C102.695 88.4846 102.741 87.4001 102.051 87.4232C101.942 87.4262 101.048 87.4755 100.928 87.5198C97.7802 87.888 94.6021 89.3317 91.9583 91.1023C91.5055 91.3568 91.0599 91.6294 90.6293 91.9403C90.4754 92.0509 90.4321 92.2864 90.4653 92.4584C90.6313 93.3357 91.4432 95.1364 91.8788 95.9121C91.9221 95.9896 91.9844 96.0449 92.0518 96.0912C91.742 96.566 92.3788 97.2049 92.8496 96.7682C94.1051 95.5992 96.6866 93.8266 96.7108 93.8145C99.7268 94.1556 102.653 94.4332 105.622 93.721C106.222 93.5761 106.144 92.5962 105.636 92.5268C105.632 92.5218 105.629 92.5158 105.624 92.5107C105.633 92.5087 105.642 92.5047 105.65 92.5027C105.829 92.4765 106.627 92.2099 106.857 92.0932C107.297 91.8669 107.107 91.1616 106.778 90.9795Z" fill="#4C5072"/>
<path d="M101.839 90.627C101.248 90.627 100.648 90.5817 100.074 90.465C100.007 90.4509 99.9624 90.3855 99.9754 90.3181C99.9895 90.2507 100.059 90.2084 100.123 90.2195C102.801 90.7567 106.072 89.7346 106.104 89.7245C106.172 89.7064 106.241 89.7406 106.262 89.806C106.283 89.8714 106.246 89.9429 106.181 89.964C106.154 89.971 104.068 90.627 101.839 90.627Z" fill="#2A2B3C"/>
<path d="M101.502 92.0254C101.001 92.0254 100.529 91.9831 100.12 91.8795C100.053 91.8624 100.012 91.794 100.03 91.7276C100.047 91.6612 100.117 91.6199 100.182 91.636C102.385 92.1924 106.698 90.8704 106.741 90.8584C106.809 90.8372 106.878 90.8755 106.899 90.9409C106.919 91.0073 106.882 91.0777 106.815 91.0978C106.667 91.1441 103.787 92.0254 101.502 92.0254Z" fill="#2A2B3C"/>
<path d="M101.395 93.1251C100.99 93.1251 100.61 93.1029 100.288 93.0466C100.22 93.0345 100.175 92.9701 100.186 92.9007C100.197 92.8313 100.26 92.789 100.332 92.7981C102.036 93.0909 105.576 92.4078 105.612 92.4007C105.677 92.3876 105.746 92.4319 105.759 92.5003C105.772 92.5687 105.728 92.6351 105.66 92.6482C105.541 92.6734 103.203 93.1251 101.395 93.1251Z" fill="#2A2B3C"/>
<path d="M46.6505 73.9558C58.1635 71.0887 67.2561 86.822 71.8918 95.0553C76.5276 103.289 72.0538 108.416 68.2802 107.078C56.4382 102.877 39.6737 75.6933 46.6505 73.9558Z" fill="#EDF1F4"/>
<path d="M92.3394 86.846C83.7711 87.5703 70.2128 91.1146 66.1353 94.4234C62.0569 97.7322 67.6967 107.266 69.4512 107.288C71.2057 107.309 87.7006 105.669 96.6412 98.7343C96.6422 98.7343 94.0185 86.7041 92.3394 86.846Z" fill="#EDF1F4"/>
<path d="M96.6422 98.7339C96.6422 98.7339 83.3465 108.442 68.2802 107.078C66.4089 106.908 57.1907 99.3586 57.1907 99.3586L60.247 91.249C60.247 91.249 65.5025 102.575 68.9401 103.934C72.3777 105.294 96.6422 98.7339 96.6422 98.7339Z" fill="#E4EAEF"/>
<path d="M62.3819 115.108C62.3819 115.108 43.4796 120.156 23.531 116.6L24.1477 111.873L62.3819 115.108Z" fill="#2A2B3B"/>
<path d="M54.9343 75.251C54.9343 75.251 59.0691 77.5538 61.5802 87.8867C62.8971 93.3032 64.3276 104.979 64.3276 104.979L57.1899 99.3595L54.9343 75.251Z" fill="#17171D"/>
<path d="M22.6326 114.784C22.6326 114.784 27.1909 79.4374 37.6707 73.374C44.4172 69.4706 54.8276 72.9042 57.1515 78.0279C61.6847 88.0218 64.3285 114.743 64.3285 114.743C64.3285 114.743 40.0912 119.824 22.6326 114.784Z" fill="#E93E72"/>
<path d="M49.3266 67.118C49.3266 67.118 49.2049 71.122 49.0701 72.0224C49.0288 72.2981 48.4654 73.1522 47.9876 73.4751C46.3065 72.2699 44.9152 72.5536 44.386 72.0224C44.7944 70.8977 45.0057 69.2528 45.0057 67.118C45.0067 65.0969 49.3266 67.118 49.3266 67.118Z" fill="#4C5072"/>
<path d="M44.4595 63.8694C44.4595 63.8694 45.3961 69.31 48.8337 69.4176C52.2713 69.5232 50.1184 62.0082 49.6023 61.802C49.0852 61.5937 45.7331 60.8644 44.4595 63.8694Z" fill="#4C5072"/>
<path d="M40.1869 74.1924C40.1869 74.1924 45.2633 79.0968 45.1647 84.0424C45.0661 88.9891 39.1969 97.3724 40.1195 104.666C41.042 111.96 47.6013 116.819 47.6013 116.819C47.6013 116.819 34.1668 117.53 26.9576 115.961C19.7474 114.39 26.5994 94.9126 26.5994 94.9126L40.1869 74.1924Z" fill="#D32A6B"/>
<path d="M40.1867 74.1919C48.8375 82.3106 35.8889 98.2471 29.0318 104.747C22.1747 111.247 14.3619 101.713 14.9957 99.0027C15.6284 96.2914 34.1012 68.4797 40.1867 74.1919Z" fill="#EDF1F4"/>
<path d="M34.7372 132.947C33.7875 132.187 31.8137 131.026 30.7433 130.501C30.6738 130.375 30.6135 130.261 30.533 130.122C28.2413 126.197 26.7775 121.368 26.9958 116.83C27.0018 116.706 26.9696 116.604 26.9173 116.515C26.857 116.241 26.6236 115.999 26.1789 115.972C23.4526 115.799 20.7262 115.628 17.9989 115.456C17.4274 115.42 16.9325 115.951 17.0341 116.359C17.9878 120.231 19.2574 124.094 20.8872 127.771C21.3379 128.787 25.2875 134.172 25.2694 135.19V135.191C25.2986 136.252 25.5119 137.435 26.3268 137.988C26.6819 138.227 27.2624 138.027 27.3811 137.608C27.6235 137.88 27.9435 138.056 28.3932 138.027C28.8449 137.998 29.0873 137.792 29.2141 137.503C29.54 137.901 29.9676 138.09 30.535 137.799C30.8006 137.663 30.9495 137.457 31.0481 137.225C31.365 137.523 31.7815 137.629 32.3378 137.372C33.7281 136.729 32.4092 134.072 31.9575 133.124C32.0722 133.208 33.6497 134.109 33.7603 134.198C34.7654 135 35.7493 133.756 34.7372 132.947Z" fill="#4C5072"/>
<path d="M33.1435 127.838C33.9 119.272 30.6687 102.532 28.1083 97.9467C25.547 93.3612 15.1879 97.2827 14.8649 99.0081C14.543 100.734 14.2251 120.685 19.5239 130.683C19.5249 130.683 32.9956 129.516 33.1435 127.838Z" fill="#EDF1F4"/>
<path d="M43.539 60.5685L42.7341 60.477C42.0983 60.4045 42.0913 59.3975 42.7341 59.4709C43.1456 59.5172 43.5571 59.5645 43.9695 59.6118C43.9192 59.4378 43.881 59.2597 43.8599 59.0715C43.7895 58.4287 44.7955 58.4337 44.8659 59.0715C44.881 59.2134 44.9152 59.3452 44.9595 59.475C45.4333 58.988 46.0379 58.6269 46.8267 58.4639C48.3287 58.1541 50.553 58.2023 51.7291 59.3512C52.5027 60.1068 52.726 61.4941 51.8045 62.2355C51.1949 62.7255 50.3377 62.7053 49.5993 62.7426C48.5902 62.7929 47.5993 62.7647 46.6003 62.648C46.2874 63.0273 45.9464 63.3663 45.7713 63.7969C45.3247 64.8995 45.6758 66.3331 45.2723 67.5212C45.1124 67.994 44.4997 67.9397 44.3257 67.6087C44.2623 67.5826 44.1999 67.5443 44.1466 67.4749C44.0631 67.3693 43.9756 67.2536 43.889 67.1319C43.8468 67.1108 43.8045 67.0957 43.7643 67.0615C41.708 65.2677 41.7351 62.3462 43.539 60.5685Z" fill="#17171D"/>
<path d="M46.231 64.8604C46.231 64.8604 45.7099 63.8584 44.7592 64.0012C43.8085 64.1441 43.5902 66.4077 45.1978 66.6048C46.8065 66.801 46.231 64.8604 46.231 64.8604Z" fill="#4C5072"/>
<path d="M30.2563 78.2764C30.2563 78.2764 18.033 89.4544 14.8661 99.0067C11.6991 108.56 18.0451 128.826 19.525 130.682C19.525 130.682 15.8067 104.787 17.9868 100.009C20.1658 95.231 30.2563 78.2764 30.2563 78.2764Z" fill="#E4EAEF"/>
<path d="M47.9875 73.4755L46.8306 75.8336L43.738 71.7049L44.5479 71.5117L47.9875 73.4755Z" fill="#F2F8FF"/>
<path d="M47.9875 73.4752L49.73 74.7327V72.5084L49.07 72.0225L47.9875 73.4752Z" fill="#F2F8FF"/>
<path d="M97.0958 81.6287C97.9228 83.0884 98.9892 84.3701 100.233 85.4325L98.8393 88.7051L103.797 91.3419L105.732 88.356C107.308 88.7926 108.961 88.9637 110.639 88.8309L111.969 92.1306L117.344 90.4868L116.602 87.0079C118.062 86.181 119.342 85.1136 120.406 83.8711L123.678 85.2645L126.315 80.3058L123.329 78.3712C123.766 76.7957 123.935 75.1367 123.804 73.4637L127.104 72.1348L125.461 66.7585L121.982 67.501C121.153 66.0352 120.089 64.7596 118.845 63.6972L120.239 60.4246L115.28 57.7877L113.346 60.7737C111.77 60.337 110.111 60.168 108.439 60.2988L107.109 56.999L101.734 58.6429L102.476 62.1228C101.01 62.9507 99.7356 64.0161 98.6723 65.2595L95.3997 63.8652L92.7628 68.8239L95.7487 70.7585C95.3121 72.335 95.1411 73.9879 95.2739 75.6659L91.9741 76.9959L93.617 82.3711L97.0958 81.6287ZM99.8383 77.5311C98.2004 72.174 101.217 66.502 106.574 64.8652C111.931 63.2274 117.602 66.2424 119.24 71.5995C120.876 76.9567 117.861 82.6287 112.504 84.2655C107.146 85.9033 101.475 82.8882 99.8383 77.5311Z" fill="#EDF1F4"/>
<path d="M271.407 31.1523H227.425C223.935 31.1523 221.107 33.9813 221.107 37.4702V61.5777C221.107 65.0676 223.936 67.8956 227.425 67.8956H254.929L261.594 76.8694C262.303 77.8231 263.819 77.3211 263.817 76.133L263.807 67.8956H271.407C274.896 67.8956 277.725 65.0666 277.725 61.5777V37.4702C277.724 33.9803 274.896 31.1523 271.407 31.1523Z" fill="#EDF1F4"/>
<path d="M261.244 40.733H245.073C244.855 40.733 244.679 40.5569 244.679 40.3396C244.679 40.1223 244.855 39.9463 245.073 39.9463H261.244C261.461 39.9463 261.637 40.1223 261.637 40.3396C261.637 40.5569 261.46 40.733 261.244 40.733Z" fill="#2A2B3C"/>
<path d="M242.129 40.733H235.582C235.365 40.733 235.188 40.5569 235.188 40.3396C235.188 40.1223 235.365 39.9463 235.582 39.9463H242.129C242.346 39.9463 242.522 40.1223 242.522 40.3396C242.522 40.5569 242.346 40.733 242.129 40.733Z" fill="#2A2B3C"/>
<path d="M261.244 47.1188H252.629C252.412 47.1188 252.236 46.9427 252.236 46.7254C252.236 46.5081 252.412 46.332 252.629 46.332H261.244C261.461 46.332 261.637 46.5081 261.637 46.7254C261.637 46.9427 261.46 47.1188 261.244 47.1188Z" fill="#2A2B3C"/>
<path d="M250.074 47.1188H235.583C235.365 47.1188 235.189 46.9427 235.189 46.7254C235.189 46.5081 235.365 46.332 235.583 46.332H250.074C250.291 46.332 250.467 46.5081 250.467 46.7254C250.467 46.9427 250.29 47.1188 250.074 47.1188Z" fill="#2A2B3C"/>
<path d="M263.592 53.2437H250.587C250.369 53.2437 250.193 53.0677 250.193 52.8504C250.193 52.6331 250.369 52.457 250.587 52.457H263.592C263.809 52.457 263.985 52.6331 263.985 52.8504C263.985 53.0677 263.808 53.2437 263.592 53.2437Z" fill="#2A2B3C"/>
<path d="M248.219 53.2437H242.953C242.736 53.2437 242.56 53.0677 242.56 52.8504C242.56 52.6331 242.736 52.457 242.953 52.457H248.219C248.436 52.457 248.612 52.6331 248.612 52.8504C248.612 53.0677 248.436 53.2437 248.219 53.2437Z" fill="#2A2B3C"/>
<path d="M263.592 59.1949H256.664C256.447 59.1949 256.271 59.0189 256.271 58.8016C256.271 58.5843 256.447 58.4082 256.664 58.4082H263.592C263.809 58.4082 263.985 58.5843 263.985 58.8016C263.985 59.0189 263.808 59.1949 263.592 59.1949Z" fill="#2A2B3C"/>
<path d="M254.608 59.1949H242.953C242.736 59.1949 242.56 59.0189 242.56 58.8016C242.56 58.5843 242.736 58.4082 242.953 58.4082H254.608C254.825 58.4082 255.001 58.5843 255.001 58.8016C255.001 59.0189 254.825 59.1949 254.608 59.1949Z" fill="#2A2B3C"/>
<path d="M271.532 55.7315C271.183 55.7506 270.921 55.8029 270.744 55.8884C270.568 55.9749 270.416 56.1188 270.29 56.321C270.163 56.5242 270.074 56.7788 270.022 57.0836C269.983 57.314 269.964 57.7083 269.964 58.2727C269.964 59.1982 269.922 59.8451 269.838 60.2123C269.755 60.5795 269.601 60.8743 269.377 61.0956C269.152 61.3179 268.823 61.494 268.39 61.6218C268.099 61.7073 267.64 61.7505 267.015 61.7505H266.636V60.0332C267.147 60.0332 267.481 60.0011 267.638 59.9367C267.796 59.8723 267.912 59.7787 267.985 59.657C268.059 59.5353 268.097 59.329 268.1 59.0383C268.102 58.7476 268.121 58.1912 268.16 57.3713C268.183 56.8753 268.249 56.4769 268.354 56.1792C268.458 55.8814 268.598 55.6278 268.772 55.4206C268.946 55.2134 269.169 55.0303 269.442 54.8723C269.089 54.643 268.831 54.4196 268.668 54.2003C268.444 53.8854 268.291 53.484 268.211 52.9981C268.158 52.6641 268.12 51.9287 268.096 50.7939C268.091 50.4367 268.059 50.1973 267.999 50.0786C267.94 49.9599 267.832 49.8673 267.677 49.8029C267.523 49.7396 267.175 49.7064 266.636 49.7064V47.9961H267.015C267.659 47.9961 268.153 48.0464 268.496 48.146C268.84 48.2466 269.128 48.4176 269.363 48.6581C269.597 48.8985 269.755 49.1953 269.838 49.5454C269.922 49.8965 269.964 50.4478 269.964 51.2023C269.964 52.0746 270 52.646 270.072 52.9126C270.176 53.2938 270.336 53.5665 270.552 53.7315C270.766 53.8955 271.093 53.99 271.533 54.0142V55.7315H271.532Z" fill="#EA3E72"/>
<path d="M226.812 42.9058C227.251 42.8816 227.578 42.7881 227.792 42.6221C228.008 42.4581 228.168 42.1844 228.272 41.8042C228.344 41.5366 228.379 40.9672 228.379 40.0939C228.379 39.3404 228.421 38.7871 228.505 38.437C228.588 38.0869 228.747 37.7911 228.981 37.5497C229.214 37.3092 229.504 37.1382 229.847 37.0376C230.19 36.937 230.684 36.8877 231.328 36.8877H231.707V38.598C231.168 38.598 230.821 38.6301 230.666 38.6955C230.511 38.7589 230.403 38.8515 230.344 38.9702C230.284 39.0889 230.252 39.3273 230.247 39.6865C230.224 40.8213 230.185 41.5557 230.132 41.8897C230.052 42.3756 229.899 42.777 229.675 43.0919C229.513 43.3112 229.255 43.5355 228.902 43.7639C229.174 43.9219 229.397 44.105 229.571 44.3122C229.745 44.5194 229.885 44.773 229.99 45.0708C230.094 45.3695 230.159 45.7659 230.183 46.2629C230.221 47.0828 230.241 47.6392 230.243 47.9299C230.245 48.2206 230.284 48.4269 230.358 48.5486C230.432 48.6703 230.547 48.7639 230.705 48.8283C230.863 48.8916 231.196 48.9249 231.707 48.9249V50.6421H231.328C230.703 50.6421 230.245 50.5989 229.953 50.5134C229.519 50.3846 229.19 50.2085 228.966 49.9872C228.742 49.7659 228.588 49.4711 228.505 49.1029C228.421 48.7367 228.379 48.0898 228.379 47.1643C228.379 46.6009 228.36 46.2055 228.322 45.9762C228.269 45.6703 228.179 45.4158 228.053 45.2136C227.927 45.0104 227.775 44.8665 227.598 44.78C227.422 44.6945 227.159 44.6412 226.811 44.6231V42.9058H226.812Z" fill="#EA3E72"/>
<defs>
<linearGradient id="paint0_linear_955_903" x1="178.747" y1="114.001" x2="178.747" y2="33.8164" gradientUnits="userSpaceOnUse">
<stop stop-color="white" stop-opacity="0"/>
<stop offset="1" stop-color="#F8CB3D"/>
</linearGradient>
<linearGradient id="paint1_linear_955_903" x1="179.223" y1="21.5547" x2="179.223" y2="-0.000301923" gradientUnits="userSpaceOnUse">
<stop stop-color="#4093F5"/>
<stop offset="1" stop-color="white" stop-opacity="0"/>
</linearGradient>
</defs>
</svg>
